<?xml version="1.0" encoding="UTF-8"?>
<!DOCTYPE svg PUBLIC "-//W3C//DTD SVG 1.1//EN" "http://www.w3.org/Graphics/SVG/1.1/DTD/svg11.dtd">
<!-- Creator: CorelDRAW X6 -->
<svg xmlns="http://www.w3.org/2000/svg" xml:space="preserve" width="15.6299in" height="8.46457in" version="1.1" style="shape-rendering:geometricPrecision; text-rendering:geometricPrecision; image-rendering:optimizeQuality; fill-rule:evenodd; clip-rule:evenodd"
viewBox="0 0 15630 8465"
 xmlns:xlink="http://www.w3.org/1999/xlink">
 <defs>
  <style type="text/css">
   <![CDATA[
    .str0 {stroke:black;stroke-width:3;stroke-linejoin:bevel}
    .str1 {stroke:#2B2A29;stroke-width:3.93701}
    .fil0 {fill:none}
   ]]>
  </style>
 </defs>
 <g id="_0">
  <metadata id="CorelCorpID_0Corel-Layer"/>
  <path class="fil0 str0" d="M794 599l996 0 0 80c0,47 41,79 88,79 47,0 89,-32 89,-79l0 -80 3437 0 0 80c0,42 46,79 88,79 42,0 89,-37 89,-79l1 -80 3198 0 0 80c0,46 42,79 88,79 47,0 89,-32 89,-78l0 -80 3113 -1 0 80c0,46 42,79 88,79 47,0 89,-33 89,-79l0 -80 2273 0"/>
  <polyline class="fil0 str0" points="14520,601 14520,2363 14305,2363 14305,2442 14520,2441 14520,5522 "/>
  <path class="fil0 str0" d="M14520 5521l-741 0 0 -156 -76 0 0 156 -1487 0 0 -98c0,-46 -44,-79 -89,-79 -47,0 -89,33 -89,79l0 98 -1809 0 0 -157 -79 0 0 157 -1917 0 0 -98c0,-47 -42,-79 -89,-79 -47,0 -87,32 -87,79l0 98 -1282 0 0 -157 -79 0 0 157 -1457 0 0 -157 -78 0 0 157 -1288 0 0 -98c0,-47 -42,-79 -88,-79 -47,0 -87,32 -87,79l0 98 -969 0 0 -156 -75 0 0 156 -1860 0"/>
  <polyline class="fil0 str0" points="794,5521 793,3457 1010,3457 1010,3378 793,3378 794,599 "/>
  <line class="fil0 str0" x1="912" y1="816" x2="1463" y2= "816" />
  <line class="fil0 str0" x1="1463" y1="816" x2="1463" y2= "1367" />
  <line class="fil0 str0" x1="1463" y1="1367" x2="912" y2= "1367" />
  <line class="fil0 str0" x1="912" y1="1367" x2="912" y2= "816" />
  <line class="fil0 str0" x1="912" y1="1753" x2="1463" y2= "1753" />
  <line class="fil0 str0" x1="1463" y1="1753" x2="1463" y2= "2305" />
  <line class="fil0 str0" x1="1463" y1="2305" x2="912" y2= "2305" />
  <line class="fil0 str0" x1="912" y1="2305" x2="912" y2= "1753" />
  <line class="fil0 str0" x1="1006" y1="4753" x2="1557" y2= "4753" />
  <line class="fil0 str0" x1="1557" y1="4753" x2="1557" y2= "5305" />
  <line class="fil0 str0" x1="1557" y1="5305" x2="1006" y2= "5305" />
  <line class="fil0 str0" x1="1006" y1="5305" x2="1006" y2= "4753" />
  <line class="fil0 str0" x1="1100" y1="2503" x2="1651" y2= "2503" />
  <line class="fil0 str0" x1="1651" y1="2503" x2="1651" y2= "3055" />
  <line class="fil0 str0" x1="1651" y1="3055" x2="1100" y2= "3055" />
  <line class="fil0 str0" x1="1100" y1="3055" x2="1100" y2= "2503" />
  <line class="fil0 str0" x1="1193" y1="3253" x2="1745" y2= "3253" />
  <line class="fil0 str0" x1="1745" y1="3253" x2="1745" y2= "3805" />
  <line class="fil0 str0" x1="1745" y1="3805" x2="1193" y2= "3805" />
  <line class="fil0 str0" x1="1193" y1="3805" x2="1193" y2= "3253" />
  <line class="fil0 str0" x1="1662" y1="1753" x2="2213" y2= "1753" />
  <line class="fil0 str0" x1="2213" y1="1753" x2="2213" y2= "2305" />
  <line class="fil0 str0" x1="2213" y1="2305" x2="1662" y2= "2305" />
  <line class="fil0 str0" x1="1662" y1="2305" x2="1662" y2= "1753" />
  <line class="fil0 str0" x1="1943" y1="4753" x2="2495" y2= "4753" />
  <line class="fil0 str0" x1="2495" y1="4753" x2="2495" y2= "5305" />
  <line class="fil0 str0" x1="2495" y1="5305" x2="1943" y2= "5305" />
  <line class="fil0 str0" x1="1943" y1="5305" x2="1943" y2= "4753" />
  <line class="fil0 str0" x1="2037" y1="2503" x2="2588" y2= "2503" />
  <line class="fil0 str0" x1="2588" y1="2503" x2="2588" y2= "3055" />
  <line class="fil0 str0" x1="2588" y1="3055" x2="2037" y2= "3055" />
  <line class="fil0 str0" x1="2037" y1="3055" x2="2037" y2= "2503" />
  <line class="fil0 str0" x1="2225" y1="3253" x2="2776" y2= "3253" />
  <line class="fil0 str0" x1="2776" y1="3253" x2="2776" y2= "3805" />
  <line class="fil0 str0" x1="2776" y1="3805" x2="2225" y2= "3805" />
  <line class="fil0 str0" x1="2225" y1="3805" x2="2225" y2= "3253" />
  <line class="fil0 str0" x1="2412" y1="816" x2="2963" y2= "816" />
  <line class="fil0 str0" x1="2963" y1="816" x2="2963" y2= "1367" />
  <line class="fil0 str0" x1="2963" y1="1367" x2="2412" y2= "1367" />
  <line class="fil0 str0" x1="2412" y1="1367" x2="2412" y2= "816" />
  <line class="fil0 str0" x1="2412" y1="1753" x2="2963" y2= "1753" />
  <line class="fil0 str0" x1="2963" y1="1753" x2="2963" y2= "2305" />
  <line class="fil0 str0" x1="2963" y1="2305" x2="2412" y2= "2305" />
  <line class="fil0 str0" x1="2412" y1="2305" x2="2412" y2= "1753" />
  <line class="fil0 str0" x1="2600" y1="4003" x2="3151" y2= "4003" />
  <line class="fil0 str0" x1="3151" y1="4003" x2="3151" y2= "4555" />
  <line class="fil0 str0" x1="3151" y1="4555" x2="2600" y2= "4555" />
  <line class="fil0 str0" x1="2600" y1="4555" x2="2600" y2= "4003" />
  <line class="fil0 str0" x1="2787" y1="2503" x2="3338" y2= "2503" />
  <line class="fil0 str0" x1="3338" y1="2503" x2="3338" y2= "3055" />
  <line class="fil0 str0" x1="3338" y1="3055" x2="2787" y2= "3055" />
  <line class="fil0 str0" x1="2787" y1="3055" x2="2787" y2= "2503" />
  <line class="fil0 str0" x1="2881" y1="4753" x2="3432" y2= "4753" />
  <line class="fil0 str0" x1="3432" y1="4753" x2="3432" y2= "5305" />
  <line class="fil0 str0" x1="3432" y1="5305" x2="2881" y2= "5305" />
  <line class="fil0 str0" x1="2881" y1="5305" x2="2881" y2= "4753" />
  <line class="fil0 str0" x1="2975" y1="3253" x2="3526" y2= "3253" />
  <line class="fil0 str0" x1="3526" y1="3253" x2="3526" y2= "3805" />
  <line class="fil0 str0" x1="3526" y1="3805" x2="2975" y2= "3805" />
  <line class="fil0 str0" x1="2975" y1="3805" x2="2975" y2= "3253" />
  <line class="fil0 str0" x1="3162" y1="816" x2="3713" y2= "816" />
  <line class="fil0 str0" x1="3713" y1="816" x2="3713" y2= "1367" />
  <line class="fil0 str0" x1="3713" y1="1367" x2="3162" y2= "1367" />
  <line class="fil0 str0" x1="3162" y1="1367" x2="3162" y2= "816" />
  <line class="fil0 str0" x1="3162" y1="1753" x2="3713" y2= "1753" />
  <line class="fil0 str0" x1="3713" y1="1753" x2="3713" y2= "2305" />
  <line class="fil0 str0" x1="3713" y1="2305" x2="3162" y2= "2305" />
  <line class="fil0 str0" x1="3162" y1="2305" x2="3162" y2= "1753" />
  <line class="fil0 str0" x1="3350" y1="4003" x2="3901" y2= "4003" />
  <line class="fil0 str0" x1="3901" y1="4003" x2="3901" y2= "4555" />
  <line class="fil0 str0" x1="3901" y1="4555" x2="3350" y2= "4555" />
  <line class="fil0 str0" x1="3350" y1="4555" x2="3350" y2= "4003" />
  <line class="fil0 str0" x1="3537" y1="2503" x2="4088" y2= "2503" />
  <line class="fil0 str0" x1="4088" y1="2503" x2="4088" y2= "3055" />
  <line class="fil0 str0" x1="4088" y1="3055" x2="3537" y2= "3055" />
  <line class="fil0 str0" x1="3537" y1="3055" x2="3537" y2= "2503" />
  <line class="fil0 str0" x1="3725" y1="3253" x2="4276" y2= "3253" />
  <line class="fil0 str0" x1="4276" y1="3253" x2="4276" y2= "3805" />
  <line class="fil0 str0" x1="4276" y1="3805" x2="3725" y2= "3805" />
  <line class="fil0 str0" x1="3725" y1="3805" x2="3725" y2= "3253" />
  <line class="fil0 str0" x1="3912" y1="816" x2="4463" y2= "816" />
  <line class="fil0 str0" x1="4463" y1="816" x2="4463" y2= "1367" />
  <line class="fil0 str0" x1="4463" y1="1367" x2="3912" y2= "1367" />
  <line class="fil0 str0" x1="3912" y1="1367" x2="3912" y2= "816" />
  <line class="fil0 str0" x1="3912" y1="1753" x2="4463" y2= "1753" />
  <line class="fil0 str0" x1="4463" y1="1753" x2="4463" y2= "2305" />
  <line class="fil0 str0" x1="4463" y1="2305" x2="3912" y2= "2305" />
  <line class="fil0 str0" x1="3912" y1="2305" x2="3912" y2= "1753" />
  <line class="fil0 str0" x1="4100" y1="4003" x2="4651" y2= "4003" />
  <line class="fil0 str0" x1="4651" y1="4003" x2="4651" y2= "4555" />
  <line class="fil0 str0" x1="4651" y1="4555" x2="4100" y2= "4555" />
  <line class="fil0 str0" x1="4100" y1="4555" x2="4100" y2= "4003" />
  <line class="fil0 str0" x1="4287" y1="2503" x2="4838" y2= "2503" />
  <line class="fil0 str0" x1="4838" y1="2503" x2="4838" y2= "3055" />
  <line class="fil0 str0" x1="4838" y1="3055" x2="4287" y2= "3055" />
  <line class="fil0 str0" x1="4287" y1="3055" x2="4287" y2= "2503" />
  <line class="fil0 str0" x1="4475" y1="3253" x2="5026" y2= "3253" />
  <line class="fil0 str0" x1="5026" y1="3253" x2="5026" y2= "3805" />
  <line class="fil0 str0" x1="5026" y1="3805" x2="4475" y2= "3805" />
  <line class="fil0 str0" x1="4475" y1="3805" x2="4475" y2= "3253" />
  <line class="fil0 str0" x1="4662" y1="816" x2="5213" y2= "816" />
  <line class="fil0 str0" x1="5213" y1="816" x2="5213" y2= "1367" />
  <line class="fil0 str0" x1="5213" y1="1367" x2="4662" y2= "1367" />
  <line class="fil0 str0" x1="4662" y1="1367" x2="4662" y2= "816" />
  <line class="fil0 str0" x1="4662" y1="1753" x2="5213" y2= "1753" />
  <line class="fil0 str0" x1="5213" y1="1753" x2="5213" y2= "2305" />
  <line class="fil0 str0" x1="5213" y1="2305" x2="4662" y2= "2305" />
  <line class="fil0 str0" x1="4662" y1="2305" x2="4662" y2= "1753" />
  <line class="fil0 str0" x1="4850" y1="4003" x2="5401" y2= "4003" />
  <line class="fil0 str0" x1="5401" y1="4003" x2="5401" y2= "4555" />
  <line class="fil0 str0" x1="5401" y1="4555" x2="4850" y2= "4555" />
  <line class="fil0 str0" x1="4850" y1="4555" x2="4850" y2= "4003" />
  <line class="fil0 str0" x1="5037" y1="2503" x2="5588" y2= "2503" />
  <line class="fil0 str0" x1="5588" y1="2503" x2="5588" y2= "3055" />
  <line class="fil0 str0" x1="5588" y1="3055" x2="5037" y2= "3055" />
  <line class="fil0 str0" x1="5037" y1="3055" x2="5037" y2= "2503" />
  <line class="fil0 str0" x1="5225" y1="3253" x2="5776" y2= "3253" />
  <line class="fil0 str0" x1="5776" y1="3253" x2="5776" y2= "3805" />
  <line class="fil0 str0" x1="5776" y1="3805" x2="5225" y2= "3805" />
  <line class="fil0 str0" x1="5225" y1="3805" x2="5225" y2= "3253" />
  <line class="fil0 str0" x1="5412" y1="1753" x2="5963" y2= "1753" />
  <line class="fil0 str0" x1="5963" y1="1753" x2="5963" y2= "2305" />
  <line class="fil0 str0" x1="5963" y1="2305" x2="5412" y2= "2305" />
  <line class="fil0 str0" x1="5412" y1="2305" x2="5412" y2= "1753" />
  <line class="fil0 str0" x1="5600" y1="4003" x2="6151" y2= "4003" />
  <line class="fil0 str0" x1="6151" y1="4003" x2="6151" y2= "4555" />
  <line class="fil0 str0" x1="6151" y1="4555" x2="5600" y2= "4555" />
  <line class="fil0 str0" x1="5600" y1="4555" x2="5600" y2= "4003" />
  <line class="fil0 str0" x1="5787" y1="816" x2="6338" y2= "816" />
  <line class="fil0 str0" x1="6338" y1="816" x2="6338" y2= "1367" />
  <line class="fil0 str0" x1="6338" y1="1367" x2="5787" y2= "1367" />
  <line class="fil0 str0" x1="5787" y1="1367" x2="5787" y2= "816" />
  <line class="fil0 str0" x1="5787" y1="2503" x2="6338" y2= "2503" />
  <line class="fil0 str0" x1="6338" y1="2503" x2="6338" y2= "3055" />
  <line class="fil0 str0" x1="6338" y1="3055" x2="5787" y2= "3055" />
  <line class="fil0 str0" x1="5787" y1="3055" x2="5787" y2= "2503" />
  <line class="fil0 str0" x1="5975" y1="3253" x2="6526" y2= "3253" />
  <line class="fil0 str0" x1="6526" y1="3253" x2="6526" y2= "3805" />
  <line class="fil0 str0" x1="6526" y1="3805" x2="5975" y2= "3805" />
  <line class="fil0 str0" x1="5975" y1="3805" x2="5975" y2= "3253" />
  <line class="fil0 str0" x1="6162" y1="1753" x2="6713" y2= "1753" />
  <line class="fil0 str0" x1="6713" y1="1753" x2="6713" y2= "2305" />
  <line class="fil0 str0" x1="6713" y1="2305" x2="6162" y2= "2305" />
  <line class="fil0 str0" x1="6162" y1="2305" x2="6162" y2= "1753" />
  <line class="fil0 str0" x1="6350" y1="4003" x2="6901" y2= "4003" />
  <line class="fil0 str0" x1="6901" y1="4003" x2="6901" y2= "4555" />
  <line class="fil0 str0" x1="6901" y1="4555" x2="6350" y2= "4555" />
  <line class="fil0 str0" x1="6350" y1="4555" x2="6350" y2= "4003" />
  <line class="fil0 str0" x1="6537" y1="816" x2="7088" y2= "816" />
  <line class="fil0 str0" x1="7088" y1="816" x2="7088" y2= "1367" />
  <line class="fil0 str0" x1="7088" y1="1367" x2="6537" y2= "1367" />
  <line class="fil0 str0" x1="6537" y1="1367" x2="6537" y2= "816" />
  <line class="fil0 str0" x1="6537" y1="2503" x2="7088" y2= "2503" />
  <line class="fil0 str0" x1="7088" y1="2503" x2="7088" y2= "3055" />
  <line class="fil0 str0" x1="7088" y1="3055" x2="6537" y2= "3055" />
  <line class="fil0 str0" x1="6537" y1="3055" x2="6537" y2= "2503" />
  <line class="fil0 str0" x1="6725" y1="3253" x2="7276" y2= "3253" />
  <line class="fil0 str0" x1="7276" y1="3253" x2="7276" y2= "3805" />
  <line class="fil0 str0" x1="7276" y1="3805" x2="6725" y2= "3805" />
  <line class="fil0 str0" x1="6725" y1="3805" x2="6725" y2= "3253" />
  <line class="fil0 str0" x1="6912" y1="1753" x2="7463" y2= "1753" />
  <line class="fil0 str0" x1="7463" y1="1753" x2="7463" y2= "2305" />
  <line class="fil0 str0" x1="7463" y1="2305" x2="6912" y2= "2305" />
  <line class="fil0 str0" x1="6912" y1="2305" x2="6912" y2= "1753" />
  <line class="fil0 str0" x1="7100" y1="4003" x2="7651" y2= "4003" />
  <line class="fil0 str0" x1="7651" y1="4003" x2="7651" y2= "4555" />
  <line class="fil0 str0" x1="7651" y1="4555" x2="7100" y2= "4555" />
  <line class="fil0 str0" x1="7100" y1="4555" x2="7100" y2= "4003" />
  <line class="fil0 str0" x1="7287" y1="816" x2="7838" y2= "816" />
  <line class="fil0 str0" x1="7838" y1="816" x2="7838" y2= "1367" />
  <line class="fil0 str0" x1="7838" y1="1367" x2="7287" y2= "1367" />
  <line class="fil0 str0" x1="7287" y1="1367" x2="7287" y2= "816" />
  <line class="fil0 str0" x1="7287" y1="2503" x2="7838" y2= "2503" />
  <line class="fil0 str0" x1="7838" y1="2503" x2="7838" y2= "3055" />
  <line class="fil0 str0" x1="7838" y1="3055" x2="7287" y2= "3055" />
  <line class="fil0 str0" x1="7287" y1="3055" x2="7287" y2= "2503" />
  <line class="fil0 str0" x1="7475" y1="3253" x2="8026" y2= "3253" />
  <line class="fil0 str0" x1="8026" y1="3253" x2="8026" y2= "3805" />
  <line class="fil0 str0" x1="8026" y1="3805" x2="7475" y2= "3805" />
  <line class="fil0 str0" x1="7475" y1="3805" x2="7475" y2= "3253" />
  <line class="fil0 str0" x1="7662" y1="1753" x2="8213" y2= "1753" />
  <line class="fil0 str0" x1="8213" y1="1753" x2="8213" y2= "2305" />
  <line class="fil0 str0" x1="8213" y1="2305" x2="7662" y2= "2305" />
  <line class="fil0 str0" x1="7662" y1="2305" x2="7662" y2= "1753" />
  <line class="fil0 str0" x1="7850" y1="4003" x2="8401" y2= "4003" />
  <line class="fil0 str0" x1="8401" y1="4003" x2="8401" y2= "4555" />
  <line class="fil0 str0" x1="8401" y1="4555" x2="7850" y2= "4555" />
  <line class="fil0 str0" x1="7850" y1="4555" x2="7850" y2= "4003" />
  <line class="fil0 str0" x1="8037" y1="816" x2="8588" y2= "816" />
  <line class="fil0 str0" x1="8588" y1="816" x2="8588" y2= "1367" />
  <line class="fil0 str0" x1="8588" y1="1367" x2="8037" y2= "1367" />
  <line class="fil0 str0" x1="8037" y1="1367" x2="8037" y2= "816" />
  <line class="fil0 str0" x1="8037" y1="2503" x2="8588" y2= "2503" />
  <line class="fil0 str0" x1="8588" y1="2503" x2="8588" y2= "3055" />
  <line class="fil0 str0" x1="8588" y1="3055" x2="8037" y2= "3055" />
  <line class="fil0 str0" x1="8037" y1="3055" x2="8037" y2= "2503" />
  <line class="fil0 str0" x1="8225" y1="3253" x2="8776" y2= "3253" />
  <line class="fil0 str0" x1="8776" y1="3253" x2="8776" y2= "3805" />
  <line class="fil0 str0" x1="8776" y1="3805" x2="8225" y2= "3805" />
  <line class="fil0 str0" x1="8225" y1="3805" x2="8225" y2= "3253" />
  <line class="fil0 str0" x1="8412" y1="1753" x2="8963" y2= "1753" />
  <line class="fil0 str0" x1="8963" y1="1753" x2="8963" y2= "2305" />
  <line class="fil0 str0" x1="8963" y1="2305" x2="8412" y2= "2305" />
  <line class="fil0 str0" x1="8412" y1="2305" x2="8412" y2= "1753" />
  <line class="fil0 str0" x1="8506" y1="4753" x2="9057" y2= "4753" />
  <line class="fil0 str0" x1="9057" y1="4753" x2="9057" y2= "5305" />
  <line class="fil0 str0" x1="9057" y1="5305" x2="8506" y2= "5305" />
  <line class="fil0 str0" x1="8506" y1="5305" x2="8506" y2= "4753" />
  <line class="fil0 str0" x1="8600" y1="4003" x2="9151" y2= "4003" />
  <line class="fil0 str0" x1="9151" y1="4003" x2="9151" y2= "4555" />
  <line class="fil0 str0" x1="9151" y1="4555" x2="8600" y2= "4555" />
  <line class="fil0 str0" x1="8600" y1="4555" x2="8600" y2= "4003" />
  <line class="fil0 str0" x1="8787" y1="2503" x2="9338" y2= "2503" />
  <line class="fil0 str0" x1="9338" y1="2503" x2="9338" y2= "3055" />
  <line class="fil0 str0" x1="9338" y1="3055" x2="8787" y2= "3055" />
  <line class="fil0 str0" x1="8787" y1="3055" x2="8787" y2= "2503" />
  <line class="fil0 str0" x1="8975" y1="3253" x2="9526" y2= "3253" />
  <line class="fil0 str0" x1="9526" y1="3253" x2="9526" y2= "3805" />
  <line class="fil0 str0" x1="9526" y1="3805" x2="8975" y2= "3805" />
  <line class="fil0 str0" x1="8975" y1="3805" x2="8975" y2= "3253" />
  <line class="fil0 str0" x1="9162" y1="816" x2="9713" y2= "816" />
  <line class="fil0 str0" x1="9713" y1="816" x2="9713" y2= "1367" />
  <line class="fil0 str0" x1="9713" y1="1367" x2="9162" y2= "1367" />
  <line class="fil0 str0" x1="9162" y1="1367" x2="9162" y2= "816" />
  <line class="fil0 str0" x1="9162" y1="1753" x2="9713" y2= "1753" />
  <line class="fil0 str0" x1="9713" y1="1753" x2="9713" y2= "2305" />
  <line class="fil0 str0" x1="9713" y1="2305" x2="9162" y2= "2305" />
  <line class="fil0 str0" x1="9162" y1="2305" x2="9162" y2= "1753" />
  <line class="fil0 str0" x1="9350" y1="4003" x2="9901" y2= "4003" />
  <line class="fil0 str0" x1="9901" y1="4003" x2="9901" y2= "4555" />
  <line class="fil0 str0" x1="9901" y1="4555" x2="9350" y2= "4555" />
  <line class="fil0 str0" x1="9350" y1="4555" x2="9350" y2= "4003" />
  <line class="fil0 str0" x1="9443" y1="4753" x2="9995" y2= "4753" />
  <line class="fil0 str0" x1="9995" y1="4753" x2="9995" y2= "5305" />
  <line class="fil0 str0" x1="9995" y1="5305" x2="9443" y2= "5305" />
  <line class="fil0 str0" x1="9443" y1="5305" x2="9443" y2= "4753" />
  <line class="fil0 str0" x1="9537" y1="2503" x2="10088" y2= "2503" />
  <line class="fil0 str0" x1="10088" y1="2503" x2="10088" y2= "3055" />
  <line class="fil0 str0" x1="10088" y1="3055" x2="9537" y2= "3055" />
  <line class="fil0 str0" x1="9537" y1="3055" x2="9537" y2= "2503" />
  <line class="fil0 str0" x1="9725" y1="3253" x2="10276" y2= "3253" />
  <line class="fil0 str0" x1="10276" y1="3253" x2="10276" y2= "3805" />
  <line class="fil0 str0" x1="10276" y1="3805" x2="9725" y2= "3805" />
  <line class="fil0 str0" x1="9725" y1="3805" x2="9725" y2= "3253" />
  <line class="fil0 str0" x1="9912" y1="816" x2="10463" y2= "816" />
  <line class="fil0 str0" x1="10463" y1="816" x2="10463" y2= "1367" />
  <line class="fil0 str0" x1="10463" y1="1367" x2="9912" y2= "1367" />
  <line class="fil0 str0" x1="9912" y1="1367" x2="9912" y2= "816" />
  <line class="fil0 str0" x1="9912" y1="1753" x2="10463" y2= "1753" />
  <line class="fil0 str0" x1="10463" y1="1753" x2="10463" y2= "2305" />
  <line class="fil0 str0" x1="10463" y1="2305" x2="9912" y2= "2305" />
  <line class="fil0 str0" x1="9912" y1="2305" x2="9912" y2= "1753" />
  <line class="fil0 str0" x1="10287" y1="2503" x2="10838" y2= "2503" />
  <line class="fil0 str0" x1="10838" y1="2503" x2="10838" y2= "3055" />
  <line class="fil0 str0" x1="10838" y1="3055" x2="10287" y2= "3055" />
  <line class="fil0 str0" x1="10287" y1="3055" x2="10287" y2= "2503" />
  <line class="fil0 str0" x1="10381" y1="4753" x2="10932" y2= "4753" />
  <line class="fil0 str0" x1="10932" y1="4753" x2="10932" y2= "5305" />
  <line class="fil0 str0" x1="10932" y1="5305" x2="10381" y2= "5305" />
  <line class="fil0 str0" x1="10381" y1="5305" x2="10381" y2= "4753" />
  <line class="fil0 str0" x1="10662" y1="816" x2="11213" y2= "816" />
  <line class="fil0 str0" x1="11213" y1="816" x2="11213" y2= "1367" />
  <line class="fil0 str0" x1="11213" y1="1367" x2="10662" y2= "1367" />
  <line class="fil0 str0" x1="10662" y1="1367" x2="10662" y2= "816" />
  <line class="fil0 str0" x1="11225" y1="2503" x2="11776" y2= "2503" />
  <line class="fil0 str0" x1="11776" y1="2503" x2="11776" y2= "3055" />
  <line class="fil0 str0" x1="11776" y1="3055" x2="11225" y2= "3055" />
  <line class="fil0 str0" x1="11225" y1="3055" x2="11225" y2= "2503" />
  <line class="fil0 str0" x1="11318" y1="4753" x2="11870" y2= "4753" />
  <line class="fil0 str0" x1="11870" y1="4753" x2="11870" y2= "5305" />
  <line class="fil0 str0" x1="11870" y1="5305" x2="11318" y2= "5305" />
  <line class="fil0 str0" x1="11318" y1="5305" x2="11318" y2= "4753" />
  <line class="fil0 str0" x1="11412" y1="816" x2="11963" y2= "816" />
  <line class="fil0 str0" x1="11963" y1="816" x2="11963" y2= "1367" />
  <line class="fil0 str0" x1="11963" y1="1367" x2="11412" y2= "1367" />
  <line class="fil0 str0" x1="11412" y1="1367" x2="11412" y2= "816" />
  <line class="fil0 str0" x1="12350" y1="1753" x2="12901" y2= "1753" />
  <line class="fil0 str0" x1="12901" y1="1753" x2="12901" y2= "2305" />
  <line class="fil0 str0" x1="12901" y1="2305" x2="12350" y2= "2305" />
  <line class="fil0 str0" x1="12350" y1="2305" x2="12350" y2= "1753" />
  <line class="fil0 str0" x1="12350" y1="4753" x2="12901" y2= "4753" />
  <line class="fil0 str0" x1="12901" y1="4753" x2="12901" y2= "5305" />
  <line class="fil0 str0" x1="12901" y1="5305" x2="12350" y2= "5305" />
  <line class="fil0 str0" x1="12350" y1="5305" x2="12350" y2= "4753" />
  <line class="fil0 str0" x1="12350" y1="816" x2="12901" y2= "816" />
  <line class="fil0 str0" x1="12901" y1="816" x2="12901" y2= "1367" />
  <line class="fil0 str0" x1="12901" y1="1367" x2="12350" y2= "1367" />
  <line class="fil0 str0" x1="12350" y1="1367" x2="12350" y2= "816" />
  <line class="fil0 str0" x1="12350" y1="2503" x2="12901" y2= "2503" />
  <line class="fil0 str0" x1="12901" y1="2503" x2="12901" y2= "3055" />
  <line class="fil0 str0" x1="12901" y1="3055" x2="12350" y2= "3055" />
  <line class="fil0 str0" x1="12350" y1="3055" x2="12350" y2= "2503" />
  <line class="fil0 str0" x1="13100" y1="1753" x2="13651" y2= "1753" />
  <line class="fil0 str0" x1="13651" y1="1753" x2="13651" y2= "2305" />
  <line class="fil0 str0" x1="13651" y1="2305" x2="13100" y2= "2305" />
  <line class="fil0 str0" x1="13100" y1="2305" x2="13100" y2= "1753" />
  <line class="fil0 str0" x1="13100" y1="4753" x2="13651" y2= "4753" />
  <line class="fil0 str0" x1="13651" y1="4753" x2="13651" y2= "5305" />
  <line class="fil0 str0" x1="13651" y1="5305" x2="13100" y2= "5305" />
  <line class="fil0 str0" x1="13100" y1="5305" x2="13100" y2= "4753" />
  <line class="fil0 str0" x1="13100" y1="816" x2="13651" y2= "816" />
  <line class="fil0 str0" x1="13651" y1="816" x2="13651" y2= "1367" />
  <line class="fil0 str0" x1="13651" y1="1367" x2="13100" y2= "1367" />
  <line class="fil0 str0" x1="13100" y1="1367" x2="13100" y2= "816" />
  <line class="fil0 str0" x1="13100" y1="2503" x2="13651" y2= "2503" />
  <line class="fil0 str0" x1="13651" y1="2503" x2="13651" y2= "3055" />
  <line class="fil0 str0" x1="13651" y1="3055" x2="13100" y2= "3055" />
  <line class="fil0 str0" x1="13100" y1="3055" x2="13100" y2= "2503" />
  <line class="fil0 str0" x1="13100" y1="4003" x2="13651" y2= "4003" />
  <line class="fil0 str0" x1="13651" y1="4003" x2="13651" y2= "4555" />
  <line class="fil0 str0" x1="13651" y1="4555" x2="13100" y2= "4555" />
  <line class="fil0 str0" x1="13100" y1="4555" x2="13100" y2= "4003" />
  <line class="fil0 str0" x1="13850" y1="1753" x2="14401" y2= "1753" />
  <line class="fil0 str0" x1="14401" y1="1753" x2="14401" y2= "2305" />
  <line class="fil0 str0" x1="14401" y1="2305" x2="13850" y2= "2305" />
  <line class="fil0 str0" x1="13850" y1="2305" x2="13850" y2= "1753" />
  <line class="fil0 str0" x1="13850" y1="4753" x2="14401" y2= "4753" />
  <line class="fil0 str0" x1="14401" y1="4753" x2="14401" y2= "5305" />
  <line class="fil0 str0" x1="14401" y1="5305" x2="13850" y2= "5305" />
  <line class="fil0 str0" x1="13850" y1="5305" x2="13850" y2= "4753" />
  <line class="fil0 str0" x1="13850" y1="816" x2="14401" y2= "816" />
  <line class="fil0 str0" x1="14401" y1="816" x2="14401" y2= "1367" />
  <line class="fil0 str0" x1="14401" y1="1367" x2="13850" y2= "1367" />
  <line class="fil0 str0" x1="13850" y1="1367" x2="13850" y2= "816" />
  <line class="fil0 str0" x1="13850" y1="2503" x2="14401" y2= "2503" />
  <line class="fil0 str0" x1="14401" y1="2503" x2="14401" y2= "3055" />
  <line class="fil0 str0" x1="14401" y1="3055" x2="13850" y2= "3055" />
  <line class="fil0 str0" x1="13850" y1="3055" x2="13850" y2= "2503" />
  <line class="fil0 str0" x1="2256" y1="4300" x2="2256" y2= "4546" />
  <line class="fil0 str0" x1="2256" y1="4546" x2="2192" y2= "4546" />
  <line class="fil0 str0" x1="2192" y1="4546" x2="2192" y2= "4594" />
  <line class="fil0 str0" x1="2192" y1="4594" x2="2062" y2= "4594" />
  <line class="fil0 str0" x1="2062" y1="4594" x2="2062" y2= "4546" />
  <line class="fil0 str0" x1="2062" y1="4546" x2="1994" y2= "4546" />
  <line class="fil0 str0" x1="1994" y1="4546" x2="1994" y2= "4515" />
  <line class="fil0 str0" x1="1994" y1="4515" x2="1932" y2= "4515" />
  <line class="fil0 str0" x1="1932" y1="4515" x2="1932" y2= "4555" />
  <line class="fil0 str0" x1="1932" y1="4555" x2="1381" y2= "4555" />
  <line class="fil0 str0" x1="1381" y1="4555" x2="1381" y2= "4515" />
  <line class="fil0 str0" x1="1381" y1="4515" x2="1319" y2= "4515" />
  <line class="fil0 str0" x1="1319" y1="4515" x2="1319" y2= "4546" />
  <line class="fil0 str0" x1="1319" y1="4546" x2="1251" y2= "4546" />
  <line class="fil0 str0" x1="1251" y1="4546" x2="1251" y2= "4594" />
  <line class="fil0 str0" x1="1251" y1="4594" x2="1121" y2= "4594" />
  <line class="fil0 str0" x1="1121" y1="4594" x2="1121" y2= "4546" />
  <line class="fil0 str0" x1="1121" y1="4546" x2="1057" y2= "4546" />
  <line class="fil0 str0" x1="1057" y1="4546" x2="1057" y2= "4300" />
  <line class="fil0 str0" x1="1057" y1="4300" x2="1022" y2= "4300" />
  <line class="fil0 str0" x1="1022" y1="4300" x2="1022" y2= "4189" />
  <line class="fil0 str0" x1="1022" y1="4189" x2="1057" y2= "4189" />
  <line class="fil0 str0" x1="1057" y1="4189" x2="1057" y2= "4062" />
  <line class="fil0 str0" x1="1057" y1="4062" x2="1319" y2= "4062" />
  <line class="fil0 str0" x1="1319" y1="4062" x2="1319" y2= "4094" />
  <line class="fil0 str0" x1="1319" y1="4094" x2="1381" y2= "4094" />
  <line class="fil0 str0" x1="1381" y1="4094" x2="1381" y2= "4004" />
  <line class="fil0 str0" x1="1381" y1="4004" x2="1932" y2= "4004" />
  <line class="fil0 str0" x1="1932" y1="4004" x2="1932" y2= "4094" />
  <line class="fil0 str0" x1="1932" y1="4094" x2="1994" y2= "4094" />
  <line class="fil0 str0" x1="1994" y1="4094" x2="1994" y2= "4062" />
  <line class="fil0 str0" x1="1994" y1="4062" x2="2256" y2= "4062" />
  <line class="fil0 str0" x1="2256" y1="4062" x2="2256" y2= "4189" />
  <line class="fil0 str0" x1="2256" y1="4189" x2="2290" y2= "4189" />
  <line class="fil0 str0" x1="2290" y1="4189" x2="2290" y2= "4300" />
  <line class="fil0 str0" x1="2290" y1="4300" x2="2256" y2= "4300" />
  <line class="fil0 str0" x1="8068" y1="5050" x2="8068" y2= "5296" />
  <line class="fil0 str0" x1="8068" y1="5296" x2="8002" y2= "5296" />
  <line class="fil0 str0" x1="8002" y1="5296" x2="8002" y2= "5344" />
  <line class="fil0 str0" x1="8002" y1="5344" x2="7872" y2= "5344" />
  <line class="fil0 str0" x1="7872" y1="5344" x2="7872" y2= "5296" />
  <line class="fil0 str0" x1="7872" y1="5296" x2="7806" y2= "5296" />
  <polyline class="fil0 str0" points="7806,5296 7806,5052 7774,5051 7774,4939 7806,4939 "/>
  <line class="fil0 str0" x1="6244" y1="4754" x2="6244" y2= "5305" />
  <line class="fil0 str0" x1="6244" y1="5305" x2="5693" y2= "5305" />
  <line class="fil0 str0" x1="5693" y1="5305" x2="5693" y2= "4754" />
  <polyline class="fil0 str0" points="4131,4939 4164,4939 4164,5050 4131,5050 4131,5296 "/>
  <line class="fil0 str0" x1="4131" y1="5296" x2="4065" y2= "5296" />
  <line class="fil0 str0" x1="4065" y1="5296" x2="4065" y2= "5344" />
  <line class="fil0 str0" x1="4065" y1="5344" x2="3935" y2= "5344" />
  <line class="fil0 str0" x1="3935" y1="5344" x2="3935" y2= "5296" />
  <line class="fil0 str0" x1="3935" y1="5296" x2="3869" y2= "5296" />
  <line class="fil0 str0" x1="3869" y1="5296" x2="3869" y2= "5050" />
  <line class="fil0 str0" x1="3869" y1="5050" x2="3835" y2= "5050" />
  <line class="fil0 str0" x1="3835" y1="5050" x2="3835" y2= "4939" />
  <line class="fil0 str0" x1="3835" y1="4939" x2="3869" y2= "4939" />
  <line class="fil0 str0" x1="3869" y1="4939" x2="3869" y2= "4812" />
  <line class="fil0 str0" x1="3869" y1="4812" x2="4131" y2= "4812" />
  <line class="fil0 str0" x1="4131" y1="4812" x2="4131" y2= "4939" />
  <line class="fil0 str0" x1="5693" y1="4754" x2="6244" y2= "4754" />
  <line class="fil0 str0" x1="7806" y1="4939" x2="7806" y2= "4812" />
  <line class="fil0 str0" x1="7806" y1="4812" x2="8068" y2= "4812" />
  <line class="fil0 str0" x1="8068" y1="4812" x2="8068" y2= "4939" />
  <line class="fil0 str0" x1="8068" y1="4939" x2="8103" y2= "4939" />
  <line class="fil0 str0" x1="8103" y1="4939" x2="8103" y2= "5050" />
  <line class="fil0 str0" x1="8103" y1="5050" x2="8068" y2= "5050" />
  <line class="fil0 str0" x1="11631" y1="4300" x2="11631" y2= "4546" />
  <line class="fil0 str0" x1="11631" y1="4546" x2="11567" y2= "4546" />
  <line class="fil0 str0" x1="11567" y1="4546" x2="11567" y2= "4594" />
  <line class="fil0 str0" x1="11567" y1="4594" x2="11437" y2= "4594" />
  <line class="fil0 str0" x1="11437" y1="4594" x2="11437" y2= "4546" />
  <line class="fil0 str0" x1="11437" y1="4546" x2="11369" y2= "4546" />
  <line class="fil0 str0" x1="11369" y1="4546" x2="11369" y2= "4515" />
  <line class="fil0 str0" x1="11369" y1="4515" x2="11307" y2= "4515" />
  <line class="fil0 str0" x1="11307" y1="4515" x2="11307" y2= "4555" />
  <line class="fil0 str0" x1="11307" y1="4555" x2="10756" y2= "4555" />
  <line class="fil0 str0" x1="10756" y1="4555" x2="10756" y2= "4515" />
  <line class="fil0 str0" x1="10756" y1="4515" x2="10694" y2= "4515" />
  <line class="fil0 str0" x1="10694" y1="4515" x2="10694" y2= "4546" />
  <line class="fil0 str0" x1="10694" y1="4546" x2="10626" y2= "4546" />
  <line class="fil0 str0" x1="10626" y1="4546" x2="10626" y2= "4594" />
  <line class="fil0 str0" x1="10626" y1="4594" x2="10496" y2= "4594" />
  <line class="fil0 str0" x1="10496" y1="4594" x2="10496" y2= "4546" />
  <line class="fil0 str0" x1="10496" y1="4546" x2="10432" y2= "4546" />
  <line class="fil0 str0" x1="10432" y1="4546" x2="10432" y2= "4300" />
  <line class="fil0 str0" x1="10432" y1="4300" x2="10397" y2= "4300" />
  <line class="fil0 str0" x1="10397" y1="4300" x2="10397" y2= "4189" />
  <line class="fil0 str0" x1="10397" y1="4189" x2="10432" y2= "4189" />
  <line class="fil0 str0" x1="10432" y1="4189" x2="10432" y2= "4062" />
  <line class="fil0 str0" x1="10432" y1="4062" x2="10694" y2= "4062" />
  <line class="fil0 str0" x1="10694" y1="4062" x2="10694" y2= "4094" />
  <line class="fil0 str0" x1="10694" y1="4094" x2="10756" y2= "4094" />
  <line class="fil0 str0" x1="10756" y1="4094" x2="10756" y2= "4004" />
  <line class="fil0 str0" x1="10756" y1="4004" x2="11307" y2= "4004" />
  <line class="fil0 str0" x1="11307" y1="4004" x2="11307" y2= "4094" />
  <line class="fil0 str0" x1="11307" y1="4094" x2="11369" y2= "4094" />
  <line class="fil0 str0" x1="11369" y1="4094" x2="11369" y2= "4062" />
  <line class="fil0 str0" x1="11369" y1="4062" x2="11631" y2= "4062" />
  <line class="fil0 str0" x1="11631" y1="4062" x2="11631" y2= "4189" />
  <line class="fil0 str0" x1="11631" y1="4189" x2="11665" y2= "4189" />
  <line class="fil0 str0" x1="11665" y1="4189" x2="11665" y2= "4300" />
  <line class="fil0 str0" x1="11665" y1="4300" x2="11631" y2= "4300" />
  <line class="fil0 str0" x1="11818" y1="3550" x2="11818" y2= "3796" />
  <line class="fil0 str0" x1="11818" y1="3796" x2="11754" y2= "3796" />
  <line class="fil0 str0" x1="11754" y1="3796" x2="11754" y2= "3844" />
  <line class="fil0 str0" x1="11754" y1="3844" x2="11624" y2= "3844" />
  <line class="fil0 str0" x1="11624" y1="3844" x2="11624" y2= "3796" />
  <line class="fil0 str0" x1="11624" y1="3796" x2="11556" y2= "3796" />
  <line class="fil0 str0" x1="11556" y1="3796" x2="11556" y2= "3765" />
  <line class="fil0 str0" x1="11556" y1="3765" x2="11494" y2= "3765" />
  <line class="fil0 str0" x1="11494" y1="3765" x2="11494" y2= "3805" />
  <line class="fil0 str0" x1="11494" y1="3805" x2="10943" y2= "3805" />
  <line class="fil0 str0" x1="10943" y1="3805" x2="10943" y2= "3765" />
  <line class="fil0 str0" x1="10943" y1="3765" x2="10881" y2= "3765" />
  <line class="fil0 str0" x1="10881" y1="3765" x2="10881" y2= "3796" />
  <line class="fil0 str0" x1="10881" y1="3796" x2="10813" y2= "3796" />
  <line class="fil0 str0" x1="10813" y1="3796" x2="10813" y2= "3844" />
  <line class="fil0 str0" x1="10813" y1="3844" x2="10683" y2= "3844" />
  <line class="fil0 str0" x1="10683" y1="3844" x2="10683" y2= "3796" />
  <line class="fil0 str0" x1="10683" y1="3796" x2="10619" y2= "3796" />
  <line class="fil0 str0" x1="10619" y1="3796" x2="10619" y2= "3550" />
  <line class="fil0 str0" x1="10619" y1="3550" x2="10585" y2= "3550" />
  <line class="fil0 str0" x1="10585" y1="3550" x2="10585" y2= "3439" />
  <line class="fil0 str0" x1="10585" y1="3439" x2="10619" y2= "3439" />
  <line class="fil0 str0" x1="10619" y1="3439" x2="10619" y2= "3312" />
  <line class="fil0 str0" x1="10619" y1="3312" x2="10881" y2= "3312" />
  <line class="fil0 str0" x1="10881" y1="3312" x2="10881" y2= "3344" />
  <line class="fil0 str0" x1="10881" y1="3344" x2="10943" y2= "3344" />
  <line class="fil0 str0" x1="10943" y1="3344" x2="10943" y2= "3254" />
  <line class="fil0 str0" x1="10943" y1="3254" x2="11494" y2= "3254" />
  <line class="fil0 str0" x1="11494" y1="3254" x2="11494" y2= "3344" />
  <line class="fil0 str0" x1="11494" y1="3344" x2="11556" y2= "3344" />
  <line class="fil0 str0" x1="11556" y1="3344" x2="11556" y2= "3312" />
  <line class="fil0 str0" x1="11556" y1="3312" x2="11818" y2= "3312" />
  <line class="fil0 str0" x1="11818" y1="3312" x2="11818" y2= "3439" />
  <line class="fil0 str0" x1="11818" y1="3439" x2="11853" y2= "3439" />
  <line class="fil0 str0" x1="11853" y1="3439" x2="11853" y2= "3550" />
  <line class="fil0 str0" x1="11853" y1="3550" x2="11818" y2= "3550" />
  <line class="fil0 str0" x1="11912" y1="2050" x2="11912" y2= "2296" />
  <line class="fil0 str0" x1="11912" y1="2296" x2="11848" y2= "2296" />
  <line class="fil0 str0" x1="11848" y1="2296" x2="11848" y2= "2344" />
  <line class="fil0 str0" x1="11848" y1="2344" x2="11718" y2= "2344" />
  <line class="fil0 str0" x1="11718" y1="2344" x2="11718" y2= "2296" />
  <line class="fil0 str0" x1="11718" y1="2296" x2="11650" y2= "2296" />
  <line class="fil0 str0" x1="11650" y1="2296" x2="11650" y2= "2265" />
  <line class="fil0 str0" x1="11650" y1="2265" x2="11588" y2= "2265" />
  <line class="fil0 str0" x1="11588" y1="2265" x2="11588" y2= "2305" />
  <line class="fil0 str0" x1="11588" y1="2305" x2="11037" y2= "2305" />
  <line class="fil0 str0" x1="11037" y1="2305" x2="11037" y2= "2265" />
  <line class="fil0 str0" x1="11037" y1="2265" x2="10975" y2= "2265" />
  <line class="fil0 str0" x1="10975" y1="2265" x2="10975" y2= "2296" />
  <line class="fil0 str0" x1="10975" y1="2296" x2="10907" y2= "2296" />
  <line class="fil0 str0" x1="10907" y1="2296" x2="10907" y2= "2344" />
  <line class="fil0 str0" x1="10907" y1="2344" x2="10777" y2= "2344" />
  <line class="fil0 str0" x1="10777" y1="2344" x2="10777" y2= "2296" />
  <line class="fil0 str0" x1="10777" y1="2296" x2="10713" y2= "2296" />
  <line class="fil0 str0" x1="10713" y1="2296" x2="10713" y2= "2050" />
  <line class="fil0 str0" x1="10713" y1="2050" x2="10679" y2= "2050" />
  <line class="fil0 str0" x1="10679" y1="2050" x2="10679" y2= "1939" />
  <line class="fil0 str0" x1="10679" y1="1939" x2="10713" y2= "1939" />
  <line class="fil0 str0" x1="10713" y1="1939" x2="10713" y2= "1812" />
  <line class="fil0 str0" x1="10713" y1="1812" x2="10975" y2= "1812" />
  <line class="fil0 str0" x1="10975" y1="1812" x2="10975" y2= "1844" />
  <line class="fil0 str0" x1="10975" y1="1844" x2="11037" y2= "1844" />
  <line class="fil0 str0" x1="11037" y1="1844" x2="11037" y2= "1754" />
  <line class="fil0 str0" x1="11037" y1="1754" x2="11588" y2= "1754" />
  <line class="fil0 str0" x1="11588" y1="1754" x2="11588" y2= "1844" />
  <line class="fil0 str0" x1="11588" y1="1844" x2="11650" y2= "1844" />
  <line class="fil0 str0" x1="11650" y1="1844" x2="11650" y2= "1812" />
  <line class="fil0 str0" x1="11650" y1="1812" x2="11912" y2= "1812" />
  <line class="fil0 str0" x1="11912" y1="1812" x2="11912" y2= "1939" />
  <line class="fil0 str0" x1="11912" y1="1939" x2="11946" y2= "1939" />
  <line class="fil0 str0" x1="11946" y1="1939" x2="11946" y2= "2050" />
  <line class="fil0 str0" x1="11946" y1="2050" x2="11912" y2= "2050" />
  <circle class="fil0 str1" cx="11973" cy="2779" r="30"/>
  <circle class="fil0 str1" cx="4373" cy="3195" r="30"/>
 </g>
</svg>
