  0
SECTION
  2
HEADER
  9
$ACADVER
  1
AC1014
  9
$HANDSEED
  5
FFFF
  9
$MEASUREMENT
 70
     1
  0
ENDSEC
  0
SECTION
  2
TABLES
  0
TABLE
  2
VPORT
  5
8
330
0
100
AcDbSymbolTable
 70
     4
  0
VPORT
  5
2E
330
8
100
AcDbSymbolTableRecord
100
AcDbViewportTableRecord
  2
*ACTIVE
 70
     0
 10
0.0
 20
0.0
 11
1.0
 21
1.0
 12
210.0
 22
148.5
 13
0.0
 23
0.0
 14
10.0
 24
10.0
 15
10.0
 25
10.0
 16
0.0
 26
0.0
 36
1.0
 17
0.0
 27
0.0
 37
0.0
 40
341.0
 41
1.24
 42
50.0
 43
0.0
 44
0.0
 50
0.0
 51
0.0
 71
     0
 72
   100
 73
     1
 74
     3
 75
     0
 76
     0
 77
     0
 78
     0
  0
ENDTAB
  0
TABLE
  2
LTYPE
  5
5
330
0
100
AcDbSymbolTable
 70
     1
  0
LTYPE
  5
14
330
5
100
AcDbSymbolTableRecord
100
AcDbLinetypeTableRecord
  2
BYBLOCK
 70
     0
  3

 72
    65
 73
     0
 40
0.0
  0
LTYPE
  5
15
330
5
100
AcDbSymbolTableRecord
100
AcDbLinetypeTableRecord
  2
BYLAYER
 70
     0
  3

 72
    65
 73
     0
 40
0.0
  0
LTYPE
  5
16
330
5
100
AcDbSymbolTableRecord
100
AcDbLinetypeTableRecord
  2
CONTINUOUS
 70
     0
  3
Solid line
 72
    65
 73
     0
 40
0.0
  0
ENDTAB
  0
TABLE
  2
LAYER
  5
2
100
AcDbSymbolTable
 70
2
  0
LAYER
  5
50
100
AcDbSymbolTableRecord
100
AcDbLayerTableRecord
  2
0
 70
0
  6
CONTINUOUS
  0
LAYER
  5
51
100
AcDbSymbolTableRecord
100
AcDbLayerTableRecord
  2
Layer_1
 70
0
  6
CONTINUOUS
  0
ENDTAB
  0
TABLE
  2
STYLE
  5
3
330
0
100
AcDbSymbolTable
 70
     1
  0
STYLE
  5
11
330
3
100
AcDbSymbolTableRecord
100
AcDbTextStyleTableRecord
  2
STANDARD
 70
     0
 40
0.0
 41
1.0
 50
0.0
 71
     0
 42
2.5
  3
txt
  4

  0
ENDTAB
  0
TABLE
  2
VIEW
  5
6
330
0
100
AcDbSymbolTable
 70
     0
  0
ENDTAB
  0
TABLE
  2
UCS
  5
7
330
0
100
AcDbSymbolTable
 70
     0
  0
ENDTAB
  0
TABLE
  2
APPID
  5
9
330
0
100
AcDbSymbolTable
 70
     2
  0
APPID
  5
12
330
9
100
AcDbSymbolTableRecord
100
AcDbRegAppTableRecord
  2
ACAD
 70
     0
  0
ENDTAB
  0
TABLE
  2
DIMSTYLE
  5
A
330
0
100
AcDbSymbolTable
 70
     1
  0
DIMSTYLE
105
27
330
A
100
AcDbSymbolTableRecord
100
AcDbDimStyleTableRecord
  2
ISO-25
 70
     0
  3

  4

  5

  6

  7

 40
1.0
 41
2.5
 42
0.625
 43
3.75
 44
1.25
 45
0.0
 46
0.0
 47
0.0
 48
0.0
140
2.5
141
2.5
142
0.0
143
0.03937007874016
144
1.0
145
0.0
146
1.0
147
0.625
 71
     0
 72
     0
 73
     0
 74
     0
 75
     0
 76
     0
 77
     1
 78
     8
170
     0
171
     3
172
     1
173
     0
174
     0
175
     0
176
     0
177
     0
178
     0
270
     2
271
     2
272
     2
273
     2
274
     3
340
11
275
     0
280
     0
281
     0
282
     0
283
     0
284
     8
285
     0
286
     0
287
     3
288
     0
  0
ENDTAB
  0
TABLE
  2
BLOCK_RECORD
  5
1
330
0
100
AcDbSymbolTable
 70
     1
  0
BLOCK_RECORD
  5
1F
330
1
100
AcDbSymbolTableRecord
100
AcDbBlockTableRecord
  2
*MODEL_SPACE
  0
BLOCK_RECORD
  5
1B
330
1
100
AcDbSymbolTableRecord
100
AcDbBlockTableRecord
  2
*PAPER_SPACE
  0
ENDTAB
  0
ENDSEC
  0
SECTION
  2
BLOCKS
  0
BLOCK
  5
20
330
1F
100
AcDbEntity
  8
0
100
AcDbBlockBegin
  2
*MODEL_SPACE
 70
     0
 10
0.0
 20
0.0
 30
0.0
  3
*MODEL_SPACE
  1

  0
ENDBLK
  5
21
330
1F
100
AcDbEntity
  8
0
100
AcDbBlockEnd
  0
BLOCK
  5
1C
330
1B
100
AcDbEntity
 67
     1
  8
0
100
AcDbBlockBegin
  2
*PAPER_SPACE
  1

  0
ENDBLK
  5
1D
330
1B
100
AcDbEntity
 67
     1
  8
0
100
AcDbBlockEnd
  0
ENDSEC
  0
SECTION
  2
ENTITIES
  0
LWPOLYLINE
  5
100
100
AcDbEntity
  8
Layer_1
 62
7
100
AcDbPolyline
 90
3
 70
0
 10
-226.459364
 20
210.672892
 30
0.0
 10
-201.162249
 20
210.672892
 30
0.0
 10
-201.162249
 20
208.640995
 30
0.0
  0
SPLINE
  5
101
100
AcDbEntity
  8
Layer_1
 62
7
100
AcDbSpline
 70
0
 71
3
 72
13
 73
9
 74
7
 40
0.000000
 40
0.000000
 40
0.000000
 40
0.000000
 40
1.096723
 40
2.168481
 40
3.307396
 40
4.452729
 40
5.533769
 40
6.632397
 40
6.632397
 40
6.632397
 40
6.632397
 10
-201.162249
 20
208.640995
 30
0.0
 10
-201.098542
 20
208.269336
 30
0.0
 10
-200.972579
 20
207.534478
 30
0.0
 10
-200.046614
 20
206.796609
 30
0.0
 10
-198.924672
 20
206.550608
 30
0.0
 10
-197.801671
 20
206.798290
 30
0.0
 10
-196.863352
 20
207.530595
 30
0.0
 10
-196.732587
 20
208.268876
 30
0.0
 10
-196.666677
 20
208.640995
 30
0.0
 11
-201.162249
 21
208.640995
 31
0.0
 11
-200.848058
 21
207.590241
 31
0.0
 11
-200.037180
 21
206.889425
 31
0.0
 11
-198.927163
 21
206.634497
 31
0.0
 11
-197.810560
 21
206.889425
 31
0.0
 11
-196.987454
 21
207.590241
 31
0.0
 11
-196.666677
 21
208.640995
 31
0.0
  0
LWPOLYLINE
  5
102
100
AcDbEntity
  8
Layer_1
 62
7
100
AcDbPolyline
 90
4
 70
0
 10
-196.666677
 20
208.640995
 30
0.0
 10
-196.666677
 20
210.672892
 30
0.0
 10
-109.371311
 20
210.672892
 30
0.0
 10
-109.371311
 20
208.640995
 30
0.0
  0
SPLINE
  5
103
100
AcDbEntity
  8
Layer_1
 62
7
100
AcDbSpline
 70
0
 71
3
 72
13
 73
9
 74
7
 40
0.000000
 40
0.000000
 40
0.000000
 40
0.000000
 40
1.051619
 40
2.163186
 40
3.254147
 40
4.351469
 40
5.472295
 40
6.526077
 40
6.526077
 40
6.526077
 40
6.526077
 10
-109.371311
 20
208.640995
 30
0.0
 10
-109.291433
 20
208.289977
 30
0.0
 10
-109.127125
 20
207.567932
 30
0.0
 10
-108.225738
 20
206.855634
 30
0.0
 10
-107.133876
 20
206.524632
 30
0.0
 10
-106.040436
 20
206.857249
 30
0.0
 10
-105.127208
 20
207.564400
 30
0.0
 10
-104.957822
 20
208.289582
 30
0.0
 10
-104.875739
 20
208.640995
 30
0.0
 11
-109.371311
 21
208.640995
 31
0.0
 11
-109.028899
 21
207.646682
 31
0.0
 11
-108.189801
 21
206.917645
 31
0.0
 11
-107.136225
 21
206.634497
 31
0.0
 11
-106.076064
 21
206.917645
 31
0.0
 11
-105.224737
 21
207.646682
 31
0.0
 11
-104.875739
 21
208.640995
 31
0.0
  0
LWPOLYLINE
  5
104
100
AcDbEntity
  8
Layer_1
 62
7
100
AcDbPolyline
 90
4
 70
0
 10
-104.875739
 20
208.640995
 30
0.0
 10
-104.850341
 20
210.672892
 30
0.0
 10
-23.625266
 20
210.672892
 30
0.0
 10
-23.625266
 20
208.640995
 30
0.0
  0
SPLINE
  5
105
100
AcDbEntity
  8
Layer_1
 62
7
100
AcDbSpline
 70
0
 71
3
 72
13
 73
9
 74
7
 40
0.000000
 40
0.000000
 40
0.000000
 40
0.000000
 40
1.087559
 40
2.167278
 40
3.296483
 40
4.441608
 40
5.518391
 40
6.599936
 40
6.599936
 40
6.599936
 40
6.599936
 10
-23.625266
 20
208.640995
 30
0.0
 10
-23.558285
 20
208.273543
 30
0.0
 10
-23.424806
 20
207.541288
 30
0.0
 10
-22.503630
 20
206.807387
 30
0.0
 10
-21.384931
 20
206.547890
 30
0.0
 10
-20.266845
 20
206.798924
 30
0.0
 10
-19.329977
 20
207.519037
 30
0.0
 10
-19.196553
 20
208.249539
 30
0.0
 10
-19.129695
 20
208.615596
 30
0.0
 11
-23.625266
 21
208.640995
 31
0.0
 11
-23.305431
 21
207.601529
 31
0.0
 11
-22.488909
 21
206.895069
 31
0.0
 11
-21.390180
 21
206.634497
 31
0.0
 11
-20.273577
 21
206.888484
 31
0.0
 11
-19.450471
 21
207.582715
 31
0.0
 11
-19.129695
 21
208.615596
 31
0.0
  0
LWPOLYLINE
  5
106
100
AcDbEntity
  8
Layer_1
 62
7
100
AcDbPolyline
 90
4
 70
0
 10
-19.129695
 20
208.615596
 30
0.0
 10
-19.129695
 20
210.647493
 30
0.0
 10
59.936490
 20
210.672892
 30
0.0
 10
59.936490
 20
208.640995
 30
0.0
  0
LWPOLYLINE
  5
107
100
AcDbEntity
  8
Layer_1
 62
7
100
AcDbPolyline
 90
3
 70
0
 10
64.432061
 20
208.640995
 30
0.0
 10
64.432061
 20
210.672892
 30
0.0
 10
122.163329
 20
210.672892
 30
0.0
  0
SPLINE
  5
108
100
AcDbEntity
  8
Layer_1
 62
7
100
AcDbSpline
 70
0
 71
3
 72
13
 73
9
 74
7
 40
0.000000
 40
0.000000
 40
0.000000
 40
0.000000
 40
1.087559
 40
2.167278
 40
3.296483
 40
4.443086
 40
5.527794
 40
6.615629
 40
6.615629
 40
6.615629
 40
6.615629
 10
59.936490
 20
208.640995
 30
0.0
 10
60.003470
 20
208.273510
 30
0.0
 10
60.136948
 20
207.541190
 30
0.0
 10
61.058134
 20
206.807780
 30
0.0
 10
62.177286
 20
206.546213
 30
0.0
 10
63.298659
 20
206.805636
 30
0.0
 10
64.230840
 20
207.538748
 30
0.0
 10
64.364923
 20
208.273227
 30
0.0
 10
64.432061
 20
208.640995
 30
0.0
 11
59.936490
 21
208.640995
 31
0.0
 11
60.256325
 21
207.601529
 31
0.0
 11
61.072847
 21
206.895069
 31
0.0
 11
62.171576
 21
206.634497
 31
0.0
 11
63.288179
 21
206.895069
 31
0.0
 11
64.111285
 21
207.601529
 31
0.0
 11
64.432061
 21
208.640995
 31
0.0
  0
LWPOLYLINE
  5
109
100
AcDbEntity
  8
Layer_1
 62
7
100
AcDbPolyline
 90
7
 70
0
 10
122.163329
 20
85.660441
 30
0.0
 10
103.342885
 20
85.660441
 30
0.0
 10
103.342885
 20
89.622640
 30
0.0
 10
101.412583
 20
89.622640
 30
0.0
 10
101.412583
 20
85.660441
 30
0.0
 10
63.644701
 20
85.660441
 30
0.0
 10
63.644701
 20
88.149515
 30
0.0
  0
SPLINE
  5
10a
100
AcDbEntity
  8
Layer_1
 62
7
100
AcDbSpline
 70
0
 71
3
 72
13
 73
9
 74
7
 40
0.000000
 40
0.000000
 40
0.000000
 40
0.000000
 40
1.091218
 40
2.184516
 40
3.309145
 40
4.455748
 40
5.540456
 40
6.628291
 40
6.628291
 40
6.628291
 40
6.628291
 10
63.644701
 20
88.149515
 30
0.0
 10
63.573458
 20
88.517641
 30
0.0
 10
63.430836
 20
89.254596
 30
0.0
 10
62.496398
 20
89.976869
 30
0.0
 10
61.377739
 20
90.245568
 30
0.0
 10
60.256941
 20
89.984463
 30
0.0
 10
59.325000
 20
89.251862
 30
0.0
 10
59.190885
 20
88.517316
 30
0.0
 10
59.123731
 20
88.149515
 30
0.0
 11
63.644701
 21
88.149515
 31
0.0
 11
63.312637
 21
89.188980
 31
0.0
 11
62.478242
 21
89.895441
 31
0.0
 11
61.384216
 21
90.156013
 31
0.0
 11
60.267614
 21
89.895441
 31
0.0
 11
59.444507
 21
89.188980
 31
0.0
 11
59.123731
 21
88.149515
 31
0.0
  0
LWPOLYLINE
  5
10b
100
AcDbEntity
  8
Layer_1
 62
7
100
AcDbPolyline
 90
8
 70
0
 10
59.123731
 20
88.149515
 30
0.0
 10
59.123731
 20
85.660441
 30
0.0
 10
13.177465
 20
85.660441
 30
0.0
 10
13.177465
 20
89.648039
 30
0.0
 10
11.170967
 20
89.648039
 30
0.0
 10
11.170967
 20
85.660441
 30
0.0
 10
-37.518361
 20
85.660441
 30
0.0
 10
-37.518361
 20
88.149515
 30
0.0
  0
SPLINE
  5
10c
100
AcDbEntity
  8
Layer_1
 62
7
100
AcDbSpline
 70
0
 71
3
 72
13
 73
9
 74
7
 40
0.000000
 40
0.000000
 40
0.000000
 40
0.000000
 40
1.098627
 40
2.179667
 40
3.325001
 40
4.457499
 40
5.520035
 40
6.614889
 40
6.614889
 40
6.614889
 40
6.614889
 10
-37.518361
 20
88.149515
 30
0.0
 10
-37.584263
 20
88.521636
 30
0.0
 10
-37.715012
 20
89.259921
 30
0.0
 10
-38.653445
 20
89.992191
 30
0.0
 10
-39.773852
 20
90.239542
 30
0.0
 10
-40.892220
 20
89.995550
 30
0.0
 10
-41.805827
 20
89.252132
 30
0.0
 10
-41.927026
 20
88.520706
 30
0.0
 10
-41.988534
 20
88.149515
 30
0.0
 11
-37.518361
 21
88.149515
 31
0.0
 11
-37.839137
 21
89.200269
 31
0.0
 11
-38.662243
 21
89.901085
 31
0.0
 11
-39.778846
 21
90.156013
 31
0.0
 11
-40.882279
 21
89.901085
 31
0.0
 11
-41.680927
 21
89.200269
 31
0.0
 11
-41.988534
 21
88.149515
 31
0.0
  0
LWPOLYLINE
  5
10d
100
AcDbEntity
  8
Layer_1
 62
7
100
AcDbPolyline
 90
12
 70
0
 10
-41.988534
 20
88.149515
 30
0.0
 10
-41.988534
 20
85.660441
 30
0.0
 10
-74.549680
 20
85.660441
 30
0.0
 10
-74.549680
 20
89.648039
 30
0.0
 10
-76.556178
 20
89.648039
 30
0.0
 10
-76.556178
 20
85.660441
 30
0.0
 10
-113.562098
 20
85.660441
 30
0.0
 10
-113.562098
 20
89.648039
 30
0.0
 10
-115.543198
 20
89.648039
 30
0.0
 10
-115.543198
 20
85.660441
 30
0.0
 10
-148.256736
 20
85.660441
 30
0.0
 10
-148.256736
 20
88.149515
 30
0.0
  0
LWPOLYLINE
  5
10e
100
AcDbEntity
  8
Layer_1
 62
7
100
AcDbPolyline
 90
7
 70
0
 10
-152.701510
 20
88.149515
 30
0.0
 10
-152.701510
 20
85.660441
 30
0.0
 10
-177.312860
 20
85.660441
 30
0.0
 10
-177.312860
 20
89.622640
 30
0.0
 10
-179.217764
 20
89.622640
 30
0.0
 10
-179.217764
 20
85.660441
 30
0.0
 10
-226.459364
 20
85.660441
 30
0.0
  0
LWPOLYLINE
  5
10f
100
AcDbEntity
  8
Layer_1
 62
7
100
AcDbPolyline
 90
4
 70
1
 10
-223.462316
 20
205.161372
 30
0.0
 10
-209.467627
 20
205.161372
 30
0.0
 10
-209.467627
 20
191.166682
 30
0.0
 10
-223.462316
 20
191.166682
 30
0.0
  0
LWPOLYLINE
  5
110
100
AcDbEntity
  8
Layer_1
 62
7
100
AcDbPolyline
 90
4
 70
1
 10
-223.462316
 20
181.362780
 30
0.0
 10
-209.467627
 20
181.362780
 30
0.0
 10
-209.467627
 20
167.342692
 30
0.0
 10
-223.462316
 20
167.342692
 30
0.0
  0
LWPOLYLINE
  5
111
100
AcDbEntity
  8
Layer_1
 62
7
100
AcDbPolyline
 90
4
 70
1
 10
-221.074838
 20
105.166650
 30
0.0
 10
-207.080149
 20
105.166650
 30
0.0
 10
-207.080149
 20
91.146562
 30
0.0
 10
-221.074838
 20
91.146562
 30
0.0
  0
LWPOLYLINE
  5
112
100
AcDbEntity
  8
Layer_1
 62
7
100
AcDbPolyline
 90
4
 70
1
 10
-218.687359
 20
162.313748
 30
0.0
 10
-204.692670
 20
162.313748
 30
0.0
 10
-204.692670
 20
148.293660
 30
0.0
 10
-218.687359
 20
148.293660
 30
0.0
  0
LWPOLYLINE
  5
113
100
AcDbEntity
  8
Layer_1
 62
7
100
AcDbPolyline
 90
4
 70
1
 10
-216.325279
 20
143.264715
 30
0.0
 10
-202.305191
 20
143.264715
 30
0.0
 10
-202.305191
 20
129.244627
 30
0.0
 10
-216.325279
 20
129.244627
 30
0.0
  0
LWPOLYLINE
  5
114
100
AcDbEntity
  8
Layer_1
 62
7
100
AcDbPolyline
 90
4
 70
1
 10
-204.413284
 20
181.362780
 30
0.0
 10
-190.418595
 20
181.362780
 30
0.0
 10
-190.418595
 20
167.342692
 30
0.0
 10
-204.413284
 20
167.342692
 30
0.0
  0
LWPOLYLINE
  5
115
100
AcDbEntity
  8
Layer_1
 62
7
100
AcDbPolyline
 90
4
 70
1
 10
-197.276246
 20
105.166650
 30
0.0
 10
-183.256159
 20
105.166650
 30
0.0
 10
-183.256159
 20
91.146562
 30
0.0
 10
-197.276246
 20
91.146562
 30
0.0
  0
LWPOLYLINE
  5
116
100
AcDbEntity
  8
Layer_1
 62
7
100
AcDbPolyline
 90
4
 70
1
 10
-194.888768
 20
162.313748
 30
0.0
 10
-180.894079
 20
162.313748
 30
0.0
 10
-180.894079
 20
148.293660
 30
0.0
 10
-194.888768
 20
148.293660
 30
0.0
  0
LWPOLYLINE
  5
117
100
AcDbEntity
  8
Layer_1
 62
7
100
AcDbPolyline
 90
4
 70
1
 10
-190.113810
 20
143.264715
 30
0.0
 10
-176.119121
 20
143.264715
 30
0.0
 10
-176.119121
 20
129.244627
 30
0.0
 10
-190.113810
 20
129.244627
 30
0.0
  0
LWPOLYLINE
  5
118
100
AcDbEntity
  8
Layer_1
 62
7
100
AcDbPolyline
 90
4
 70
1
 10
-185.364251
 20
205.161372
 30
0.0
 10
-171.369562
 20
205.161372
 30
0.0
 10
-171.369562
 20
191.166682
 30
0.0
 10
-185.364251
 20
191.166682
 30
0.0
  0
LWPOLYLINE
  5
119
100
AcDbEntity
  8
Layer_1
 62
7
100
AcDbPolyline
 90
4
 70
1
 10
-185.364251
 20
181.362780
 30
0.0
 10
-171.369562
 20
181.362780
 30
0.0
 10
-171.369562
 20
167.342692
 30
0.0
 10
-185.364251
 20
167.342692
 30
0.0
  0
LWPOLYLINE
  5
11a
100
AcDbEntity
  8
Layer_1
 62
7
100
AcDbPolyline
 90
4
 70
1
 10
-180.589294
 20
124.215683
 30
0.0
 10
-166.594605
 20
124.215683
 30
0.0
 10
-166.594605
 20
110.195595
 30
0.0
 10
-180.589294
 20
110.195595
 30
0.0
  0
LWPOLYLINE
  5
11b
100
AcDbEntity
  8
Layer_1
 62
7
100
AcDbPolyline
 90
4
 70
1
 10
-175.839735
 20
162.313748
 30
0.0
 10
-161.845046
 20
162.313748
 30
0.0
 10
-161.845046
 20
148.293660
 30
0.0
 10
-175.839735
 20
148.293660
 30
0.0
  0
LWPOLYLINE
  5
11c
100
AcDbEntity
  8
Layer_1
 62
7
100
AcDbPolyline
 90
4
 70
1
 10
-173.452256
 20
105.166650
 30
0.0
 10
-159.457567
 20
105.166650
 30
0.0
 10
-159.457567
 20
91.146562
 30
0.0
 10
-173.452256
 20
91.146562
 30
0.0
  0
LWPOLYLINE
  5
11d
100
AcDbEntity
  8
Layer_1
 62
7
100
AcDbPolyline
 90
4
 70
1
 10
-171.064778
 20
143.264715
 30
0.0
 10
-157.070089
 20
143.264715
 30
0.0
 10
-157.070089
 20
129.244627
 30
0.0
 10
-171.064778
 20
129.244627
 30
0.0
  0
LWPOLYLINE
  5
11e
100
AcDbEntity
  8
Layer_1
 62
7
100
AcDbPolyline
 90
4
 70
1
 10
-166.315219
 20
205.161372
 30
0.0
 10
-152.320530
 20
205.161372
 30
0.0
 10
-152.320530
 20
191.166682
 30
0.0
 10
-166.315219
 20
191.166682
 30
0.0
  0
LWPOLYLINE
  5
11f
100
AcDbEntity
  8
Layer_1
 62
7
100
AcDbPolyline
 90
4
 70
1
 10
-166.315219
 20
181.362780
 30
0.0
 10
-152.320530
 20
181.362780
 30
0.0
 10
-152.320530
 20
167.342692
 30
0.0
 10
-166.315219
 20
167.342692
 30
0.0
  0
LWPOLYLINE
  5
120
100
AcDbEntity
  8
Layer_1
 62
7
100
AcDbPolyline
 90
4
 70
1
 10
-161.540262
 20
124.215683
 30
0.0
 10
-147.545572
 20
124.215683
 30
0.0
 10
-147.545572
 20
110.195595
 30
0.0
 10
-161.540262
 20
110.195595
 30
0.0
  0
LWPOLYLINE
  5
121
100
AcDbEntity
  8
Layer_1
 62
7
100
AcDbPolyline
 90
4
 70
1
 10
-156.790703
 20
162.313748
 30
0.0
 10
-142.796014
 20
162.313748
 30
0.0
 10
-142.796014
 20
148.293660
 30
0.0
 10
-156.790703
 20
148.293660
 30
0.0
  0
LWPOLYLINE
  5
122
100
AcDbEntity
  8
Layer_1
 62
7
100
AcDbPolyline
 90
4
 70
1
 10
-152.015745
 20
143.264715
 30
0.0
 10
-138.021056
 20
143.264715
 30
0.0
 10
-138.021056
 20
129.244627
 30
0.0
 10
-152.015745
 20
129.244627
 30
0.0
  0
LWPOLYLINE
  5
123
100
AcDbEntity
  8
Layer_1
 62
7
100
AcDbPolyline
 90
4
 70
1
 10
-147.266186
 20
205.161372
 30
0.0
 10
-133.271497
 20
205.161372
 30
0.0
 10
-133.271497
 20
191.166682
 30
0.0
 10
-147.266186
 20
191.166682
 30
0.0
  0
LWPOLYLINE
  5
124
100
AcDbEntity
  8
Layer_1
 62
7
100
AcDbPolyline
 90
4
 70
1
 10
-147.266186
 20
181.362780
 30
0.0
 10
-133.271497
 20
181.362780
 30
0.0
 10
-133.271497
 20
167.342692
 30
0.0
 10
-147.266186
 20
167.342692
 30
0.0
  0
LWPOLYLINE
  5
125
100
AcDbEntity
  8
Layer_1
 62
7
100
AcDbPolyline
 90
4
 70
1
 10
-142.491229
 20
124.215683
 30
0.0
 10
-128.496540
 20
124.215683
 30
0.0
 10
-128.496540
 20
110.195595
 30
0.0
 10
-142.491229
 20
110.195595
 30
0.0
  0
LWPOLYLINE
  5
126
100
AcDbEntity
  8
Layer_1
 62
7
100
AcDbPolyline
 90
4
 70
1
 10
-137.741670
 20
162.313748
 30
0.0
 10
-123.746981
 20
162.313748
 30
0.0
 10
-123.746981
 20
148.293660
 30
0.0
 10
-137.741670
 20
148.293660
 30
0.0
  0
LWPOLYLINE
  5
127
100
AcDbEntity
  8
Layer_1
 62
7
100
AcDbPolyline
 90
4
 70
1
 10
-132.966713
 20
143.264715
 30
0.0
 10
-118.972024
 20
143.264715
 30
0.0
 10
-118.972024
 20
129.244627
 30
0.0
 10
-132.966713
 20
129.244627
 30
0.0
  0
LWPOLYLINE
  5
128
100
AcDbEntity
  8
Layer_1
 62
7
100
AcDbPolyline
 90
4
 70
1
 10
-128.217154
 20
205.161372
 30
0.0
 10
-114.222465
 20
205.161372
 30
0.0
 10
-114.222465
 20
191.166682
 30
0.0
 10
-128.217154
 20
191.166682
 30
0.0
  0
LWPOLYLINE
  5
129
100
AcDbEntity
  8
Layer_1
 62
7
100
AcDbPolyline
 90
4
 70
1
 10
-128.217154
 20
181.362780
 30
0.0
 10
-114.222465
 20
181.362780
 30
0.0
 10
-114.222465
 20
167.342692
 30
0.0
 10
-128.217154
 20
167.342692
 30
0.0
  0
LWPOLYLINE
  5
12a
100
AcDbEntity
  8
Layer_1
 62
7
100
AcDbPolyline
 90
4
 70
1
 10
-123.442197
 20
124.215683
 30
0.0
 10
-109.447507
 20
124.215683
 30
0.0
 10
-109.447507
 20
110.195595
 30
0.0
 10
-123.442197
 20
110.195595
 30
0.0
  0
LWPOLYLINE
  5
12b
100
AcDbEntity
  8
Layer_1
 62
7
100
AcDbPolyline
 90
4
 70
1
 10
-118.692638
 20
162.313748
 30
0.0
 10
-104.697949
 20
162.313748
 30
0.0
 10
-104.697949
 20
148.293660
 30
0.0
 10
-118.692638
 20
148.293660
 30
0.0
  0
LWPOLYLINE
  5
12c
100
AcDbEntity
  8
Layer_1
 62
7
100
AcDbPolyline
 90
4
 70
1
 10
-113.917680
 20
143.264715
 30
0.0
 10
-99.922991
 20
143.264715
 30
0.0
 10
-99.922991
 20
129.244627
 30
0.0
 10
-113.917680
 20
129.244627
 30
0.0
  0
LWPOLYLINE
  5
12d
100
AcDbEntity
  8
Layer_1
 62
7
100
AcDbPolyline
 90
4
 70
1
 10
-109.168121
 20
181.362780
 30
0.0
 10
-95.173432
 20
181.362780
 30
0.0
 10
-95.173432
 20
167.342692
 30
0.0
 10
-109.168121
 20
167.342692
 30
0.0
  0
LWPOLYLINE
  5
12e
100
AcDbEntity
  8
Layer_1
 62
7
100
AcDbPolyline
 90
4
 70
1
 10
-104.393164
 20
124.215683
 30
0.0
 10
-90.398475
 20
124.215683
 30
0.0
 10
-90.398475
 20
110.195595
 30
0.0
 10
-104.393164
 20
110.195595
 30
0.0
  0
LWPOLYLINE
  5
12f
100
AcDbEntity
  8
Layer_1
 62
7
100
AcDbPolyline
 90
4
 70
1
 10
-99.643605
 20
205.161372
 30
0.0
 10
-85.648916
 20
205.161372
 30
0.0
 10
-85.648916
 20
191.166682
 30
0.0
 10
-99.643605
 20
191.166682
 30
0.0
  0
LWPOLYLINE
  5
130
100
AcDbEntity
  8
Layer_1
 62
7
100
AcDbPolyline
 90
4
 70
1
 10
-99.643605
 20
162.313748
 30
0.0
 10
-85.648916
 20
162.313748
 30
0.0
 10
-85.648916
 20
148.293660
 30
0.0
 10
-99.643605
 20
148.293660
 30
0.0
  0
LWPOLYLINE
  5
131
100
AcDbEntity
  8
Layer_1
 62
7
100
AcDbPolyline
 90
4
 70
1
 10
-94.868648
 20
143.264715
 30
0.0
 10
-80.873959
 20
143.264715
 30
0.0
 10
-80.873959
 20
129.244627
 30
0.0
 10
-94.868648
 20
129.244627
 30
0.0
  0
LWPOLYLINE
  5
132
100
AcDbEntity
  8
Layer_1
 62
7
100
AcDbPolyline
 90
4
 70
1
 10
-90.119089
 20
181.362780
 30
0.0
 10
-76.124400
 20
181.362780
 30
0.0
 10
-76.124400
 20
167.342692
 30
0.0
 10
-90.119089
 20
167.342692
 30
0.0
  0
LWPOLYLINE
  5
133
100
AcDbEntity
  8
Layer_1
 62
7
100
AcDbPolyline
 90
4
 70
1
 10
-85.344132
 20
124.215683
 30
0.0
 10
-71.349442
 20
124.215683
 30
0.0
 10
-71.349442
 20
110.195595
 30
0.0
 10
-85.344132
 20
110.195595
 30
0.0
  0
LWPOLYLINE
  5
134
100
AcDbEntity
  8
Layer_1
 62
7
100
AcDbPolyline
 90
4
 70
1
 10
-80.594573
 20
205.161372
 30
0.0
 10
-66.599884
 20
205.161372
 30
0.0
 10
-66.599884
 20
191.166682
 30
0.0
 10
-80.594573
 20
191.166682
 30
0.0
  0
LWPOLYLINE
  5
135
100
AcDbEntity
  8
Layer_1
 62
7
100
AcDbPolyline
 90
4
 70
1
 10
-80.594573
 20
162.313748
 30
0.0
 10
-66.599884
 20
162.313748
 30
0.0
 10
-66.599884
 20
148.293660
 30
0.0
 10
-80.594573
 20
148.293660
 30
0.0
  0
LWPOLYLINE
  5
136
100
AcDbEntity
  8
Layer_1
 62
7
100
AcDbPolyline
 90
4
 70
1
 10
-75.819615
 20
143.264715
 30
0.0
 10
-61.824926
 20
143.264715
 30
0.0
 10
-61.824926
 20
129.244627
 30
0.0
 10
-75.819615
 20
129.244627
 30
0.0
  0
LWPOLYLINE
  5
137
100
AcDbEntity
  8
Layer_1
 62
7
100
AcDbPolyline
 90
4
 70
1
 10
-71.070056
 20
181.362780
 30
0.0
 10
-57.075367
 20
181.362780
 30
0.0
 10
-57.075367
 20
167.342692
 30
0.0
 10
-71.070056
 20
167.342692
 30
0.0
  0
LWPOLYLINE
  5
138
100
AcDbEntity
  8
Layer_1
 62
7
100
AcDbPolyline
 90
4
 70
1
 10
-66.295099
 20
124.215683
 30
0.0
 10
-52.300410
 20
124.215683
 30
0.0
 10
-52.300410
 20
110.195595
 30
0.0
 10
-66.295099
 20
110.195595
 30
0.0
  0
LWPOLYLINE
  5
139
100
AcDbEntity
  8
Layer_1
 62
7
100
AcDbPolyline
 90
4
 70
1
 10
-61.545540
 20
205.161372
 30
0.0
 10
-47.550851
 20
205.161372
 30
0.0
 10
-47.550851
 20
191.166682
 30
0.0
 10
-61.545540
 20
191.166682
 30
0.0
  0
LWPOLYLINE
  5
13a
100
AcDbEntity
  8
Layer_1
 62
7
100
AcDbPolyline
 90
4
 70
1
 10
-61.545540
 20
162.313748
 30
0.0
 10
-47.550851
 20
162.313748
 30
0.0
 10
-47.550851
 20
148.293660
 30
0.0
 10
-61.545540
 20
148.293660
 30
0.0
  0
LWPOLYLINE
  5
13b
100
AcDbEntity
  8
Layer_1
 62
7
100
AcDbPolyline
 90
4
 70
1
 10
-56.770583
 20
143.264715
 30
0.0
 10
-42.775894
 20
143.264715
 30
0.0
 10
-42.775894
 20
129.244627
 30
0.0
 10
-56.770583
 20
129.244627
 30
0.0
  0
LWPOLYLINE
  5
13c
100
AcDbEntity
  8
Layer_1
 62
7
100
AcDbPolyline
 90
4
 70
1
 10
-52.021024
 20
181.362780
 30
0.0
 10
-38.026335
 20
181.362780
 30
0.0
 10
-38.026335
 20
167.342692
 30
0.0
 10
-52.021024
 20
167.342692
 30
0.0
  0
LWPOLYLINE
  5
13d
100
AcDbEntity
  8
Layer_1
 62
7
100
AcDbPolyline
 90
4
 70
1
 10
-47.246067
 20
124.215683
 30
0.0
 10
-33.251377
 20
124.215683
 30
0.0
 10
-33.251377
 20
110.195595
 30
0.0
 10
-47.246067
 20
110.195595
 30
0.0
  0
LWPOLYLINE
  5
13e
100
AcDbEntity
  8
Layer_1
 62
7
100
AcDbPolyline
 90
4
 70
1
 10
-42.496508
 20
205.161372
 30
0.0
 10
-28.501819
 20
205.161372
 30
0.0
 10
-28.501819
 20
191.166682
 30
0.0
 10
-42.496508
 20
191.166682
 30
0.0
  0
LWPOLYLINE
  5
13f
100
AcDbEntity
  8
Layer_1
 62
7
100
AcDbPolyline
 90
4
 70
1
 10
-42.496508
 20
162.313748
 30
0.0
 10
-28.501819
 20
162.313748
 30
0.0
 10
-28.501819
 20
148.293660
 30
0.0
 10
-42.496508
 20
148.293660
 30
0.0
  0
LWPOLYLINE
  5
140
100
AcDbEntity
  8
Layer_1
 62
7
100
AcDbPolyline
 90
4
 70
1
 10
-37.721550
 20
143.264715
 30
0.0
 10
-23.726861
 20
143.264715
 30
0.0
 10
-23.726861
 20
129.244627
 30
0.0
 10
-37.721550
 20
129.244627
 30
0.0
  0
LWPOLYLINE
  5
141
100
AcDbEntity
  8
Layer_1
 62
7
100
AcDbPolyline
 90
4
 70
1
 10
-32.971991
 20
181.362780
 30
0.0
 10
-18.977302
 20
181.362780
 30
0.0
 10
-18.977302
 20
167.342692
 30
0.0
 10
-32.971991
 20
167.342692
 30
0.0
  0
LWPOLYLINE
  5
142
100
AcDbEntity
  8
Layer_1
 62
7
100
AcDbPolyline
 90
4
 70
1
 10
-30.584513
 20
105.166650
 30
0.0
 10
-16.589824
 20
105.166650
 30
0.0
 10
-16.589824
 20
91.146562
 30
0.0
 10
-30.584513
 20
91.146562
 30
0.0
  0
LWPOLYLINE
  5
143
100
AcDbEntity
  8
Layer_1
 62
7
100
AcDbPolyline
 90
4
 70
1
 10
-28.197034
 20
124.215683
 30
0.0
 10
-14.202345
 20
124.215683
 30
0.0
 10
-14.202345
 20
110.195595
 30
0.0
 10
-28.197034
 20
110.195595
 30
0.0
  0
LWPOLYLINE
  5
144
100
AcDbEntity
  8
Layer_1
 62
7
100
AcDbPolyline
 90
4
 70
1
 10
-23.447475
 20
162.313748
 30
0.0
 10
-9.452786
 20
162.313748
 30
0.0
 10
-9.452786
 20
148.293660
 30
0.0
 10
-23.447475
 20
148.293660
 30
0.0
  0
LWPOLYLINE
  5
145
100
AcDbEntity
  8
Layer_1
 62
7
100
AcDbPolyline
 90
4
 70
1
 10
-18.672518
 20
143.264715
 30
0.0
 10
-4.677829
 20
143.264715
 30
0.0
 10
-4.677829
 20
129.244627
 30
0.0
 10
-18.672518
 20
129.244627
 30
0.0
  0
LWPOLYLINE
  5
146
100
AcDbEntity
  8
Layer_1
 62
7
100
AcDbPolyline
 90
4
 70
1
 10
-13.922959
 20
205.161372
 30
0.0
 10
0.071730
 20
205.161372
 30
0.0
 10
0.071730
 20
191.166682
 30
0.0
 10
-13.922959
 20
191.166682
 30
0.0
  0
LWPOLYLINE
  5
147
100
AcDbEntity
  8
Layer_1
 62
7
100
AcDbPolyline
 90
4
 70
1
 10
-13.922959
 20
181.362780
 30
0.0
 10
0.071730
 20
181.362780
 30
0.0
 10
0.071730
 20
167.342692
 30
0.0
 10
-13.922959
 20
167.342692
 30
0.0
  0
LWPOLYLINE
  5
148
100
AcDbEntity
  8
Layer_1
 62
7
100
AcDbPolyline
 90
4
 70
1
 10
-9.148002
 20
124.215683
 30
0.0
 10
4.846688
 20
124.215683
 30
0.0
 10
4.846688
 20
110.195595
 30
0.0
 10
-9.148002
 20
110.195595
 30
0.0
  0
LWPOLYLINE
  5
149
100
AcDbEntity
  8
Layer_1
 62
7
100
AcDbPolyline
 90
4
 70
1
 10
-6.785921
 20
105.166650
 30
0.0
 10
7.234166
 20
105.166650
 30
0.0
 10
7.234166
 20
91.146562
 30
0.0
 10
-6.785921
 20
91.146562
 30
0.0
  0
LWPOLYLINE
  5
14a
100
AcDbEntity
  8
Layer_1
 62
7
100
AcDbPolyline
 90
4
 70
1
 10
-4.398443
 20
162.313748
 30
0.0
 10
9.596246
 20
162.313748
 30
0.0
 10
9.596246
 20
148.293660
 30
0.0
 10
-4.398443
 20
148.293660
 30
0.0
  0
LWPOLYLINE
  5
14b
100
AcDbEntity
  8
Layer_1
 62
7
100
AcDbPolyline
 90
4
 70
1
 10
0.376515
 20
143.264715
 30
0.0
 10
14.371204
 20
143.264715
 30
0.0
 10
14.371204
 20
129.244627
 30
0.0
 10
0.376515
 20
129.244627
 30
0.0
  0
LWPOLYLINE
  5
14c
100
AcDbEntity
  8
Layer_1
 62
7
100
AcDbPolyline
 90
4
 70
1
 10
5.126074
 20
205.161372
 30
0.0
 10
19.120763
 20
205.161372
 30
0.0
 10
19.120763
 20
191.166682
 30
0.0
 10
5.126074
 20
191.166682
 30
0.0
  0
LWPOLYLINE
  5
14d
100
AcDbEntity
  8
Layer_1
 62
7
100
AcDbPolyline
 90
4
 70
1
 10
5.126074
 20
181.362780
 30
0.0
 10
19.120763
 20
181.362780
 30
0.0
 10
19.120763
 20
167.342692
 30
0.0
 10
5.126074
 20
167.342692
 30
0.0
  0
LWPOLYLINE
  5
14e
100
AcDbEntity
  8
Layer_1
 62
7
100
AcDbPolyline
 90
4
 70
1
 10
14.650590
 20
162.313748
 30
0.0
 10
28.645279
 20
162.313748
 30
0.0
 10
28.645279
 20
148.293660
 30
0.0
 10
14.650590
 20
148.293660
 30
0.0
  0
LWPOLYLINE
  5
14f
100
AcDbEntity
  8
Layer_1
 62
7
100
AcDbPolyline
 90
4
 70
1
 10
17.038069
 20
105.166650
 30
0.0
 10
31.032758
 20
105.166650
 30
0.0
 10
31.032758
 20
91.146562
 30
0.0
 10
17.038069
 20
91.146562
 30
0.0
  0
LWPOLYLINE
  5
150
100
AcDbEntity
  8
Layer_1
 62
7
100
AcDbPolyline
 90
4
 70
1
 10
24.175106
 20
205.161372
 30
0.0
 10
38.169795
 20
205.161372
 30
0.0
 10
38.169795
 20
191.166682
 30
0.0
 10
24.175106
 20
191.166682
 30
0.0
  0
LWPOLYLINE
  5
151
100
AcDbEntity
  8
Layer_1
 62
7
100
AcDbPolyline
 90
4
 70
1
 10
38.474580
 20
162.313748
 30
0.0
 10
52.469269
 20
162.313748
 30
0.0
 10
52.469269
 20
148.293660
 30
0.0
 10
38.474580
 20
148.293660
 30
0.0
  0
LWPOLYLINE
  5
152
100
AcDbEntity
  8
Layer_1
 62
7
100
AcDbPolyline
 90
4
 70
1
 10
40.836660
 20
105.166650
 30
0.0
 10
54.856748
 20
105.166650
 30
0.0
 10
54.856748
 20
91.146562
 30
0.0
 10
40.836660
 20
91.146562
 30
0.0
  0
LWPOLYLINE
  5
153
100
AcDbEntity
  8
Layer_1
 62
7
100
AcDbPolyline
 90
4
 70
1
 10
43.224139
 20
205.161372
 30
0.0
 10
57.218828
 20
205.161372
 30
0.0
 10
57.218828
 20
191.166682
 30
0.0
 10
43.224139
 20
191.166682
 30
0.0
  0
LWPOLYLINE
  5
154
100
AcDbEntity
  8
Layer_1
 62
7
100
AcDbPolyline
 90
4
 70
1
 10
67.048129
 20
181.362780
 30
0.0
 10
81.042818
 20
181.362780
 30
0.0
 10
81.042818
 20
167.342692
 30
0.0
 10
67.048129
 20
167.342692
 30
0.0
  0
LWPOLYLINE
  5
155
100
AcDbEntity
  8
Layer_1
 62
7
100
AcDbPolyline
 90
4
 70
1
 10
67.048129
 20
105.166650
 30
0.0
 10
81.042818
 20
105.166650
 30
0.0
 10
81.042818
 20
91.146562
 30
0.0
 10
67.048129
 20
91.146562
 30
0.0
  0
LWPOLYLINE
  5
156
100
AcDbEntity
  8
Layer_1
 62
7
100
AcDbPolyline
 90
4
 70
1
 10
67.048129
 20
205.161372
 30
0.0
 10
81.042818
 20
205.161372
 30
0.0
 10
81.042818
 20
191.166682
 30
0.0
 10
67.048129
 20
191.166682
 30
0.0
  0
LWPOLYLINE
  5
157
100
AcDbEntity
  8
Layer_1
 62
7
100
AcDbPolyline
 90
4
 70
1
 10
67.048129
 20
162.313748
 30
0.0
 10
81.042818
 20
162.313748
 30
0.0
 10
81.042818
 20
148.293660
 30
0.0
 10
67.048129
 20
148.293660
 30
0.0
  0
LWPOLYLINE
  5
158
100
AcDbEntity
  8
Layer_1
 62
7
100
AcDbPolyline
 90
4
 70
1
 10
86.097161
 20
181.362780
 30
0.0
 10
100.091850
 20
181.362780
 30
0.0
 10
100.091850
 20
167.342692
 30
0.0
 10
86.097161
 20
167.342692
 30
0.0
  0
LWPOLYLINE
  5
159
100
AcDbEntity
  8
Layer_1
 62
7
100
AcDbPolyline
 90
4
 70
1
 10
86.097161
 20
105.166650
 30
0.0
 10
100.091850
 20
105.166650
 30
0.0
 10
100.091850
 20
91.146562
 30
0.0
 10
86.097161
 20
91.146562
 30
0.0
  0
LWPOLYLINE
  5
15a
100
AcDbEntity
  8
Layer_1
 62
7
100
AcDbPolyline
 90
4
 70
1
 10
86.097161
 20
205.161372
 30
0.0
 10
100.091850
 20
205.161372
 30
0.0
 10
100.091850
 20
191.166682
 30
0.0
 10
86.097161
 20
191.166682
 30
0.0
  0
LWPOLYLINE
  5
15b
100
AcDbEntity
  8
Layer_1
 62
7
100
AcDbPolyline
 90
4
 70
1
 10
86.097161
 20
162.313748
 30
0.0
 10
100.091850
 20
162.313748
 30
0.0
 10
100.091850
 20
148.293660
 30
0.0
 10
86.097161
 20
148.293660
 30
0.0
  0
LWPOLYLINE
  5
15c
100
AcDbEntity
  8
Layer_1
 62
7
100
AcDbPolyline
 90
4
 70
1
 10
86.097161
 20
124.215683
 30
0.0
 10
100.091850
 20
124.215683
 30
0.0
 10
100.091850
 20
110.195595
 30
0.0
 10
86.097161
 20
110.195595
 30
0.0
  0
LWPOLYLINE
  5
15d
100
AcDbEntity
  8
Layer_1
 62
7
100
AcDbPolyline
 90
4
 70
1
 10
105.146194
 20
181.362780
 30
0.0
 10
119.140883
 20
181.362780
 30
0.0
 10
119.140883
 20
167.342692
 30
0.0
 10
105.146194
 20
167.342692
 30
0.0
  0
LWPOLYLINE
  5
15e
100
AcDbEntity
  8
Layer_1
 62
7
100
AcDbPolyline
 90
4
 70
1
 10
105.146194
 20
105.166650
 30
0.0
 10
119.140883
 20
105.166650
 30
0.0
 10
119.140883
 20
91.146562
 30
0.0
 10
105.146194
 20
91.146562
 30
0.0
  0
LWPOLYLINE
  5
15f
100
AcDbEntity
  8
Layer_1
 62
7
100
AcDbPolyline
 90
4
 70
1
 10
105.146194
 20
205.161372
 30
0.0
 10
119.140883
 20
205.161372
 30
0.0
 10
119.140883
 20
191.166682
 30
0.0
 10
105.146194
 20
191.166682
 30
0.0
  0
LWPOLYLINE
  5
160
100
AcDbEntity
  8
Layer_1
 62
7
100
AcDbPolyline
 90
4
 70
1
 10
105.146194
 20
162.313748
 30
0.0
 10
119.140883
 20
162.313748
 30
0.0
 10
119.140883
 20
148.293660
 30
0.0
 10
105.146194
 20
148.293660
 30
0.0
  0
LWPOLYLINE
  5
161
100
AcDbEntity
  8
Layer_1
 62
7
100
AcDbPolyline
 90
36
 70
1
 10
-189.326450
 20
116.672266
 30
0.0
 10
-189.326450
 20
110.424183
 30
0.0
 10
-190.951968
 20
110.424183
 30
0.0
 10
-190.951968
 20
109.205045
 30
0.0
 10
-194.253800
 20
109.205045
 30
0.0
 10
-194.253800
 20
110.424183
 30
0.0
 10
-195.980912
 20
110.424183
 30
0.0
 10
-195.980912
 20
111.211543
 30
0.0
 10
-197.555632
 20
111.211543
 30
0.0
 10
-197.555632
 20
110.195595
 30
0.0
 10
-211.550321
 20
110.195595
 30
0.0
 10
-211.550321
 20
111.211543
 30
0.0
 10
-213.125042
 20
111.211543
 30
0.0
 10
-213.125042
 20
110.424183
 30
0.0
 10
-214.852154
 20
110.424183
 30
0.0
 10
-214.852154
 20
109.205045
 30
0.0
 10
-218.153986
 20
109.205045
 30
0.0
 10
-218.153986
 20
110.424183
 30
0.0
 10
-219.779504
 20
110.424183
 30
0.0
 10
-219.779504
 20
116.672266
 30
0.0
 10
-220.668458
 20
116.672266
 30
0.0
 10
-220.668458
 20
119.491523
 30
0.0
 10
-219.779504
 20
119.491523
 30
0.0
 10
-219.779504
 20
122.717159
 30
0.0
 10
-213.125042
 20
122.717159
 30
0.0
 10
-213.125042
 20
121.904400
 30
0.0
 10
-211.550321
 20
121.904400
 30
0.0
 10
-211.550321
 20
124.190284
 30
0.0
 10
-197.555632
 20
124.190284
 30
0.0
 10
-197.555632
 20
121.904400
 30
0.0
 10
-195.980912
 20
121.904400
 30
0.0
 10
-195.980912
 20
122.717159
 30
0.0
 10
-189.326450
 20
122.717159
 30
0.0
 10
-189.326450
 20
119.491523
 30
0.0
 10
-188.462894
 20
119.491523
 30
0.0
 10
-188.462894
 20
116.672266
 30
0.0
  0
LWPOLYLINE
  5
162
100
AcDbEntity
  8
Layer_1
 62
7
100
AcDbPolyline
 90
7
 70
0
 10
-41.709148
 20
97.623234
 30
0.0
 10
-41.709148
 20
91.375151
 30
0.0
 10
-43.385463
 20
91.375151
 30
0.0
 10
-43.385463
 20
90.156013
 30
0.0
 10
-46.687295
 20
90.156013
 30
0.0
 10
-46.687295
 20
91.375151
 30
0.0
 10
-48.363610
 20
91.375151
 30
0.0
  0
LWPOLYLINE
  5
163
100
AcDbEntity
  8
Layer_1
 62
7
100
AcDbPolyline
 90
4
 70
0
 10
-88.036395
 20
105.141252
 30
0.0
 10
-88.036395
 20
91.146562
 30
0.0
 10
-102.031084
 20
91.146562
 30
0.0
 10
-102.031084
 20
105.141252
 30
0.0
  0
LWPOLYLINE
  5
164
100
AcDbEntity
  8
Layer_1
 62
7
100
AcDbPolyline
 90
13
 70
0
 10
-141.703869
 20
91.375151
 30
0.0
 10
-143.380184
 20
91.375151
 30
0.0
 10
-143.380184
 20
90.156013
 30
0.0
 10
-146.682016
 20
90.156013
 30
0.0
 10
-146.682016
 20
91.375151
 30
0.0
 10
-148.358331
 20
91.375151
 30
0.0
 10
-148.358331
 20
97.623234
 30
0.0
 10
-149.221887
 20
97.623234
 30
0.0
 10
-149.221887
 20
100.442490
 30
0.0
 10
-148.358331
 20
100.442490
 30
0.0
 10
-148.358331
 20
103.668126
 30
0.0
 10
-141.703869
 20
103.668126
 30
0.0
 10
-141.703869
 20
100.442490
 30
0.0
  0
LWPOLYLINE
  5
165
100
AcDbEntity
  8
Layer_1
 62
7
100
AcDbPolyline
 90
2
 70
0
 10
-102.031084
 20
105.141252
 30
0.0
 10
-88.036395
 20
105.141252
 30
0.0
  0
LWPOLYLINE
  5
166
100
AcDbEntity
  8
Layer_1
 62
7
100
AcDbPolyline
 90
7
 70
0
 10
-48.363610
 20
100.442490
 30
0.0
 10
-48.363610
 20
103.668126
 30
0.0
 10
-41.709148
 20
103.668126
 30
0.0
 10
-41.709148
 20
100.442490
 30
0.0
 10
-40.820193
 20
100.442490
 30
0.0
 10
-40.820193
 20
97.623234
 30
0.0
 10
-41.709148
 20
97.623234
 30
0.0
  0
LWPOLYLINE
  5
167
100
AcDbEntity
  8
Layer_1
 62
7
100
AcDbPolyline
 90
36
 70
1
 10
48.786456
 20
116.672266
 30
0.0
 10
48.786456
 20
110.424183
 30
0.0
 10
47.160939
 20
110.424183
 30
0.0
 10
47.160939
 20
109.205045
 30
0.0
 10
43.859106
 20
109.205045
 30
0.0
 10
43.859106
 20
110.424183
 30
0.0
 10
42.131994
 20
110.424183
 30
0.0
 10
42.131994
 20
111.211543
 30
0.0
 10
40.557274
 20
111.211543
 30
0.0
 10
40.557274
 20
110.195595
 30
0.0
 10
26.562585
 20
110.195595
 30
0.0
 10
26.562585
 20
111.211543
 30
0.0
 10
24.987865
 20
111.211543
 30
0.0
 10
24.987865
 20
110.424183
 30
0.0
 10
23.260752
 20
110.424183
 30
0.0
 10
23.260752
 20
109.205045
 30
0.0
 10
19.958920
 20
109.205045
 30
0.0
 10
19.958920
 20
110.424183
 30
0.0
 10
18.333403
 20
110.424183
 30
0.0
 10
18.333403
 20
116.672266
 30
0.0
 10
17.444448
 20
116.672266
 30
0.0
 10
17.444448
 20
119.491523
 30
0.0
 10
18.333403
 20
119.491523
 30
0.0
 10
18.333403
 20
122.717159
 30
0.0
 10
24.987865
 20
122.717159
 30
0.0
 10
24.987865
 20
121.904400
 30
0.0
 10
26.562585
 20
121.904400
 30
0.0
 10
26.562585
 20
124.190284
 30
0.0
 10
40.557274
 20
124.190284
 30
0.0
 10
40.557274
 20
121.904400
 30
0.0
 10
42.131994
 20
121.904400
 30
0.0
 10
42.131994
 20
122.717159
 30
0.0
 10
48.786456
 20
122.717159
 30
0.0
 10
48.786456
 20
119.491523
 30
0.0
 10
49.650012
 20
119.491523
 30
0.0
 10
49.650012
 20
116.672266
 30
0.0
  0
LWPOLYLINE
  5
168
100
AcDbEntity
  8
Layer_1
 62
7
100
AcDbPolyline
 90
36
 70
1
 10
53.536015
 20
135.721299
 30
0.0
 10
53.536015
 20
129.473216
 30
0.0
 10
51.910497
 20
129.473216
 30
0.0
 10
51.910497
 20
128.254078
 30
0.0
 10
48.608665
 20
128.254078
 30
0.0
 10
48.608665
 20
129.473216
 30
0.0
 10
46.881553
 20
129.473216
 30
0.0
 10
46.881553
 20
130.260576
 30
0.0
 10
45.306833
 20
130.260576
 30
0.0
 10
45.306833
 20
129.244627
 30
0.0
 10
31.312144
 20
129.244627
 30
0.0
 10
31.312144
 20
130.260576
 30
0.0
 10
29.737424
 20
130.260576
 30
0.0
 10
29.737424
 20
129.473216
 30
0.0
 10
28.010311
 20
129.473216
 30
0.0
 10
28.010311
 20
128.254078
 30
0.0
 10
24.708479
 20
128.254078
 30
0.0
 10
24.708479
 20
129.473216
 30
0.0
 10
23.082961
 20
129.473216
 30
0.0
 10
23.082961
 20
135.721299
 30
0.0
 10
22.219405
 20
135.721299
 30
0.0
 10
22.219405
 20
138.540555
 30
0.0
 10
23.082961
 20
138.540555
 30
0.0
 10
23.082961
 20
141.766191
 30
0.0
 10
29.737424
 20
141.766191
 30
0.0
 10
29.737424
 20
140.953433
 30
0.0
 10
31.312144
 20
140.953433
 30
0.0
 10
31.312144
 20
143.239317
 30
0.0
 10
45.306833
 20
143.239317
 30
0.0
 10
45.306833
 20
140.953433
 30
0.0
 10
46.881553
 20
140.953433
 30
0.0
 10
46.881553
 20
141.766191
 30
0.0
 10
53.536015
 20
141.766191
 30
0.0
 10
53.536015
 20
138.540555
 30
0.0
 10
54.424970
 20
138.540555
 30
0.0
 10
54.424970
 20
135.721299
 30
0.0
  0
SPLINE
  5
169
100
AcDbEntity
  8
Layer_1
 62
7
100
AcDbSpline
 70
0
 71
3
 72
13
 73
9
 74
7
 40
0.000000
 40
0.000000
 40
0.000000
 40
0.000000
 40
1.098353
 40
2.174388
 40
3.302304
 40
4.434802
 40
5.497338
 40
6.592192
 40
6.592192
 40
6.592192
 40
6.592192
 10
-148.256736
 20
88.149515
 30
0.0
 10
-148.322483
 20
88.521385
 30
0.0
 10
-148.452641
 20
89.257571
 30
0.0
 10
-149.380013
 20
89.989593
 30
0.0
 10
-150.492574
 20
90.240118
 30
0.0
 10
-151.605218
 20
89.995091
 30
0.0
 10
-152.518798
 20
89.252248
 30
0.0
 10
-152.640001
 20
88.520745
 30
0.0
 10
-152.701510
 20
88.149515
 30
0.0
 11
-148.256736
 21
88.149515
 31
0.0
 11
-148.576572
 21
89.200269
 31
0.0
 11
-149.393093
 21
89.901085
 31
0.0
 11
-150.491823
 21
90.156013
 31
0.0
 11
-151.595255
 21
89.901085
 31
0.0
 11
-152.393904
 21
89.200269
 31
0.0
 11
-152.701510
 21
88.149515
 31
0.0
  0
LWPOLYLINE
  5
16a
100
AcDbEntity
  8
Layer_1
 62
7
100
AcDbPolyline
 90
36
 70
1
 10
55.923494
 20
173.819364
 30
0.0
 10
55.923494
 20
167.571281
 30
0.0
 10
54.297976
 20
167.571281
 30
0.0
 10
54.297976
 20
166.352143
 30
0.0
 10
50.996144
 20
166.352143
 30
0.0
 10
50.996144
 20
167.571281
 30
0.0
 10
49.269032
 20
167.571281
 30
0.0
 10
49.269032
 20
168.358641
 30
0.0
 10
47.694311
 20
168.358641
 30
0.0
 10
47.694311
 20
167.342692
 30
0.0
 10
33.699622
 20
167.342692
 30
0.0
 10
33.699622
 20
168.358641
 30
0.0
 10
32.124902
 20
168.358641
 30
0.0
 10
32.124902
 20
167.571281
 30
0.0
 10
30.397790
 20
167.571281
 30
0.0
 10
30.397790
 20
166.352143
 30
0.0
 10
27.095958
 20
166.352143
 30
0.0
 10
27.095958
 20
167.571281
 30
0.0
 10
25.470440
 20
167.571281
 30
0.0
 10
25.470440
 20
173.819364
 30
0.0
 10
24.606884
 20
173.819364
 30
0.0
 10
24.606884
 20
176.638620
 30
0.0
 10
25.470440
 20
176.638620
 30
0.0
 10
25.470440
 20
179.864256
 30
0.0
 10
32.124902
 20
179.864256
 30
0.0
 10
32.124902
 20
179.051498
 30
0.0
 10
33.699622
 20
179.051498
 30
0.0
 10
33.699622
 20
181.337382
 30
0.0
 10
47.694311
 20
181.337382
 30
0.0
 10
47.694311
 20
179.051498
 30
0.0
 10
49.269032
 20
179.051498
 30
0.0
 10
49.269032
 20
179.864256
 30
0.0
 10
55.923494
 20
179.864256
 30
0.0
 10
55.923494
 20
176.638620
 30
0.0
 10
56.787050
 20
176.638620
 30
0.0
 10
56.787050
 20
173.819364
 30
0.0
  0
SPLINE
  5
16b
100
AcDbEntity
  8
Layer_1
 62
1
100
AcDbSpline
 70
0
 71
3
 72
25
 73
21
 74
19
 40
0.000000
 40
0.000000
 40
0.000000
 40
0.000000
 40
0.265897
 40
0.527989
 40
0.793886
 40
1.059783
 40
1.321875
 40
1.587772
 40
1.853669
 40
2.115761
 40
2.381658
 40
2.647555
 40
2.909647
 40
3.175544
 40
3.441441
 40
3.703533
 40
3.969430
 40
4.235327
 40
4.497419
 40
4.763316
 40
4.763316
 40
4.763316
 40
4.763316
 10
58.234776
 20
155.303704
 30
0.0
 10
58.225672
 20
155.214619
 30
0.0
 10
58.207595
 20
155.037726
 30
0.0
 10
58.067343
 20
154.803958
 30
0.0
 10
57.861991
 20
154.630157
 30
0.0
 10
57.607701
 20
154.537979
 30
0.0
 10
57.337870
 20
154.537979
 30
0.0
 10
57.083937
 20
154.630157
 30
0.0
 10
56.877162
 20
154.803958
 30
0.0
 10
56.742194
 20
155.037726
 30
0.0
 10
56.695070
 20
155.303704
 30
0.0
 10
56.742194
 20
155.569682
 30
0.0
 10
56.877162
 20
155.803450
 30
0.0
 10
57.083937
 20
155.977251
 30
0.0
 10
57.337870
 20
156.069429
 30
0.0
 10
57.607701
 20
156.069429
 30
0.0
 10
57.861991
 20
155.977251
 30
0.0
 10
58.067343
 20
155.803450
 30
0.0
 10
58.207595
 20
155.569682
 30
0.0
 10
58.225672
 20
155.392788
 30
0.0
 10
58.234776
 20
155.303704
 30
0.0
 11
58.234776
 21
155.303704
 31
0.0
 11
58.188393
 21
155.041884
 31
0.0
 11
58.057347
 21
154.814906
 31
0.0
 11
57.853795
 21
154.643826
 31
0.0
 11
57.603861
 21
154.553085
 31
0.0
 11
57.341769
 21
154.553085
 31
0.0
 11
57.091834
 21
154.643826
 31
0.0
 11
56.888283
 21
154.814906
 31
0.0
 11
56.757237
 21
155.041884
 31
0.0
 11
56.710854
 21
155.303704
 31
0.0
 11
56.757237
 21
155.565524
 31
0.0
 11
56.888283
 21
155.792502
 31
0.0
 11
57.091834
 21
155.963582
 31
0.0
 11
57.341769
 21
156.054323
 31
0.0
 11
57.603861
 21
156.054323
 31
0.0
 11
57.853795
 21
155.963582
 31
0.0
 11
58.057347
 21
155.792502
 31
0.0
 11
58.188393
 21
155.565524
 31
0.0
 11
58.234776
 21
155.303704
 31
0.0
  0
LWPOLYLINE
  5
16c
100
AcDbEntity
  8
Layer_1
 62
1
100
AcDbPolyline
 90
1
 70
1
 10
58.234776
 20
155.303704
 30
0.0
  0
SPLINE
  5
16d
100
AcDbEntity
  8
Layer_1
 62
1
100
AcDbSpline
 70
0
 71
3
 72
25
 73
21
 74
19
 40
0.000000
 40
0.000000
 40
0.000000
 40
0.000000
 40
0.265897
 40
0.527989
 40
0.793886
 40
1.059783
 40
1.321875
 40
1.587772
 40
1.853669
 40
2.115761
 40
2.381658
 40
2.647555
 40
2.909647
 40
3.175544
 40
3.441441
 40
3.703533
 40
3.969430
 40
4.235327
 40
4.497419
 40
4.763316
 40
4.763316
 40
4.763316
 40
4.763316
 10
-134.795420
 20
144.737841
 30
0.0
 10
-134.804524
 20
144.648756
 30
0.0
 10
-134.822601
 20
144.471862
 30
0.0
 10
-134.962853
 20
144.238094
 30
0.0
 10
-135.168205
 20
144.064294
 30
0.0
 10
-135.422495
 20
143.972116
 30
0.0
 10
-135.692326
 20
143.972116
 30
0.0
 10
-135.946259
 20
144.064294
 30
0.0
 10
-136.153034
 20
144.238094
 30
0.0
 10
-136.288002
 20
144.471862
 30
0.0
 10
-136.335126
 20
144.737841
 30
0.0
 10
-136.288002
 20
145.003819
 30
0.0
 10
-136.153034
 20
145.237587
 30
0.0
 10
-135.946259
 20
145.411387
 30
0.0
 10
-135.692326
 20
145.503565
 30
0.0
 10
-135.422495
 20
145.503565
 30
0.0
 10
-135.168205
 20
145.411387
 30
0.0
 10
-134.962853
 20
145.237587
 30
0.0
 10
-134.822601
 20
145.003819
 30
0.0
 10
-134.804524
 20
144.826925
 30
0.0
 10
-134.795420
 20
144.737841
 30
0.0
 11
-134.795420
 21
144.737841
 31
0.0
 11
-134.841803
 21
144.476020
 31
0.0
 11
-134.972849
 21
144.249042
 31
0.0
 11
-135.176401
 21
144.077963
 31
0.0
 11
-135.426335
 21
143.987222
 31
0.0
 11
-135.688427
 21
143.987222
 31
0.0
 11
-135.938362
 21
144.077963
 31
0.0
 11
-136.141913
 21
144.249042
 31
0.0
 11
-136.272959
 21
144.476020
 31
0.0
 11
-136.319342
 21
144.737841
 31
0.0
 11
-136.272959
 21
144.999661
 31
0.0
 11
-136.141913
 21
145.226639
 31
0.0
 11
-135.938362
 21
145.397718
 31
0.0
 11
-135.688427
 21
145.488459
 31
0.0
 11
-135.426335
 21
145.488459
 31
0.0
 11
-135.176401
 21
145.397718
 31
0.0
 11
-134.972849
 21
145.226639
 31
0.0
 11
-134.841803
 21
144.999661
 31
0.0
 11
-134.795420
 21
144.737841
 31
0.0
  0
LWPOLYLINE
  5
16e
100
AcDbEntity
  8
Layer_1
 62
1
100
AcDbPolyline
 90
1
 70
1
 10
-134.795420
 20
144.737841
 30
0.0
  0
ENDSEC
  0
SECTION
  2
OBJECTS
  0
DICTIONARY
  5
C
330
0
100
AcDbDictionary
  3
ACAD_GROUP
350
D
  3
ACAD_MLINESTYLE
350
17
  0
DICTIONARY
  5
D
330
C
100
AcDbDictionary
  0
DICTIONARY
  5
1A
330
C
100
AcDbDictionary
  0
DICTIONARY
  5
17
330
C
100
AcDbDictionary
  3
STANDARD
350
18
  0
DICTIONARY
  5
19
330
C
100
AcDbDictionary
  0
ENDSEC
  0
EOF
