  0
SECTION
  2
HEADER
  9
$ACADVER
  1
AC1014
  9
$HANDSEED
  5
FFFF
  9
$MEASUREMENT
 70
     1
  0
ENDSEC
  0
SECTION
  2
TABLES
  0
TABLE
  2
VPORT
  5
8
330
0
100
AcDbSymbolTable
 70
     4
  0
VPORT
  5
2E
330
8
100
AcDbSymbolTableRecord
100
AcDbViewportTableRecord
  2
*ACTIVE
 70
     0
 10
0.0
 20
0.0
 11
1.0
 21
1.0
 12
210.0
 22
148.5
 13
0.0
 23
0.0
 14
10.0
 24
10.0
 15
10.0
 25
10.0
 16
0.0
 26
0.0
 36
1.0
 17
0.0
 27
0.0
 37
0.0
 40
341.0
 41
1.24
 42
50.0
 43
0.0
 44
0.0
 50
0.0
 51
0.0
 71
     0
 72
   100
 73
     1
 74
     3
 75
     0
 76
     0
 77
     0
 78
     0
  0
ENDTAB
  0
TABLE
  2
LTYPE
  5
5
330
0
100
AcDbSymbolTable
 70
     1
  0
LTYPE
  5
14
330
5
100
AcDbSymbolTableRecord
100
AcDbLinetypeTableRecord
  2
BYBLOCK
 70
     0
  3

 72
    65
 73
     0
 40
0.0
  0
LTYPE
  5
15
330
5
100
AcDbSymbolTableRecord
100
AcDbLinetypeTableRecord
  2
BYLAYER
 70
     0
  3

 72
    65
 73
     0
 40
0.0
  0
LTYPE
  5
16
330
5
100
AcDbSymbolTableRecord
100
AcDbLinetypeTableRecord
  2
CONTINUOUS
 70
     0
  3
Solid line
 72
    65
 73
     0
 40
0.0
  0
ENDTAB
  0
TABLE
  2
LAYER
  5
2
100
AcDbSymbolTable
 70
2
  0
LAYER
  5
50
100
AcDbSymbolTableRecord
100
AcDbLayerTableRecord
  2
0
 70
0
  6
CONTINUOUS
  0
LAYER
  5
51
100
AcDbSymbolTableRecord
100
AcDbLayerTableRecord
  2
Layer_1
 70
0
  6
CONTINUOUS
  0
ENDTAB
  0
TABLE
  2
STYLE
  5
3
330
0
100
AcDbSymbolTable
 70
     1
  0
STYLE
  5
11
330
3
100
AcDbSymbolTableRecord
100
AcDbTextStyleTableRecord
  2
STANDARD
 70
     0
 40
0.0
 41
1.0
 50
0.0
 71
     0
 42
2.5
  3
txt
  4

  0
ENDTAB
  0
TABLE
  2
VIEW
  5
6
330
0
100
AcDbSymbolTable
 70
     0
  0
ENDTAB
  0
TABLE
  2
UCS
  5
7
330
0
100
AcDbSymbolTable
 70
     0
  0
ENDTAB
  0
TABLE
  2
APPID
  5
9
330
0
100
AcDbSymbolTable
 70
     2
  0
APPID
  5
12
330
9
100
AcDbSymbolTableRecord
100
AcDbRegAppTableRecord
  2
ACAD
 70
     0
  0
ENDTAB
  0
TABLE
  2
DIMSTYLE
  5
A
330
0
100
AcDbSymbolTable
 70
     1
  0
DIMSTYLE
105
27
330
A
100
AcDbSymbolTableRecord
100
AcDbDimStyleTableRecord
  2
ISO-25
 70
     0
  3

  4

  5

  6

  7

 40
1.0
 41
2.5
 42
0.625
 43
3.75
 44
1.25
 45
0.0
 46
0.0
 47
0.0
 48
0.0
140
2.5
141
2.5
142
0.0
143
0.03937007874016
144
1.0
145
0.0
146
1.0
147
0.625
 71
     0
 72
     0
 73
     0
 74
     0
 75
     0
 76
     0
 77
     1
 78
     8
170
     0
171
     3
172
     1
173
     0
174
     0
175
     0
176
     0
177
     0
178
     0
270
     2
271
     2
272
     2
273
     2
274
     3
340
11
275
     0
280
     0
281
     0
282
     0
283
     0
284
     8
285
     0
286
     0
287
     3
288
     0
  0
ENDTAB
  0
TABLE
  2
BLOCK_RECORD
  5
1
330
0
100
AcDbSymbolTable
 70
     1
  0
BLOCK_RECORD
  5
1F
330
1
100
AcDbSymbolTableRecord
100
AcDbBlockTableRecord
  2
*MODEL_SPACE
  0
BLOCK_RECORD
  5
1B
330
1
100
AcDbSymbolTableRecord
100
AcDbBlockTableRecord
  2
*PAPER_SPACE
  0
ENDTAB
  0
ENDSEC
  0
SECTION
  2
BLOCKS
  0
BLOCK
  5
20
330
1F
100
AcDbEntity
  8
0
100
AcDbBlockBegin
  2
*MODEL_SPACE
 70
     0
 10
0.0
 20
0.0
 30
0.0
  3
*MODEL_SPACE
  1

  0
ENDBLK
  5
21
330
1F
100
AcDbEntity
  8
0
100
AcDbBlockEnd
  0
BLOCK
  5
1C
330
1B
100
AcDbEntity
 67
     1
  8
0
100
AcDbBlockBegin
  2
*PAPER_SPACE
  1

  0
ENDBLK
  5
1D
330
1B
100
AcDbEntity
 67
     1
  8
0
100
AcDbBlockEnd
  0
ENDSEC
  0
SECTION
  2
ENTITIES
  0
SPLINE
  5
100
100
AcDbEntity
  8
Layer_1
 62
7
100
AcDbSpline
 70
8
 71
3
 72
8
 73
4
 74
0
 40
0
 40
0
 40
0
 40
0
 40
1
 40
1
 40
1
 40
1
 10
25.349556
 20
123.026184
 30
0.0
 10
25.349556
 20
121.841770
 30
0.0
 10
26.409827
 20
121.026186
 30
0.0
 10
27.599532
 20
121.026186
 30
0.0
  0
SPLINE
  5
101
100
AcDbEntity
  8
Layer_1
 62
7
100
AcDbSpline
 70
8
 71
3
 72
8
 73
4
 74
0
 40
0
 40
0
 40
0
 40
0
 40
1
 40
1
 40
1
 40
1
 10
27.599532
 20
121.026186
 30
0.0
 10
28.782852
 20
121.026186
 30
0.0
 10
29.849825
 20
121.842758
 30
0.0
 10
29.849543
 20
123.026184
 30
0.0
  0
LWPOLYLINE
  5
102
100
AcDbEntity
  8
Layer_1
 62
7
100
AcDbPolyline
 90
3
 70
0
 10
0.064308
 20
125.051582
 30
0.0
 10
25.349556
 20
125.050876
 30
0.0
 10
25.349556
 20
123.026184
 30
0.0
  0
SPLINE
  5
103
100
AcDbEntity
  8
Layer_1
 62
7
100
AcDbSpline
 70
8
 71
3
 72
8
 73
4
 74
0
 40
0
 40
0
 40
0
 40
0
 40
1
 40
1
 40
1
 40
1
 10
117.149300
 20
123.026184
 30
0.0
 10
117.146830
 20
121.958187
 30
0.0
 10
118.327998
 20
121.026186
 30
0.0
 10
119.399311
 20
121.026186
 30
0.0
  0
SPLINE
  5
104
100
AcDbEntity
  8
Layer_1
 62
7
100
AcDbSpline
 70
8
 71
3
 72
8
 73
4
 74
0
 40
0
 40
0
 40
0
 40
0
 40
1
 40
1
 40
1
 40
1
 10
119.399311
 20
121.026186
 30
0.0
 10
120.467413
 20
121.026186
 30
0.0
 10
121.640397
 20
121.958081
 30
0.0
 10
121.649287
 20
123.026184
 30
0.0
  0
LWPOLYLINE
  5
105
100
AcDbEntity
  8
Layer_1
 62
7
100
AcDbPolyline
 90
4
 70
0
 10
29.849543
 20
123.026184
 30
0.0
 10
29.848838
 20
125.051370
 30
0.0
 10
117.154415
 20
125.051758
 30
0.0
 10
117.149300
 20
123.026184
 30
0.0
  0
SPLINE
  5
106
100
AcDbEntity
  8
Layer_1
 62
7
100
AcDbSpline
 70
8
 71
3
 72
8
 73
4
 74
0
 40
0
 40
0
 40
0
 40
0
 40
1
 40
1
 40
1
 40
1
 10
202.904882
 20
123.025478
 30
0.0
 10
202.904599
 20
121.852283
 30
0.0
 10
203.970691
 20
121.026186
 30
0.0
 10
205.149107
 20
121.026186
 30
0.0
  0
SPLINE
  5
107
100
AcDbEntity
  8
Layer_1
 62
7
100
AcDbSpline
 70
8
 71
3
 72
8
 73
4
 74
0
 40
0
 40
0
 40
0
 40
0
 40
1
 40
1
 40
1
 40
1
 10
205.149107
 20
121.026186
 30
0.0
 10
206.327488
 20
121.026186
 30
0.0
 10
207.403281
 20
121.830376
 30
0.0
 10
207.403598
 20
123.008862
 30
0.0
  0
LWPOLYLINE
  5
108
100
AcDbEntity
  8
Layer_1
 62
7
100
AcDbPolyline
 90
4
 70
0
 10
121.649287
 20
123.026184
 30
0.0
 10
121.666220
 20
125.051158
 30
0.0
 10
202.905587
 20
125.051582
 30
0.0
 10
202.904882
 20
123.025478
 30
0.0
  0
SPLINE
  5
109
100
AcDbEntity
  8
Layer_1
 62
7
100
AcDbSpline
 70
8
 71
3
 72
8
 73
4
 74
0
 40
0
 40
0
 40
0
 40
0
 40
1
 40
1
 40
1
 40
1
 10
286.464392
 20
123.030770
 30
0.0
 10
286.464392
 20
121.855388
 30
0.0
 10
287.535987
 20
121.030772
 30
0.0
 10
288.714403
 20
121.030772
 30
0.0
  0
SPLINE
  5
10a
100
AcDbEntity
  8
Layer_1
 62
7
100
AcDbSpline
 70
8
 71
3
 72
8
 73
4
 74
0
 40
0
 40
0
 40
0
 40
0
 40
1
 40
1
 40
1
 40
1
 10
288.714403
 20
121.030772
 30
0.0
 10
289.892783
 20
121.030772
 30
0.0
 10
290.964379
 20
121.852283
 30
0.0
 10
290.964379
 20
123.030770
 30
0.0
  0
LWPOLYLINE
  5
10b
100
AcDbEntity
  8
Layer_1
 62
7
100
AcDbPolyline
 90
4
 70
0
 10
207.403598
 20
123.008862
 30
0.0
 10
207.404304
 20
125.050558
 30
0.0
 10
286.464392
 20
125.051582
 30
0.0
 10
286.464392
 20
123.030770
 30
0.0
  0
LWPOLYLINE
  5
10c
100
AcDbEntity
  8
Layer_1
 62
7
100
AcDbPolyline
 90
3
 70
0
 10
290.964379
 20
123.030770
 30
0.0
 10
290.964273
 20
125.051582
 30
0.0
 10
348.702949
 20
125.051582
 30
0.0
  0
LWPOLYLINE
  5
10d
100
AcDbEntity
  8
Layer_1
 62
7
100
AcDbPolyline
 90
6
 70
0
 10
348.702843
 20
125.022160
 30
0.0
 10
348.702949
 20
80.252268
 30
0.0
 10
343.252934
 20
80.252268
 30
0.0
 10
343.252934
 20
78.252270
 30
0.0
 10
348.702949
 20
78.267898
 30
0.0
 10
348.702737
 20
0.013482
 30
0.0
  0
SPLINE
  5
10e
100
AcDbEntity
  8
Layer_1
 62
7
100
AcDbSpline
 70
8
 71
3
 72
8
 73
4
 74
0
 40
0
 40
0
 40
0
 40
0
 40
1
 40
1
 40
1
 40
1
 10
290.177862
 20
2.538200
 30
0.0
 10
290.177862
 20
3.700494
 30
0.0
 10
289.072366
 20
4.542714
 30
0.0
 10
287.910177
 20
4.542714
 30
0.0
  0
SPLINE
  5
10f
100
AcDbEntity
  8
Layer_1
 62
7
100
AcDbSpline
 70
8
 71
3
 72
8
 73
4
 74
0
 40
0
 40
0
 40
0
 40
0
 40
1
 40
1
 40
1
 40
1
 10
287.910177
 20
4.542714
 30
0.0
 10
286.736171
 20
4.542714
 30
0.0
 10
285.660202
 20
3.708996
 30
0.0
 10
285.660202
 20
2.542716
 30
0.0
  0
LWPOLYLINE
  5
110
100
AcDbEntity
  8
Layer_1
 62
7
100
AcDbPolyline
 90
7
 70
0
 10
348.702737
 20
0.050382
 30
0.0
 10
329.892180
 20
0.051793
 30
0.0
 10
329.892180
 20
4.013407
 30
0.0
 10
327.942170
 20
4.013407
 30
0.0
 10
327.942170
 20
0.051793
 30
0.0
 10
290.177862
 20
0.038211
 30
0.0
 10
290.177862
 20
2.538200
 30
0.0
  0
SPLINE
  5
111
100
AcDbEntity
  8
Layer_1
 62
7
100
AcDbSpline
 70
8
 71
3
 72
8
 73
4
 74
0
 40
0
 40
0
 40
0
 40
0
 40
1
 40
1
 40
1
 40
1
 10
189.000851
 20
2.546596
 30
0.0
 10
189.000851
 20
3.735207
 30
0.0
 10
187.939345
 20
4.546594
 30
0.0
 10
186.750840
 20
4.546594
 30
0.0
  0
SPLINE
  5
112
100
AcDbEntity
  8
Layer_1
 62
7
100
AcDbSpline
 70
8
 71
3
 72
8
 73
4
 74
0
 40
0
 40
0
 40
0
 40
0
 40
1
 40
1
 40
1
 40
1
 10
186.750840
 20
4.546594
 30
0.0
 10
185.568332
 20
4.546594
 30
0.0
 10
184.531838
 20
3.716016
 30
0.0
 10
184.531838
 20
2.538094
 30
0.0
  0
LWPOLYLINE
  5
113
100
AcDbEntity
  8
Layer_1
 62
7
100
AcDbPolyline
 90
8
 70
0
 10
285.660202
 20
2.542716
 30
0.0
 10
285.660202
 20
0.042692
 30
0.0
 10
239.710306
 20
0.042692
 30
0.0
 10
239.710306
 20
4.042688
 30
0.0
 10
237.710308
 20
4.042688
 30
0.0
 10
237.710308
 20
0.042692
 30
0.0
 10
189.000851
 20
0.046608
 30
0.0
 10
189.000851
 20
2.546596
 30
0.0
  0
SPLINE
  5
114
100
AcDbEntity
  8
Layer_1
 62
7
100
AcDbSpline
 70
8
 71
3
 72
8
 73
4
 74
0
 40
0
 40
0
 40
0
 40
0
 40
1
 40
1
 40
1
 40
1
 10
78.277097
 20
2.544691
 30
0.0
 10
78.277097
 20
3.723213
 30
0.0
 10
77.205502
 20
4.544689
 30
0.0
 10
76.027121
 20
4.544689
 30
0.0
  0
SPLINE
  5
115
100
AcDbEntity
  8
Layer_1
 62
7
100
AcDbSpline
 70
8
 71
3
 72
8
 73
4
 74
0
 40
0
 40
0
 40
0
 40
0
 40
1
 40
1
 40
1
 40
1
 10
76.027121
 20
4.544689
 30
0.0
 10
74.848705
 20
4.544689
 30
0.0
 10
73.827134
 20
3.717498
 30
0.0
 10
73.827134
 20
2.544691
 30
0.0
  0
LWPOLYLINE
  5
116
100
AcDbEntity
  8
Layer_1
 62
7
100
AcDbPolyline
 90
12
 70
0
 10
184.531838
 20
2.538094
 30
0.0
 10
184.531838
 20
0.038106
 30
0.0
 10
151.976916
 20
0.044703
 30
0.0
 10
151.976916
 20
4.044699
 30
0.0
 10
149.976918
 20
4.044699
 30
0.0
 10
149.976918
 20
0.044703
 30
0.0
 10
112.977008
 20
0.044703
 30
0.0
 10
112.977008
 20
4.044699
 30
0.0
 10
110.977045
 20
4.044699
 30
0.0
 10
110.977045
 20
0.044703
 30
0.0
 10
78.277097
 20
0.044703
 30
0.0
 10
78.277097
 20
2.544691
 30
0.0
  0
LWPOLYLINE
  5
117
100
AcDbEntity
  8
Layer_1
 62
7
100
AcDbPolyline
 90
12
 70
0
 10
73.827134
 20
2.544691
 30
0.0
 10
73.827134
 20
0.044703
 30
0.0
 10
49.221581
 20
0.051793
 30
0.0
 10
49.221581
 20
4.012102
 30
0.0
 10
47.315104
 20
4.011890
 30
0.0
 10
47.299088
 20
0.051793
 30
0.0
 10
0.065120
 20
0.050382
 30
0.0
 10
0.038097
 20
52.471335
 30
0.0
 10
5.538100
 20
52.471335
 30
0.0
 10
5.538100
 20
54.471333
 30
0.0
 10
0.038097
 20
54.471333
 30
0.0
 10
0.064308
 20
125.051582
 30
0.0
  0
LWPOLYLINE
  5
118
100
AcDbEntity
  8
Layer_1
 62
7
100
AcDbPolyline
 90
4
 70
1
 10
3.065311
 20
119.553871
 30
0.0
 10
17.066179
 20
119.553871
 30
0.0
 10
17.066179
 20
105.552897
 30
0.0
 10
3.065311
 20
105.552897
 30
0.0
  0
LWPOLYLINE
  5
119
100
AcDbEntity
  8
Layer_1
 62
7
100
AcDbPolyline
 90
4
 70
1
 10
3.065311
 20
95.741255
 30
0.0
 10
17.066179
 20
95.741255
 30
0.0
 10
17.066179
 20
81.741974
 30
0.0
 10
3.065311
 20
81.741974
 30
0.0
  0
LWPOLYLINE
  5
11a
100
AcDbEntity
  8
Layer_1
 62
7
100
AcDbPolyline
 90
4
 70
1
 10
5.446484
 20
19.541517
 30
0.0
 10
19.445976
 20
19.541517
 30
0.0
 10
19.445976
 20
5.542060
 30
0.0
 10
5.446484
 20
5.542060
 30
0.0
  0
LWPOLYLINE
  5
11b
100
AcDbEntity
  8
Layer_1
 62
7
100
AcDbPolyline
 90
4
 70
1
 10
7.829174
 20
76.689892
 30
0.0
 10
21.828667
 20
76.689892
 30
0.0
 10
21.828667
 20
62.690611
 30
0.0
 10
7.829174
 20
62.690611
 30
0.0
  0
LWPOLYLINE
  5
11c
100
AcDbEntity
  8
Layer_1
 62
7
100
AcDbPolyline
 90
4
 70
1
 10
10.208972
 20
57.639940
 30
0.0
 10
24.209840
 20
57.639940
 30
0.0
 10
24.209840
 20
43.640659
 30
0.0
 10
10.208972
 20
43.640659
 30
0.0
  0
LWPOLYLINE
  5
11d
100
AcDbEntity
  8
Layer_1
 62
7
100
AcDbPolyline
 90
4
 70
1
 10
22.115263
 20
95.741255
 30
0.0
 10
36.115919
 20
95.741255
 30
0.0
 10
36.115919
 20
81.741974
 30
0.0
 10
22.115263
 20
81.741974
 30
0.0
  0
LWPOLYLINE
  5
11e
100
AcDbEntity
  8
Layer_1
 62
7
100
AcDbPolyline
 90
4
 70
1
 10
29.258924
 20
19.541517
 30
0.0
 10
43.259686
 20
19.541517
 30
0.0
 10
43.259686
 20
5.542060
 30
0.0
 10
29.258924
 20
5.542060
 30
0.0
  0
LWPOLYLINE
  5
11f
100
AcDbEntity
  8
Layer_1
 62
7
100
AcDbPolyline
 90
4
 70
1
 10
31.640239
 20
76.689892
 30
0.0
 10
45.640895
 20
76.689892
 30
0.0
 10
45.640895
 20
62.690611
 30
0.0
 10
31.640239
 20
62.690611
 30
0.0
  0
LWPOLYLINE
  5
120
100
AcDbEntity
  8
Layer_1
 62
7
100
AcDbPolyline
 90
4
 70
1
 10
36.402833
 20
57.639940
 30
0.0
 10
50.401972
 20
57.639940
 30
0.0
 10
50.401972
 20
43.640659
 30
0.0
 10
36.402833
 20
43.640659
 30
0.0
  0
LWPOLYLINE
  5
121
100
AcDbEntity
  8
Layer_1
 62
7
100
AcDbPolyline
 90
4
 70
1
 10
41.165321
 20
119.553871
 30
0.0
 10
55.165871
 20
119.553871
 30
0.0
 10
55.165871
 20
105.552897
 30
0.0
 10
41.165321
 20
105.552897
 30
0.0
  0
LWPOLYLINE
  5
122
100
AcDbEntity
  8
Layer_1
 62
7
100
AcDbPolyline
 90
4
 70
1
 10
41.165321
 20
95.741255
 30
0.0
 10
55.165871
 20
95.741255
 30
0.0
 10
55.165871
 20
81.741974
 30
0.0
 10
41.165321
 20
81.741974
 30
0.0
  0
LWPOLYLINE
  5
123
100
AcDbEntity
  8
Layer_1
 62
7
100
AcDbPolyline
 90
4
 70
1
 10
45.929184
 20
38.591399
 30
0.0
 10
59.928359
 20
38.591399
 30
0.0
 10
59.928359
 20
24.592012
 30
0.0
 10
45.929184
 20
24.592012
 30
0.0
  0
LWPOLYLINE
  5
124
100
AcDbEntity
  8
Layer_1
 62
7
100
AcDbPolyline
 90
4
 70
1
 10
50.690297
 20
76.689892
 30
0.0
 10
64.690847
 20
76.689892
 30
0.0
 10
64.690847
 20
62.690611
 30
0.0
 10
50.690297
 20
62.690611
 30
0.0
  0
LWPOLYLINE
  5
125
100
AcDbEntity
  8
Layer_1
 62
7
100
AcDbPolyline
 90
4
 70
1
 10
53.071470
 20
19.541517
 30
0.0
 10
67.070751
 20
19.541517
 30
0.0
 10
67.070751
 20
5.542060
 30
0.0
 10
53.071470
 20
5.542060
 30
0.0
  0
LWPOLYLINE
  5
126
100
AcDbEntity
  8
Layer_1
 62
7
100
AcDbPolyline
 90
4
 70
1
 10
55.452785
 20
57.639940
 30
0.0
 10
69.451924
 20
57.639940
 30
0.0
 10
69.451924
 20
43.640659
 30
0.0
 10
55.452785
 20
43.640659
 30
0.0
  0
LWPOLYLINE
  5
127
100
AcDbEntity
  8
Layer_1
 62
7
100
AcDbPolyline
 90
4
 70
1
 10
60.215273
 20
119.553871
 30
0.0
 10
74.215823
 20
119.553871
 30
0.0
 10
74.215823
 20
105.552897
 30
0.0
 10
60.215273
 20
105.552897
 30
0.0
  0
LWPOLYLINE
  5
128
100
AcDbEntity
  8
Layer_1
 62
7
100
AcDbPolyline
 90
4
 70
1
 10
60.215273
 20
95.741255
 30
0.0
 10
74.215823
 20
95.741255
 30
0.0
 10
74.215823
 20
81.741974
 30
0.0
 10
60.215273
 20
81.741974
 30
0.0
  0
LWPOLYLINE
  5
129
100
AcDbEntity
  8
Layer_1
 62
7
100
AcDbPolyline
 90
4
 70
1
 10
64.979136
 20
38.591399
 30
0.0
 10
78.978311
 20
38.591399
 30
0.0
 10
78.978311
 20
24.592012
 30
0.0
 10
64.979136
 20
24.592012
 30
0.0
  0
LWPOLYLINE
  5
12a
100
AcDbEntity
  8
Layer_1
 62
7
100
AcDbPolyline
 90
4
 70
1
 10
69.740249
 20
76.689892
 30
0.0
 10
83.740799
 20
76.689892
 30
0.0
 10
83.740799
 20
62.690611
 30
0.0
 10
69.740249
 20
62.690611
 30
0.0
  0
LWPOLYLINE
  5
12b
100
AcDbEntity
  8
Layer_1
 62
7
100
AcDbPolyline
 90
4
 70
1
 10
74.502737
 20
57.639940
 30
0.0
 10
88.501876
 20
57.639940
 30
0.0
 10
88.501876
 20
43.640659
 30
0.0
 10
74.502737
 20
43.640659
 30
0.0
  0
LWPOLYLINE
  5
12c
100
AcDbEntity
  8
Layer_1
 62
7
100
AcDbPolyline
 90
4
 70
1
 10
79.265225
 20
119.553871
 30
0.0
 10
93.265881
 20
119.553871
 30
0.0
 10
93.265881
 20
105.552897
 30
0.0
 10
79.265225
 20
105.552897
 30
0.0
  0
LWPOLYLINE
  5
12d
100
AcDbEntity
  8
Layer_1
 62
7
100
AcDbPolyline
 90
4
 70
1
 10
79.265225
 20
95.741255
 30
0.0
 10
93.265881
 20
95.741255
 30
0.0
 10
93.265881
 20
81.741974
 30
0.0
 10
79.265225
 20
81.741974
 30
0.0
  0
LWPOLYLINE
  5
12e
100
AcDbEntity
  8
Layer_1
 62
7
100
AcDbPolyline
 90
4
 70
1
 10
84.027713
 20
38.591399
 30
0.0
 10
98.026852
 20
38.591399
 30
0.0
 10
98.026852
 20
24.592012
 30
0.0
 10
84.027713
 20
24.592012
 30
0.0
  0
LWPOLYLINE
  5
12f
100
AcDbEntity
  8
Layer_1
 62
7
100
AcDbPolyline
 90
4
 70
1
 10
88.790201
 20
76.689892
 30
0.0
 10
102.790540
 20
76.689892
 30
0.0
 10
102.790540
 20
62.690611
 30
0.0
 10
88.790201
 20
62.690611
 30
0.0
  0
LWPOLYLINE
  5
130
100
AcDbEntity
  8
Layer_1
 62
7
100
AcDbPolyline
 90
4
 70
1
 10
93.552689
 20
57.639940
 30
0.0
 10
107.551546
 20
57.639940
 30
0.0
 10
107.551546
 20
43.640659
 30
0.0
 10
93.552689
 20
43.640659
 30
0.0
  0
LWPOLYLINE
  5
131
100
AcDbEntity
  8
Layer_1
 62
7
100
AcDbPolyline
 90
4
 70
1
 10
98.315177
 20
119.553871
 30
0.0
 10
112.315516
 20
119.553871
 30
0.0
 10
112.315516
 20
105.552897
 30
0.0
 10
98.315177
 20
105.552897
 30
0.0
  0
LWPOLYLINE
  5
132
100
AcDbEntity
  8
Layer_1
 62
7
100
AcDbPolyline
 90
4
 70
1
 10
98.315177
 20
95.741255
 30
0.0
 10
112.315516
 20
95.741255
 30
0.0
 10
112.315516
 20
81.741974
 30
0.0
 10
98.315177
 20
81.741974
 30
0.0
  0
LWPOLYLINE
  5
133
100
AcDbEntity
  8
Layer_1
 62
7
100
AcDbPolyline
 90
4
 70
1
 10
103.077559
 20
38.591399
 30
0.0
 10
117.076522
 20
38.591399
 30
0.0
 10
117.076522
 20
24.592012
 30
0.0
 10
103.077559
 20
24.592012
 30
0.0
  0
LWPOLYLINE
  5
134
100
AcDbEntity
  8
Layer_1
 62
7
100
AcDbPolyline
 90
4
 70
1
 10
107.840541
 20
76.689892
 30
0.0
 10
121.840492
 20
76.689892
 30
0.0
 10
121.840492
 20
62.690611
 30
0.0
 10
107.840541
 20
62.690611
 30
0.0
  0
LWPOLYLINE
  5
135
100
AcDbEntity
  8
Layer_1
 62
7
100
AcDbPolyline
 90
4
 70
1
 10
112.602535
 20
57.639940
 30
0.0
 10
126.601498
 20
57.639940
 30
0.0
 10
126.601498
 20
43.640659
 30
0.0
 10
112.602535
 20
43.640659
 30
0.0
  0
LWPOLYLINE
  5
136
100
AcDbEntity
  8
Layer_1
 62
7
100
AcDbPolyline
 90
4
 70
1
 10
117.365517
 20
95.741255
 30
0.0
 10
131.365468
 20
95.741255
 30
0.0
 10
131.365468
 20
81.741974
 30
0.0
 10
117.365517
 20
81.741974
 30
0.0
  0
LWPOLYLINE
  5
137
100
AcDbEntity
  8
Layer_1
 62
7
100
AcDbPolyline
 90
4
 70
1
 10
122.128499
 20
38.591399
 30
0.0
 10
136.128450
 20
38.591399
 30
0.0
 10
136.128450
 20
24.592012
 30
0.0
 10
122.128499
 20
24.592012
 30
0.0
  0
LWPOLYLINE
  5
138
100
AcDbEntity
  8
Layer_1
 62
7
100
AcDbPolyline
 90
4
 70
1
 10
126.890493
 20
119.553871
 30
0.0
 10
140.890444
 20
119.553871
 30
0.0
 10
140.890444
 20
105.552897
 30
0.0
 10
126.890493
 20
105.552897
 30
0.0
  0
LWPOLYLINE
  5
139
100
AcDbEntity
  8
Layer_1
 62
7
100
AcDbPolyline
 90
4
 70
1
 10
126.890493
 20
76.689892
 30
0.0
 10
140.890444
 20
76.689892
 30
0.0
 10
140.890444
 20
62.690611
 30
0.0
 10
126.890493
 20
62.690611
 30
0.0
  0
LWPOLYLINE
  5
13a
100
AcDbEntity
  8
Layer_1
 62
7
100
AcDbPolyline
 90
4
 70
1
 10
131.652487
 20
57.639940
 30
0.0
 10
145.651450
 20
57.639940
 30
0.0
 10
145.651450
 20
43.640659
 30
0.0
 10
131.652487
 20
43.640659
 30
0.0
  0
LWPOLYLINE
  5
13b
100
AcDbEntity
  8
Layer_1
 62
7
100
AcDbPolyline
 90
4
 70
1
 10
136.415469
 20
95.741255
 30
0.0
 10
150.415420
 20
95.741255
 30
0.0
 10
150.415420
 20
81.741974
 30
0.0
 10
136.415469
 20
81.741974
 30
0.0
  0
LWPOLYLINE
  5
13c
100
AcDbEntity
  8
Layer_1
 62
7
100
AcDbPolyline
 90
4
 70
1
 10
141.178451
 20
38.591399
 30
0.0
 10
155.178402
 20
38.591399
 30
0.0
 10
155.178402
 20
24.592012
 30
0.0
 10
141.178451
 20
24.592012
 30
0.0
  0
LWPOLYLINE
  5
13d
100
AcDbEntity
  8
Layer_1
 62
7
100
AcDbPolyline
 90
4
 70
1
 10
145.940445
 20
119.553871
 30
0.0
 10
159.940396
 20
119.553871
 30
0.0
 10
159.940396
 20
105.552897
 30
0.0
 10
145.940445
 20
105.552897
 30
0.0
  0
LWPOLYLINE
  5
13e
100
AcDbEntity
  8
Layer_1
 62
7
100
AcDbPolyline
 90
4
 70
1
 10
145.940445
 20
76.689892
 30
0.0
 10
159.940396
 20
76.689892
 30
0.0
 10
159.940396
 20
62.690611
 30
0.0
 10
145.940445
 20
62.690611
 30
0.0
  0
LWPOLYLINE
  5
13f
100
AcDbEntity
  8
Layer_1
 62
7
100
AcDbPolyline
 90
4
 70
1
 10
150.702439
 20
57.639940
 30
0.0
 10
164.701402
 20
57.639940
 30
0.0
 10
164.701402
 20
43.640659
 30
0.0
 10
150.702439
 20
43.640659
 30
0.0
  0
LWPOLYLINE
  5
140
100
AcDbEntity
  8
Layer_1
 62
7
100
AcDbPolyline
 90
4
 70
1
 10
155.465421
 20
95.741255
 30
0.0
 10
169.465372
 20
95.741255
 30
0.0
 10
169.465372
 20
81.741974
 30
0.0
 10
155.465421
 20
81.741974
 30
0.0
  0
LWPOLYLINE
  5
141
100
AcDbEntity
  8
Layer_1
 62
7
100
AcDbPolyline
 90
4
 70
1
 10
160.228403
 20
38.591399
 30
0.0
 10
174.228354
 20
38.591399
 30
0.0
 10
174.228354
 20
24.592012
 30
0.0
 10
160.228403
 20
24.592012
 30
0.0
  0
LWPOLYLINE
  5
142
100
AcDbEntity
  8
Layer_1
 62
7
100
AcDbPolyline
 90
4
 70
1
 10
164.990397
 20
119.553871
 30
0.0
 10
178.990348
 20
119.553871
 30
0.0
 10
178.990348
 20
105.552897
 30
0.0
 10
164.990397
 20
105.552897
 30
0.0
  0
LWPOLYLINE
  5
143
100
AcDbEntity
  8
Layer_1
 62
7
100
AcDbPolyline
 90
4
 70
1
 10
164.990397
 20
76.689892
 30
0.0
 10
178.990348
 20
76.689892
 30
0.0
 10
178.990348
 20
62.690611
 30
0.0
 10
164.990397
 20
62.690611
 30
0.0
  0
LWPOLYLINE
  5
144
100
AcDbEntity
  8
Layer_1
 62
7
100
AcDbPolyline
 90
4
 70
1
 10
169.753379
 20
57.639940
 30
0.0
 10
183.753330
 20
57.639940
 30
0.0
 10
183.753330
 20
43.640659
 30
0.0
 10
169.753379
 20
43.640659
 30
0.0
  0
LWPOLYLINE
  5
145
100
AcDbEntity
  8
Layer_1
 62
7
100
AcDbPolyline
 90
4
 70
1
 10
174.515373
 20
95.741255
 30
0.0
 10
188.515324
 20
95.741255
 30
0.0
 10
188.515324
 20
81.741974
 30
0.0
 10
174.515373
 20
81.741974
 30
0.0
  0
LWPOLYLINE
  5
146
100
AcDbEntity
  8
Layer_1
 62
7
100
AcDbPolyline
 90
4
 70
1
 10
179.278355
 20
38.591399
 30
0.0
 10
193.278306
 20
38.591399
 30
0.0
 10
193.278306
 20
24.592012
 30
0.0
 10
179.278355
 20
24.592012
 30
0.0
  0
LWPOLYLINE
  5
147
100
AcDbEntity
  8
Layer_1
 62
7
100
AcDbPolyline
 90
4
 70
1
 10
184.040349
 20
119.553871
 30
0.0
 10
198.040300
 20
119.553871
 30
0.0
 10
198.040300
 20
105.552897
 30
0.0
 10
184.040349
 20
105.552897
 30
0.0
  0
LWPOLYLINE
  5
148
100
AcDbEntity
  8
Layer_1
 62
7
100
AcDbPolyline
 90
4
 70
1
 10
184.040349
 20
76.689892
 30
0.0
 10
198.040300
 20
76.689892
 30
0.0
 10
198.040300
 20
62.690611
 30
0.0
 10
184.040349
 20
62.690611
 30
0.0
  0
LWPOLYLINE
  5
149
100
AcDbEntity
  8
Layer_1
 62
7
100
AcDbPolyline
 90
4
 70
1
 10
188.803331
 20
57.639940
 30
0.0
 10
202.803282
 20
57.639940
 30
0.0
 10
202.803282
 20
43.640659
 30
0.0
 10
188.803331
 20
43.640659
 30
0.0
  0
LWPOLYLINE
  5
14a
100
AcDbEntity
  8
Layer_1
 62
7
100
AcDbPolyline
 90
4
 70
1
 10
193.565325
 20
95.741255
 30
0.0
 10
207.565276
 20
95.741255
 30
0.0
 10
207.565276
 20
81.741974
 30
0.0
 10
193.565325
 20
81.741974
 30
0.0
  0
LWPOLYLINE
  5
14b
100
AcDbEntity
  8
Layer_1
 62
7
100
AcDbPolyline
 90
4
 70
1
 10
195.946322
 20
19.541517
 30
0.0
 10
209.945285
 20
19.541517
 30
0.0
 10
209.945285
 20
5.542060
 30
0.0
 10
195.946322
 20
5.542060
 30
0.0
  0
LWPOLYLINE
  5
14c
100
AcDbEntity
  8
Layer_1
 62
7
100
AcDbPolyline
 90
4
 70
1
 10
198.328307
 20
38.591399
 30
0.0
 10
212.328258
 20
38.591399
 30
0.0
 10
212.328258
 20
24.592012
 30
0.0
 10
198.328307
 20
24.592012
 30
0.0
  0
LWPOLYLINE
  5
14d
100
AcDbEntity
  8
Layer_1
 62
7
100
AcDbPolyline
 90
4
 70
1
 10
203.090301
 20
76.689892
 30
0.0
 10
217.090252
 20
76.689892
 30
0.0
 10
217.090252
 20
62.690611
 30
0.0
 10
203.090301
 20
62.690611
 30
0.0
  0
LWPOLYLINE
  5
14e
100
AcDbEntity
  8
Layer_1
 62
7
100
AcDbPolyline
 90
4
 70
1
 10
207.853283
 20
57.639940
 30
0.0
 10
221.853234
 20
57.639940
 30
0.0
 10
221.853234
 20
43.640659
 30
0.0
 10
207.853283
 20
43.640659
 30
0.0
  0
LWPOLYLINE
  5
14f
100
AcDbEntity
  8
Layer_1
 62
7
100
AcDbPolyline
 90
4
 70
1
 10
212.615277
 20
119.553871
 30
0.0
 10
226.615228
 20
119.553871
 30
0.0
 10
226.615228
 20
105.552897
 30
0.0
 10
212.615277
 20
105.552897
 30
0.0
  0
LWPOLYLINE
  5
150
100
AcDbEntity
  8
Layer_1
 62
7
100
AcDbPolyline
 90
4
 70
1
 10
212.615277
 20
95.741255
 30
0.0
 10
226.615228
 20
95.741255
 30
0.0
 10
226.615228
 20
81.741974
 30
0.0
 10
212.615277
 20
81.741974
 30
0.0
  0
LWPOLYLINE
  5
151
100
AcDbEntity
  8
Layer_1
 62
7
100
AcDbPolyline
 90
4
 70
1
 10
217.378259
 20
38.591399
 30
0.0
 10
231.378210
 20
38.591399
 30
0.0
 10
231.378210
 20
24.592012
 30
0.0
 10
217.378259
 20
24.592012
 30
0.0
  0
LWPOLYLINE
  5
152
100
AcDbEntity
  8
Layer_1
 62
7
100
AcDbPolyline
 90
4
 70
1
 10
219.758268
 20
19.541517
 30
0.0
 10
233.759207
 20
19.541517
 30
0.0
 10
233.759207
 20
5.542060
 30
0.0
 10
219.758268
 20
5.542060
 30
0.0
  0
LWPOLYLINE
  5
153
100
AcDbEntity
  8
Layer_1
 62
7
100
AcDbPolyline
 90
4
 70
1
 10
222.140253
 20
76.689892
 30
0.0
 10
236.140204
 20
76.689892
 30
0.0
 10
236.140204
 20
62.690611
 30
0.0
 10
222.140253
 20
62.690611
 30
0.0
  0
LWPOLYLINE
  5
154
100
AcDbEntity
  8
Layer_1
 62
7
100
AcDbPolyline
 90
4
 70
1
 10
226.903235
 20
57.639940
 30
0.0
 10
240.903186
 20
57.639940
 30
0.0
 10
240.903186
 20
43.640659
 30
0.0
 10
226.903235
 20
43.640659
 30
0.0
  0
LWPOLYLINE
  5
155
100
AcDbEntity
  8
Layer_1
 62
7
100
AcDbPolyline
 90
4
 70
1
 10
231.665229
 20
119.553871
 30
0.0
 10
245.665180
 20
119.553871
 30
0.0
 10
245.665180
 20
105.552897
 30
0.0
 10
231.665229
 20
105.552897
 30
0.0
  0
LWPOLYLINE
  5
156
100
AcDbEntity
  8
Layer_1
 62
7
100
AcDbPolyline
 90
4
 70
1
 10
231.665229
 20
95.741255
 30
0.0
 10
245.665180
 20
95.741255
 30
0.0
 10
245.665180
 20
81.741974
 30
0.0
 10
231.665229
 20
81.741974
 30
0.0
  0
LWPOLYLINE
  5
157
100
AcDbEntity
  8
Layer_1
 62
7
100
AcDbPolyline
 90
4
 70
1
 10
241.190205
 20
76.689892
 30
0.0
 10
255.190156
 20
76.689892
 30
0.0
 10
255.190156
 20
62.690611
 30
0.0
 10
241.190205
 20
62.690611
 30
0.0
  0
LWPOLYLINE
  5
158
100
AcDbEntity
  8
Layer_1
 62
7
100
AcDbPolyline
 90
4
 70
1
 10
243.571202
 20
19.541517
 30
0.0
 10
257.570165
 20
19.541517
 30
0.0
 10
257.570165
 20
5.542060
 30
0.0
 10
243.571202
 20
5.542060
 30
0.0
  0
LWPOLYLINE
  5
159
100
AcDbEntity
  8
Layer_1
 62
7
100
AcDbPolyline
 90
4
 70
1
 10
250.715181
 20
119.553871
 30
0.0
 10
264.715132
 20
119.553871
 30
0.0
 10
264.715132
 20
105.552897
 30
0.0
 10
250.715181
 20
105.552897
 30
0.0
  0
LWPOLYLINE
  5
15a
100
AcDbEntity
  8
Layer_1
 62
7
100
AcDbPolyline
 90
4
 70
1
 10
265.003139
 20
76.689892
 30
0.0
 10
279.003090
 20
76.689892
 30
0.0
 10
279.003090
 20
62.690611
 30
0.0
 10
265.003139
 20
62.690611
 30
0.0
  0
LWPOLYLINE
  5
15b
100
AcDbEntity
  8
Layer_1
 62
7
100
AcDbPolyline
 90
4
 70
1
 10
267.383148
 20
19.541517
 30
0.0
 10
281.384087
 20
19.541517
 30
0.0
 10
281.384087
 20
5.542060
 30
0.0
 10
267.383148
 20
5.542060
 30
0.0
  0
LWPOLYLINE
  5
15c
100
AcDbEntity
  8
Layer_1
 62
7
100
AcDbPolyline
 90
4
 70
1
 10
269.765133
 20
119.553871
 30
0.0
 10
283.765084
 20
119.553871
 30
0.0
 10
283.765084
 20
105.552897
 30
0.0
 10
269.765133
 20
105.552897
 30
0.0
  0
LWPOLYLINE
  5
15d
100
AcDbEntity
  8
Layer_1
 62
7
100
AcDbPolyline
 90
4
 70
1
 10
293.578067
 20
95.741255
 30
0.0
 10
307.578018
 20
95.741255
 30
0.0
 10
307.578018
 20
81.741974
 30
0.0
 10
293.578067
 20
81.741974
 30
0.0
  0
LWPOLYLINE
  5
15e
100
AcDbEntity
  8
Layer_1
 62
7
100
AcDbPolyline
 90
4
 70
1
 10
293.578067
 20
19.541517
 30
0.0
 10
307.578018
 20
19.541517
 30
0.0
 10
307.578018
 20
5.542060
 30
0.0
 10
293.578067
 20
5.542060
 30
0.0
  0
LWPOLYLINE
  5
15f
100
AcDbEntity
  8
Layer_1
 62
7
100
AcDbPolyline
 90
4
 70
1
 10
293.578067
 20
119.553871
 30
0.0
 10
307.578018
 20
119.553871
 30
0.0
 10
307.578018
 20
105.552897
 30
0.0
 10
293.578067
 20
105.552897
 30
0.0
  0
LWPOLYLINE
  5
160
100
AcDbEntity
  8
Layer_1
 62
7
100
AcDbPolyline
 90
4
 70
1
 10
293.578067
 20
76.689892
 30
0.0
 10
307.578018
 20
76.689892
 30
0.0
 10
307.578018
 20
62.690611
 30
0.0
 10
293.578067
 20
62.690611
 30
0.0
  0
LWPOLYLINE
  5
161
100
AcDbEntity
  8
Layer_1
 62
7
100
AcDbPolyline
 90
4
 70
1
 10
312.628019
 20
95.741255
 30
0.0
 10
326.627970
 20
95.741255
 30
0.0
 10
326.627970
 20
81.741974
 30
0.0
 10
312.628019
 20
81.741974
 30
0.0
  0
LWPOLYLINE
  5
162
100
AcDbEntity
  8
Layer_1
 62
7
100
AcDbPolyline
 90
4
 70
1
 10
312.628019
 20
19.541517
 30
0.0
 10
326.627970
 20
19.541517
 30
0.0
 10
326.627970
 20
5.542060
 30
0.0
 10
312.628019
 20
5.542060
 30
0.0
  0
LWPOLYLINE
  5
163
100
AcDbEntity
  8
Layer_1
 62
7
100
AcDbPolyline
 90
4
 70
1
 10
312.628019
 20
119.553871
 30
0.0
 10
326.627970
 20
119.553871
 30
0.0
 10
326.627970
 20
105.552897
 30
0.0
 10
312.628019
 20
105.552897
 30
0.0
  0
LWPOLYLINE
  5
164
100
AcDbEntity
  8
Layer_1
 62
7
100
AcDbPolyline
 90
4
 70
1
 10
312.628019
 20
76.689892
 30
0.0
 10
326.627970
 20
76.689892
 30
0.0
 10
326.627970
 20
62.690611
 30
0.0
 10
312.628019
 20
62.690611
 30
0.0
  0
LWPOLYLINE
  5
165
100
AcDbEntity
  8
Layer_1
 62
7
100
AcDbPolyline
 90
4
 70
1
 10
312.628019
 20
38.591399
 30
0.0
 10
326.627970
 20
38.591399
 30
0.0
 10
326.627970
 20
24.592012
 30
0.0
 10
312.628019
 20
24.592012
 30
0.0
  0
LWPOLYLINE
  5
166
100
AcDbEntity
  8
Layer_1
 62
7
100
AcDbPolyline
 90
4
 70
1
 10
331.677971
 20
95.741255
 30
0.0
 10
345.677922
 20
95.741255
 30
0.0
 10
345.677922
 20
81.741974
 30
0.0
 10
331.677971
 20
81.741974
 30
0.0
  0
LWPOLYLINE
  5
167
100
AcDbEntity
  8
Layer_1
 62
7
100
AcDbPolyline
 90
4
 70
1
 10
331.677971
 20
19.541517
 30
0.0
 10
345.677922
 20
19.541517
 30
0.0
 10
345.677922
 20
5.542060
 30
0.0
 10
331.677971
 20
5.542060
 30
0.0
  0
LWPOLYLINE
  5
168
100
AcDbEntity
  8
Layer_1
 62
7
100
AcDbPolyline
 90
4
 70
1
 10
331.677971
 20
119.553871
 30
0.0
 10
345.677922
 20
119.553871
 30
0.0
 10
345.677922
 20
105.552897
 30
0.0
 10
331.677971
 20
105.552897
 30
0.0
  0
LWPOLYLINE
  5
169
100
AcDbEntity
  8
Layer_1
 62
7
100
AcDbPolyline
 90
4
 70
1
 10
331.677971
 20
76.689892
 30
0.0
 10
345.677922
 20
76.689892
 30
0.0
 10
345.677922
 20
62.690611
 30
0.0
 10
331.677971
 20
62.690611
 30
0.0
  0
LWPOLYLINE
  5
16a
100
AcDbEntity
  8
Layer_1
 62
7
100
AcDbPolyline
 90
36
 70
1
 10
37.188502
 20
31.070795
 30
0.0
 10
37.188502
 20
24.800715
 30
0.0
 10
35.563612
 20
24.800715
 30
0.0
 10
35.563612
 20
23.600427
 30
0.0
 10
32.263313
 20
23.600427
 30
0.0
 10
32.263313
 20
24.800715
 30
0.0
 10
30.538023
 20
24.800715
 30
0.0
 10
30.538023
 20
25.601307
 30
0.0
 10
28.964320
 20
25.601307
 30
0.0
 10
28.964320
 20
24.570634
 30
0.0
 10
14.963487
 20
24.570634
 30
0.0
 10
14.963487
 20
25.601307
 30
0.0
 10
13.388374
 20
25.601307
 30
0.0
 10
13.388374
 20
24.800715
 30
0.0
 10
11.663083
 20
24.800715
 30
0.0
 10
11.663083
 20
23.600427
 30
0.0
 10
8.364090
 20
23.600427
 30
0.0
 10
8.364090
 20
24.800715
 30
0.0
 10
6.739376
 20
24.800715
 30
0.0
 10
6.739376
 20
31.070795
 30
0.0
 10
5.864278
 20
31.070795
 30
0.0
 10
5.864278
 20
33.870997
 30
0.0
 10
6.739376
 20
33.870997
 30
0.0
 10
6.739376
 20
37.101093
 30
0.0
 10
13.388374
 20
37.101093
 30
0.0
 10
13.388374
 20
36.300289
 30
0.0
 10
14.963487
 20
36.300289
 30
0.0
 10
14.963487
 20
38.571396
 30
0.0
 10
28.964320
 20
38.571396
 30
0.0
 10
28.964320
 20
36.300289
 30
0.0
 10
30.538023
 20
36.300289
 30
0.0
 10
30.538023
 20
37.101093
 30
0.0
 10
37.188502
 20
37.101093
 30
0.0
 10
37.188502
 20
33.870997
 30
0.0
 10
38.063424
 20
33.870997
 30
0.0
 10
38.063424
 20
31.070795
 30
0.0
  0
LWPOLYLINE
  5
16b
100
AcDbEntity
  8
Layer_1
 62
7
100
AcDbPolyline
 90
11
 70
0
 10
184.826548
 20
12.020843
 30
0.0
 10
184.826548
 20
5.750763
 30
0.0
 10
183.151563
 20
5.750763
 30
0.0
 10
183.151563
 20
4.550475
 30
0.0
 10
179.850559
 20
4.550475
 30
0.0
 10
179.850559
 20
5.750763
 30
0.0
 10
178.176562
 20
5.750763
 30
0.0
 10
178.160052
 20
11.968138
 30
0.0
 10
177.346654
 20
11.975335
 30
0.0
 10
177.355474
 20
14.818928
 30
0.0
 10
178.176562
 20
14.821045
 30
0.0
  0
LWPOLYLINE
  5
16c
100
AcDbEntity
  8
Layer_1
 62
7
100
AcDbPolyline
 90
4
 70
0
 10
138.501650
 20
19.521444
 30
0.0
 10
138.501650
 20
5.520682
 30
0.0
 10
124.501699
 20
5.520682
 30
0.0
 10
124.501699
 20
19.521444
 30
0.0
  0
LWPOLYLINE
  5
16d
100
AcDbEntity
  8
Layer_1
 62
7
100
AcDbPolyline
 90
16
 70
1
 10
84.827105
 20
14.821045
 30
0.0
 10
85.653697
 20
14.821256
 30
0.0
 10
85.659588
 20
12.012659
 30
0.0
 10
84.827105
 20
12.009060
 30
0.0
 10
84.827105
 20
5.750763
 30
0.0
 10
83.151485
 20
5.750763
 30
0.0
 10
83.151485
 20
4.550475
 30
0.0
 10
79.850905
 20
4.550475
 30
0.0
 10
79.850905
 20
5.750763
 30
0.0
 10
78.176626
 20
5.750763
 30
0.0
 10
78.176626
 20
12.020843
 30
0.0
 10
77.301704
 20
12.020843
 30
0.0
 10
77.301704
 20
14.821045
 30
0.0
 10
78.176626
 20
14.821045
 30
0.0
 10
78.176626
 20
18.051141
 30
0.0
 10
84.827105
 20
18.051141
 30
0.0
  0
LWPOLYLINE
  5
16e
100
AcDbEntity
  8
Layer_1
 62
7
100
AcDbPolyline
 90
2
 70
0
 10
124.501699
 20
19.521444
 30
0.0
 10
138.501650
 20
19.521444
 30
0.0
  0
LWPOLYLINE
  5
16f
100
AcDbEntity
  8
Layer_1
 62
7
100
AcDbPolyline
 90
7
 70
0
 10
178.176562
 20
14.821045
 30
0.0
 10
178.176562
 20
18.051141
 30
0.0
 10
184.826548
 20
18.051141
 30
0.0
 10
184.826548
 20
14.821045
 30
0.0
 10
185.700552
 20
14.821045
 30
0.0
 10
185.700552
 20
12.020843
 30
0.0
 10
184.826548
 20
12.020843
 30
0.0
  0
LWPOLYLINE
  5
170
100
AcDbEntity
  8
Layer_1
 62
7
100
AcDbPolyline
 90
36
 70
1
 10
275.313326
 20
31.070795
 30
0.0
 10
275.313326
 20
24.800715
 30
0.0
 10
273.688330
 20
24.800715
 30
0.0
 10
273.688330
 20
23.600427
 30
0.0
 10
270.387326
 20
23.600427
 30
0.0
 10
270.387326
 20
24.800715
 30
0.0
 10
268.662317
 20
24.800715
 30
0.0
 10
268.662317
 20
25.601307
 30
0.0
 10
267.088333
 20
25.601307
 30
0.0
 10
267.088333
 20
24.570634
 30
0.0
 10
253.088382
 20
24.570634
 30
0.0
 10
253.088382
 20
25.601307
 30
0.0
 10
251.512386
 20
25.601307
 30
0.0
 10
251.512386
 20
24.800715
 30
0.0
 10
249.787378
 20
24.800715
 30
0.0
 10
249.787378
 20
23.600427
 30
0.0
 10
246.488385
 20
23.600427
 30
0.0
 10
246.488385
 20
24.800715
 30
0.0
 10
244.863389
 20
24.800715
 30
0.0
 10
244.863389
 20
31.070795
 30
0.0
 10
243.988396
 20
31.070795
 30
0.0
 10
243.988396
 20
33.870997
 30
0.0
 10
244.863389
 20
33.870997
 30
0.0
 10
244.863389
 20
37.101093
 30
0.0
 10
251.512386
 20
37.101093
 30
0.0
 10
251.512386
 20
36.300289
 30
0.0
 10
253.088382
 20
36.300289
 30
0.0
 10
253.088382
 20
38.571396
 30
0.0
 10
267.088333
 20
38.571396
 30
0.0
 10
267.088333
 20
36.300289
 30
0.0
 10
268.662317
 20
36.300289
 30
0.0
 10
268.662317
 20
37.101093
 30
0.0
 10
275.313326
 20
37.101093
 30
0.0
 10
275.313326
 20
33.870997
 30
0.0
 10
276.187331
 20
33.870997
 30
0.0
 10
276.187331
 20
31.070795
 30
0.0
  0
LWPOLYLINE
  5
171
100
AcDbEntity
  8
Layer_1
 62
7
100
AcDbPolyline
 90
36
 70
1
 10
280.076308
 20
50.120641
 30
0.0
 10
280.076308
 20
43.850773
 30
0.0
 10
278.450324
 20
43.850773
 30
0.0
 10
278.450324
 20
42.650273
 30
0.0
 10
275.151331
 20
42.650273
 30
0.0
 10
275.151331
 20
43.850773
 30
0.0
 10
273.426322
 20
43.850773
 30
0.0
 10
273.426322
 20
44.651153
 30
0.0
 10
271.851315
 20
44.651153
 30
0.0
 10
271.851315
 20
43.620374
 30
0.0
 10
257.851364
 20
43.620374
 30
0.0
 10
257.851364
 20
44.651153
 30
0.0
 10
256.276356
 20
44.651153
 30
0.0
 10
256.276356
 20
43.850773
 30
0.0
 10
254.551383
 20
43.850773
 30
0.0
 10
254.551383
 20
42.650273
 30
0.0
 10
251.251367
 20
42.650273
 30
0.0
 10
251.251367
 20
43.850773
 30
0.0
 10
249.626371
 20
43.850773
 30
0.0
 10
249.626371
 20
50.120641
 30
0.0
 10
248.751378
 20
50.120641
 30
0.0
 10
248.751378
 20
52.920949
 30
0.0
 10
249.626371
 20
52.920949
 30
0.0
 10
249.626371
 20
56.151045
 30
0.0
 10
256.276356
 20
56.151045
 30
0.0
 10
256.276356
 20
55.350135
 30
0.0
 10
257.851364
 20
55.350135
 30
0.0
 10
257.851364
 20
57.621348
 30
0.0
 10
271.851315
 20
57.621348
 30
0.0
 10
271.851315
 20
55.350135
 30
0.0
 10
273.426322
 20
55.350135
 30
0.0
 10
273.426322
 20
56.151045
 30
0.0
 10
280.076308
 20
56.151045
 30
0.0
 10
280.076308
 20
52.920949
 30
0.0
 10
280.950313
 20
52.920949
 30
0.0
 10
280.950313
 20
50.120641
 30
0.0
  0
SPLINE
  5
172
100
AcDbEntity
  8
Layer_1
 62
1
100
AcDbSpline
 70
8
 71
3
 72
8
 73
4
 74
0
 40
0
 40
0
 40
0
 40
0
 40
1
 40
1
 40
1
 40
1
 10
284.007089
 20
70.439108
 30
0.0
 10
284.206059
 20
70.439108
 30
0.0
 10
284.396879
 20
70.360068
 30
0.0
 10
284.537571
 20
70.219375
 30
0.0
  0
SPLINE
  5
173
100
AcDbEntity
  8
Layer_1
 62
1
100
AcDbSpline
 70
8
 71
3
 72
8
 73
4
 74
0
 40
0
 40
0
 40
0
 40
0
 40
1
 40
1
 40
1
 40
1
 10
284.537571
 20
70.219375
 30
0.0
 10
284.678264
 20
70.078683
 30
0.0
 10
284.757304
 20
69.887863
 30
0.0
 10
284.757304
 20
69.688893
 30
0.0
  0
SPLINE
  5
174
100
AcDbEntity
  8
Layer_1
 62
1
100
AcDbSpline
 70
8
 71
3
 72
8
 73
4
 74
0
 40
0
 40
0
 40
0
 40
0
 40
1
 40
1
 40
1
 40
1
 10
284.757304
 20
69.688893
 30
0.0
 10
284.757304
 20
69.385459
 30
0.0
 10
284.574520
 20
69.111904
 30
0.0
 10
284.294184
 20
68.995784
 30
0.0
  0
SPLINE
  5
175
100
AcDbEntity
  8
Layer_1
 62
1
100
AcDbSpline
 70
8
 71
3
 72
8
 73
4
 74
0
 40
0
 40
0
 40
0
 40
0
 40
1
 40
1
 40
1
 40
1
 10
284.294184
 20
68.995784
 30
0.0
 10
284.013848
 20
68.879665
 30
0.0
 10
283.691167
 20
68.943851
 30
0.0
 10
283.476607
 20
69.158411
 30
0.0
  0
SPLINE
  5
176
100
AcDbEntity
  8
Layer_1
 62
1
100
AcDbSpline
 70
8
 71
3
 72
8
 73
4
 74
0
 40
0
 40
0
 40
0
 40
0
 40
1
 40
1
 40
1
 40
1
 10
283.476607
 20
69.158411
 30
0.0
 10
283.262047
 20
69.372971
 30
0.0
 10
283.197861
 20
69.695652
 30
0.0
 10
283.313981
 20
69.975988
 30
0.0
  0
SPLINE
  5
177
100
AcDbEntity
  8
Layer_1
 62
1
100
AcDbSpline
 70
8
 71
3
 72
8
 73
4
 74
0
 40
0
 40
0
 40
0
 40
0
 40
1
 40
1
 40
1
 40
1
 10
283.313981
 20
69.975988
 30
0.0
 10
283.430100
 20
70.256324
 30
0.0
 10
283.703655
 20
70.439108
 30
0.0
 10
284.007089
 20
70.439108
 30
0.0
  0
LWPOLYLINE
  5
178
100
AcDbEntity
  8
Layer_1
 62
7
100
AcDbPolyline
 90
36
 70
1
 10
282.456282
 20
88.220545
 30
0.0
 10
282.456282
 20
81.950677
 30
0.0
 10
280.831286
 20
81.950677
 30
0.0
 10
280.831286
 20
80.750071
 30
0.0
 10
277.531305
 20
80.750071
 30
0.0
 10
277.531305
 20
81.950677
 30
0.0
 10
275.807319
 20
81.950677
 30
0.0
 10
275.807319
 20
82.751057
 30
0.0
 10
274.232312
 20
82.751057
 30
0.0
 10
274.232312
 20
81.720278
 30
0.0
 10
260.231338
 20
81.720278
 30
0.0
 10
260.231338
 20
82.751057
 30
0.0
 10
258.656365
 20
82.751057
 30
0.0
 10
258.656365
 20
81.950677
 30
0.0
 10
256.932380
 20
81.950677
 30
0.0
 10
256.932380
 20
80.750071
 30
0.0
 10
253.632364
 20
80.750071
 30
0.0
 10
253.632364
 20
81.950677
 30
0.0
 10
252.007368
 20
81.950677
 30
0.0
 10
252.007368
 20
88.220545
 30
0.0
 10
251.132375
 20
88.220545
 30
0.0
 10
251.132375
 20
91.020853
 30
0.0
 10
252.007368
 20
91.020853
 30
0.0
 10
252.007368
 20
94.250949
 30
0.0
 10
258.656365
 20
94.250949
 30
0.0
 10
258.656365
 20
93.450145
 30
0.0
 10
260.231338
 20
93.450145
 30
0.0
 10
260.231338
 20
95.721252
 30
0.0
 10
274.232312
 20
95.721252
 30
0.0
 10
274.232312
 20
93.450145
 30
0.0
 10
275.807319
 20
93.450145
 30
0.0
 10
275.807319
 20
94.250949
 30
0.0
 10
282.456282
 20
94.250949
 30
0.0
 10
282.456282
 20
91.020853
 30
0.0
 10
283.331310
 20
91.020853
 30
0.0
 10
283.331310
 20
88.220545
 30
0.0
  0
SPLINE
  5
179
100
AcDbEntity
  8
Layer_1
 62
1
100
AcDbSpline
 70
8
 71
3
 72
8
 73
4
 74
0
 40
0
 40
0
 40
0
 40
0
 40
1
 40
1
 40
1
 40
1
 10
90.978370
 20
59.873017
 30
0.0
 10
91.392689
 20
59.873017
 30
0.0
 10
91.728566
 20
59.537156
 30
0.0
 10
91.728585
 20
59.122837
 30
0.0
  0
SPLINE
  5
17a
100
AcDbEntity
  8
Layer_1
 62
1
100
AcDbSpline
 70
8
 71
3
 72
8
 73
4
 74
0
 40
0
 40
0
 40
0
 40
0
 40
1
 40
1
 40
1
 40
1
 10
91.728585
 20
59.122837
 30
0.0
 10
91.728600
 20
58.819400
 30
0.0
 10
91.545824
 20
58.545834
 30
0.0
 10
91.265489
 20
58.429703
 30
0.0
  0
SPLINE
  5
17b
100
AcDbEntity
  8
Layer_1
 62
1
100
AcDbSpline
 70
8
 71
3
 72
8
 73
4
 74
0
 40
0
 40
0
 40
0
 40
0
 40
1
 40
1
 40
1
 40
1
 10
91.265489
 20
58.429703
 30
0.0
 10
90.985154
 20
58.313573
 30
0.0
 10
90.662467
 20
58.377750
 30
0.0
 10
90.447900
 20
58.592307
 30
0.0
  0
SPLINE
  5
17c
100
AcDbEntity
  8
Layer_1
 62
1
100
AcDbSpline
 70
8
 71
3
 72
8
 73
4
 74
0
 40
0
 40
0
 40
0
 40
0
 40
1
 40
1
 40
1
 40
1
 10
90.447900
 20
58.592307
 30
0.0
 10
90.233333
 20
58.806864
 30
0.0
 10
90.169141
 20
59.129548
 30
0.0
 10
90.285258
 20
59.409889
 30
0.0
  0
SPLINE
  5
17d
100
AcDbEntity
  8
Layer_1
 62
1
100
AcDbSpline
 70
8
 71
3
 72
8
 73
4
 74
0
 40
0
 40
0
 40
0
 40
0
 40
1
 40
1
 40
1
 40
1
 10
90.285258
 20
59.409889
 30
0.0
 10
90.401375
 20
59.690229
 30
0.0
 10
90.674933
 20
59.873017
 30
0.0
 10
90.978370
 20
59.873017
 30
0.0
  0
LWPOLYLINE
  5
17e
100
AcDbEntity
  8
Layer_1
 62
1
100
AcDbPolyline
 90
1
 70
1
 10
284.007089
 20
70.439108
 30
0.0
  0
LWPOLYLINE
  5
17f
100
AcDbEntity
  8
Layer_1
 62
1
100
AcDbPolyline
 90
1
 70
1
 10
90.978370
 20
59.873017
 30
0.0
  0
SPLINE
  5
180
100
AcDbEntity
  8
Layer_1
 62
7
100
AcDbSpline
 70
8
 71
3
 72
8
 73
4
 74
0
 40
0
 40
0
 40
0
 40
0
 40
1
 40
1
 40
1
 40
1
 10
25.371561
 20
123.033495
 30
0.0
 10
25.371561
 20
121.839756
 30
0.0
 10
26.412908
 20
121.026997
 30
0.0
 10
27.606647
 20
121.026997
 30
0.0
  0
SPLINE
  5
181
100
AcDbEntity
  8
Layer_1
 62
7
100
AcDbSpline
 70
8
 71
3
 72
8
 73
4
 74
0
 40
0
 40
0
 40
0
 40
0
 40
1
 40
1
 40
1
 40
1
 10
27.606647
 20
121.026997
 30
0.0
 10
28.800387
 20
121.026997
 30
0.0
 10
29.867133
 20
121.839756
 30
0.0
 10
29.867133
 20
123.033495
 30
0.0
  0
LWPOLYLINE
  5
182
100
AcDbEntity
  8
Layer_1
 62
7
100
AcDbPolyline
 90
3
 70
0
 10
0.074446
 20
125.065392
 30
0.0
 10
25.371561
 20
125.065392
 30
0.0
 10
25.371561
 20
123.033495
 30
0.0
  0
SPLINE
  5
183
100
AcDbEntity
  8
Layer_1
 62
7
100
AcDbSpline
 70
8
 71
3
 72
8
 73
4
 74
0
 40
0
 40
0
 40
0
 40
0
 40
1
 40
1
 40
1
 40
1
 10
117.162499
 20
123.033495
 30
0.0
 10
117.162499
 20
121.966749
 30
0.0
 10
118.330840
 20
121.026997
 30
0.0
 10
119.397585
 20
121.026997
 30
0.0
  0
SPLINE
  5
184
100
AcDbEntity
  8
Layer_1
 62
7
100
AcDbSpline
 70
8
 71
3
 72
8
 73
4
 74
0
 40
0
 40
0
 40
0
 40
0
 40
1
 40
1
 40
1
 40
1
 10
119.397585
 20
121.026997
 30
0.0
 10
120.464331
 20
121.026997
 30
0.0
 10
121.658071
 20
121.966749
 30
0.0
 10
121.658071
 20
123.033495
 30
0.0
  0
LWPOLYLINE
  5
185
100
AcDbEntity
  8
Layer_1
 62
7
100
AcDbPolyline
 90
4
 70
0
 10
29.867133
 20
123.033495
 30
0.0
 10
29.867133
 20
125.065392
 30
0.0
 10
117.162499
 20
125.065392
 30
0.0
 10
117.162499
 20
123.033495
 30
0.0
  0
SPLINE
  5
186
100
AcDbEntity
  8
Layer_1
 62
7
100
AcDbSpline
 70
8
 71
3
 72
8
 73
4
 74
0
 40
0
 40
0
 40
0
 40
0
 40
1
 40
1
 40
1
 40
1
 10
202.908544
 20
123.033495
 30
0.0
 10
202.908544
 20
121.865154
 30
0.0
 10
203.975290
 20
121.026997
 30
0.0
 10
205.143630
 20
121.026997
 30
0.0
  0
SPLINE
  5
187
100
AcDbEntity
  8
Layer_1
 62
7
100
AcDbSpline
 70
8
 71
3
 72
8
 73
4
 74
0
 40
0
 40
0
 40
0
 40
0
 40
1
 40
1
 40
1
 40
1
 10
205.143630
 20
121.026997
 30
0.0
 10
206.337370
 20
121.026997
 30
0.0
 10
207.404115
 20
121.839756
 30
0.0
 10
207.404115
 20
123.008096
 30
0.0
  0
LWPOLYLINE
  5
188
100
AcDbEntity
  8
Layer_1
 62
7
100
AcDbPolyline
 90
4
 70
0
 10
121.658071
 20
123.033495
 30
0.0
 10
121.683469
 20
125.065392
 30
0.0
 10
202.908544
 20
125.065392
 30
0.0
 10
202.908544
 20
123.033495
 30
0.0
  0
SPLINE
  5
189
100
AcDbEntity
  8
Layer_1
 62
7
100
AcDbSpline
 70
8
 71
3
 72
8
 73
4
 74
0
 40
0
 40
0
 40
0
 40
0
 40
1
 40
1
 40
1
 40
1
 10
286.470300
 20
123.033495
 30
0.0
 10
286.470300
 20
121.865154
 30
0.0
 10
287.537046
 20
121.026997
 30
0.0
 10
288.705386
 20
121.026997
 30
0.0
  0
SPLINE
  5
18a
100
AcDbEntity
  8
Layer_1
 62
7
100
AcDbSpline
 70
8
 71
3
 72
8
 73
4
 74
0
 40
0
 40
0
 40
0
 40
0
 40
1
 40
1
 40
1
 40
1
 10
288.705386
 20
121.026997
 30
0.0
 10
289.899126
 20
121.026997
 30
0.0
 10
290.965871
 20
121.865154
 30
0.0
 10
290.965871
 20
123.033495
 30
0.0
  0
LWPOLYLINE
  5
18b
100
AcDbEntity
  8
Layer_1
 62
7
100
AcDbPolyline
 90
4
 70
0
 10
207.404115
 20
123.008096
 30
0.0
 10
207.404115
 20
125.039993
 30
0.0
 10
286.470300
 20
125.065392
 30
0.0
 10
286.470300
 20
123.033495
 30
0.0
  0
LWPOLYLINE
  5
18c
100
AcDbEntity
  8
Layer_1
 62
7
100
AcDbPolyline
 90
3
 70
0
 10
290.965871
 20
123.033495
 30
0.0
 10
290.965871
 20
125.065392
 30
0.0
 10
348.697139
 20
125.065392
 30
0.0
  0
SPLINE
  5
18d
100
AcDbEntity
  8
Layer_1
 62
7
100
AcDbSpline
 70
8
 71
3
 72
8
 73
4
 74
0
 40
0
 40
0
 40
0
 40
0
 40
1
 40
1
 40
1
 40
1
 10
290.178511
 20
2.542015
 30
0.0
 10
290.178511
 20
3.710355
 30
0.0
 10
289.060968
 20
4.548513
 30
0.0
 10
287.918026
 20
4.548513
 30
0.0
  0
SPLINE
  5
18e
100
AcDbEntity
  8
Layer_1
 62
7
100
AcDbSpline
 70
8
 71
3
 72
8
 73
4
 74
0
 40
0
 40
0
 40
0
 40
0
 40
1
 40
1
 40
1
 40
1
 10
287.918026
 20
4.548513
 30
0.0
 10
286.724287
 20
4.548513
 30
0.0
 10
285.657541
 20
3.710355
 30
0.0
 10
285.657541
 20
2.542015
 30
0.0
  0
LWPOLYLINE
  5
18f
100
AcDbEntity
  8
Layer_1
 62
7
100
AcDbPolyline
 90
7
 70
0
 10
348.697139
 20
0.052941
 30
0.0
 10
329.876695
 20
0.052941
 30
0.0
 10
329.876695
 20
4.015140
 30
0.0
 10
327.946393
 20
4.015140
 30
0.0
 10
327.946393
 20
0.052941
 30
0.0
 10
290.178511
 20
0.052941
 30
0.0
 10
290.178511
 20
2.542015
 30
0.0
  0
SPLINE
  5
190
100
AcDbEntity
  8
Layer_1
 62
7
100
AcDbSpline
 70
8
 71
3
 72
8
 73
4
 74
0
 40
0
 40
0
 40
0
 40
0
 40
1
 40
1
 40
1
 40
1
 10
189.015449
 20
2.542015
 30
0.0
 10
189.015449
 20
3.735754
 30
0.0
 10
187.948704
 20
4.548513
 30
0.0
 10
186.754964
 20
4.548513
 30
0.0
  0
SPLINE
  5
191
100
AcDbEntity
  8
Layer_1
 62
7
100
AcDbSpline
 70
8
 71
3
 72
8
 73
4
 74
0
 40
0
 40
0
 40
0
 40
0
 40
1
 40
1
 40
1
 40
1
 10
186.754964
 20
4.548513
 30
0.0
 10
185.561225
 20
4.548513
 30
0.0
 10
184.545276
 20
3.735754
 30
0.0
 10
184.545276
 20
2.542015
 30
0.0
  0
LWPOLYLINE
  5
192
100
AcDbEntity
  8
Layer_1
 62
7
100
AcDbPolyline
 90
8
 70
0
 10
285.657541
 20
2.542015
 30
0.0
 10
285.657541
 20
0.052941
 30
0.0
 10
239.711275
 20
0.052941
 30
0.0
 10
239.711275
 20
4.040539
 30
0.0
 10
237.704777
 20
4.040539
 30
0.0
 10
237.704777
 20
0.052941
 30
0.0
 10
189.015449
 20
0.052941
 30
0.0
 10
189.015449
 20
2.542015
 30
0.0
  0
SPLINE
  5
193
100
AcDbEntity
  8
Layer_1
 62
7
100
AcDbSpline
 70
8
 71
3
 72
8
 73
4
 74
0
 40
0
 40
0
 40
0
 40
0
 40
1
 40
1
 40
1
 40
1
 10
78.277074
 20
2.542015
 30
0.0
 10
78.277074
 20
3.735754
 30
0.0
 10
77.210328
 20
4.548513
 30
0.0
 10
76.041987
 20
4.548513
 30
0.0
  0
SPLINE
  5
194
100
AcDbEntity
  8
Layer_1
 62
7
100
AcDbSpline
 70
8
 71
3
 72
8
 73
4
 74
0
 40
0
 40
0
 40
0
 40
0
 40
1
 40
1
 40
1
 40
1
 10
76.041987
 20
4.548513
 30
0.0
 10
74.848248
 20
4.548513
 30
0.0
 10
73.832300
 20
3.735754
 30
0.0
 10
73.832300
 20
2.542015
 30
0.0
  0
LWPOLYLINE
  5
195
100
AcDbEntity
  8
Layer_1
 62
7
100
AcDbPolyline
 90
12
 70
0
 10
184.545276
 20
2.542015
 30
0.0
 10
184.545276
 20
0.052941
 30
0.0
 10
151.984130
 20
0.052941
 30
0.0
 10
151.984130
 20
4.040539
 30
0.0
 10
149.977632
 20
4.040539
 30
0.0
 10
149.977632
 20
0.052941
 30
0.0
 10
112.971712
 20
0.052941
 30
0.0
 10
112.971712
 20
4.040539
 30
0.0
 10
110.990612
 20
4.040539
 30
0.0
 10
110.990612
 20
0.052941
 30
0.0
 10
78.277074
 20
0.052941
 30
0.0
 10
78.277074
 20
2.542015
 30
0.0
  0
LWPOLYLINE
  5
196
100
AcDbEntity
  8
Layer_1
 62
7
100
AcDbPolyline
 90
7
 70
0
 10
73.832300
 20
2.542015
 30
0.0
 10
73.832300
 20
0.052941
 30
0.0
 10
49.220950
 20
0.052941
 30
0.0
 10
49.220950
 20
4.015140
 30
0.0
 10
47.316046
 20
4.015140
 30
0.0
 10
47.316046
 20
0.052941
 30
0.0
 10
0.074446
 20
0.052941
 30
0.0
  0
LWPOLYLINE
  5
197
100
AcDbEntity
  8
Layer_1
 62
7
100
AcDbPolyline
 90
4
 70
1
 10
3.071494
 20
119.553872
 30
0.0
 10
17.066183
 20
119.553872
 30
0.0
 10
17.066183
 20
105.559182
 30
0.0
 10
3.071494
 20
105.559182
 30
0.0
  0
LWPOLYLINE
  5
198
100
AcDbEntity
  8
Layer_1
 62
7
100
AcDbPolyline
 90
4
 70
1
 10
3.071494
 20
95.755280
 30
0.0
 10
17.066183
 20
95.755280
 30
0.0
 10
17.066183
 20
81.735192
 30
0.0
 10
3.071494
 20
81.735192
 30
0.0
  0
LWPOLYLINE
  5
199
100
AcDbEntity
  8
Layer_1
 62
7
100
AcDbPolyline
 90
4
 70
1
 10
5.458972
 20
19.559150
 30
0.0
 10
19.453661
 20
19.559150
 30
0.0
 10
19.453661
 20
5.539062
 30
0.0
 10
5.458972
 20
5.539062
 30
0.0
  0
LWPOLYLINE
  5
19a
100
AcDbEntity
  8
Layer_1
 62
7
100
AcDbPolyline
 90
4
 70
1
 10
7.846451
 20
76.706248
 30
0.0
 10
21.841140
 20
76.706248
 30
0.0
 10
21.841140
 20
62.686160
 30
0.0
 10
7.846451
 20
62.686160
 30
0.0
  0
LWPOLYLINE
  5
19b
100
AcDbEntity
  8
Layer_1
 62
7
100
AcDbPolyline
 90
4
 70
1
 10
10.208531
 20
57.657215
 30
0.0
 10
24.228619
 20
57.657215
 30
0.0
 10
24.228619
 20
43.637127
 30
0.0
 10
10.208531
 20
43.637127
 30
0.0
  0
LWPOLYLINE
  5
19c
100
AcDbEntity
  8
Layer_1
 62
7
100
AcDbPolyline
 90
4
 70
1
 10
22.120526
 20
95.755280
 30
0.0
 10
36.115215
 20
95.755280
 30
0.0
 10
36.115215
 20
81.735192
 30
0.0
 10
22.120526
 20
81.735192
 30
0.0
  0
LWPOLYLINE
  5
19d
100
AcDbEntity
  8
Layer_1
 62
7
100
AcDbPolyline
 90
4
 70
1
 10
29.257564
 20
19.559150
 30
0.0
 10
43.277651
 20
19.559150
 30
0.0
 10
43.277651
 20
5.539062
 30
0.0
 10
29.257564
 20
5.539062
 30
0.0
  0
LWPOLYLINE
  5
19e
100
AcDbEntity
  8
Layer_1
 62
7
100
AcDbPolyline
 90
4
 70
1
 10
31.645042
 20
76.706248
 30
0.0
 10
45.639731
 20
76.706248
 30
0.0
 10
45.639731
 20
62.686160
 30
0.0
 10
31.645042
 20
62.686160
 30
0.0
  0
LWPOLYLINE
  5
19f
100
AcDbEntity
  8
Layer_1
 62
7
100
AcDbPolyline
 90
4
 70
1
 10
36.420000
 20
57.657215
 30
0.0
 10
50.414689
 20
57.657215
 30
0.0
 10
50.414689
 20
43.637127
 30
0.0
 10
36.420000
 20
43.637127
 30
0.0
  0
LWPOLYLINE
  5
1a0
100
AcDbEntity
  8
Layer_1
 62
7
100
AcDbPolyline
 90
4
 70
1
 10
41.169559
 20
119.553872
 30
0.0
 10
55.164248
 20
119.553872
 30
0.0
 10
55.164248
 20
105.559182
 30
0.0
 10
41.169559
 20
105.559182
 30
0.0
  0
LWPOLYLINE
  5
1a1
100
AcDbEntity
  8
Layer_1
 62
7
100
AcDbPolyline
 90
4
 70
1
 10
41.169559
 20
95.755280
 30
0.0
 10
55.164248
 20
95.755280
 30
0.0
 10
55.164248
 20
81.735192
 30
0.0
 10
41.169559
 20
81.735192
 30
0.0
  0
LWPOLYLINE
  5
1a2
100
AcDbEntity
  8
Layer_1
 62
7
100
AcDbPolyline
 90
4
 70
1
 10
45.944516
 20
38.608183
 30
0.0
 10
59.939205
 20
38.608183
 30
0.0
 10
59.939205
 20
24.588095
 30
0.0
 10
45.944516
 20
24.588095
 30
0.0
  0
LWPOLYLINE
  5
1a3
100
AcDbEntity
  8
Layer_1
 62
7
100
AcDbPolyline
 90
4
 70
1
 10
50.694075
 20
76.706248
 30
0.0
 10
64.688764
 20
76.706248
 30
0.0
 10
64.688764
 20
62.686160
 30
0.0
 10
50.694075
 20
62.686160
 30
0.0
  0
LWPOLYLINE
  5
1a4
100
AcDbEntity
  8
Layer_1
 62
7
100
AcDbPolyline
 90
4
 70
1
 10
53.081554
 20
19.559150
 30
0.0
 10
67.076243
 20
19.559150
 30
0.0
 10
67.076243
 20
5.539062
 30
0.0
 10
53.081554
 20
5.539062
 30
0.0
  0
LWPOLYLINE
  5
1a5
100
AcDbEntity
  8
Layer_1
 62
7
100
AcDbPolyline
 90
4
 70
1
 10
55.469032
 20
57.657215
 30
0.0
 10
69.463721
 20
57.657215
 30
0.0
 10
69.463721
 20
43.637127
 30
0.0
 10
55.469032
 20
43.637127
 30
0.0
  0
LWPOLYLINE
  5
1a6
100
AcDbEntity
  8
Layer_1
 62
7
100
AcDbPolyline
 90
4
 70
1
 10
60.218591
 20
119.553872
 30
0.0
 10
74.213280
 20
119.553872
 30
0.0
 10
74.213280
 20
105.559182
 30
0.0
 10
60.218591
 20
105.559182
 30
0.0
  0
LWPOLYLINE
  5
1a7
100
AcDbEntity
  8
Layer_1
 62
7
100
AcDbPolyline
 90
4
 70
1
 10
60.218591
 20
95.755280
 30
0.0
 10
74.213280
 20
95.755280
 30
0.0
 10
74.213280
 20
81.735192
 30
0.0
 10
60.218591
 20
81.735192
 30
0.0
  0
LWPOLYLINE
  5
1a8
100
AcDbEntity
  8
Layer_1
 62
7
100
AcDbPolyline
 90
4
 70
1
 10
64.993549
 20
38.608183
 30
0.0
 10
78.988238
 20
38.608183
 30
0.0
 10
78.988238
 20
24.588095
 30
0.0
 10
64.993549
 20
24.588095
 30
0.0
  0
LWPOLYLINE
  5
1a9
100
AcDbEntity
  8
Layer_1
 62
7
100
AcDbPolyline
 90
4
 70
1
 10
69.743107
 20
76.706248
 30
0.0
 10
83.737796
 20
76.706248
 30
0.0
 10
83.737796
 20
62.686160
 30
0.0
 10
69.743107
 20
62.686160
 30
0.0
  0
LWPOLYLINE
  5
1aa
100
AcDbEntity
  8
Layer_1
 62
7
100
AcDbPolyline
 90
4
 70
1
 10
74.518065
 20
57.657215
 30
0.0
 10
88.512754
 20
57.657215
 30
0.0
 10
88.512754
 20
43.637127
 30
0.0
 10
74.518065
 20
43.637127
 30
0.0
  0
LWPOLYLINE
  5
1ab
100
AcDbEntity
  8
Layer_1
 62
7
100
AcDbPolyline
 90
4
 70
1
 10
79.267624
 20
119.553872
 30
0.0
 10
93.262313
 20
119.553872
 30
0.0
 10
93.262313
 20
105.559182
 30
0.0
 10
79.267624
 20
105.559182
 30
0.0
  0
LWPOLYLINE
  5
1ac
100
AcDbEntity
  8
Layer_1
 62
7
100
AcDbPolyline
 90
4
 70
1
 10
79.267624
 20
95.755280
 30
0.0
 10
93.262313
 20
95.755280
 30
0.0
 10
93.262313
 20
81.735192
 30
0.0
 10
79.267624
 20
81.735192
 30
0.0
  0
LWPOLYLINE
  5
1ad
100
AcDbEntity
  8
Layer_1
 62
7
100
AcDbPolyline
 90
4
 70
1
 10
84.042581
 20
38.608183
 30
0.0
 10
98.037270
 20
38.608183
 30
0.0
 10
98.037270
 20
24.588095
 30
0.0
 10
84.042581
 20
24.588095
 30
0.0
  0
LWPOLYLINE
  5
1ae
100
AcDbEntity
  8
Layer_1
 62
7
100
AcDbPolyline
 90
4
 70
1
 10
88.792140
 20
76.706248
 30
0.0
 10
102.786829
 20
76.706248
 30
0.0
 10
102.786829
 20
62.686160
 30
0.0
 10
88.792140
 20
62.686160
 30
0.0
  0
LWPOLYLINE
  5
1af
100
AcDbEntity
  8
Layer_1
 62
7
100
AcDbPolyline
 90
4
 70
1
 10
93.567097
 20
57.657215
 30
0.0
 10
107.561786
 20
57.657215
 30
0.0
 10
107.561786
 20
43.637127
 30
0.0
 10
93.567097
 20
43.637127
 30
0.0
  0
LWPOLYLINE
  5
1b0
100
AcDbEntity
  8
Layer_1
 62
7
100
AcDbPolyline
 90
4
 70
1
 10
98.316656
 20
119.553872
 30
0.0
 10
112.311345
 20
119.553872
 30
0.0
 10
112.311345
 20
105.559182
 30
0.0
 10
98.316656
 20
105.559182
 30
0.0
  0
LWPOLYLINE
  5
1b1
100
AcDbEntity
  8
Layer_1
 62
7
100
AcDbPolyline
 90
4
 70
1
 10
98.316656
 20
95.755280
 30
0.0
 10
112.311345
 20
95.755280
 30
0.0
 10
112.311345
 20
81.735192
 30
0.0
 10
98.316656
 20
81.735192
 30
0.0
  0
LWPOLYLINE
  5
1b2
100
AcDbEntity
  8
Layer_1
 62
7
100
AcDbPolyline
 90
4
 70
1
 10
103.091614
 20
38.608183
 30
0.0
 10
117.086303
 20
38.608183
 30
0.0
 10
117.086303
 20
24.588095
 30
0.0
 10
103.091614
 20
24.588095
 30
0.0
  0
LWPOLYLINE
  5
1b3
100
AcDbEntity
  8
Layer_1
 62
7
100
AcDbPolyline
 90
4
 70
1
 10
107.841172
 20
76.706248
 30
0.0
 10
121.835861
 20
76.706248
 30
0.0
 10
121.835861
 20
62.686160
 30
0.0
 10
107.841172
 20
62.686160
 30
0.0
  0
LWPOLYLINE
  5
1b4
100
AcDbEntity
  8
Layer_1
 62
7
100
AcDbPolyline
 90
4
 70
1
 10
112.616130
 20
57.657215
 30
0.0
 10
126.610819
 20
57.657215
 30
0.0
 10
126.610819
 20
43.637127
 30
0.0
 10
112.616130
 20
43.637127
 30
0.0
  0
LWPOLYLINE
  5
1b5
100
AcDbEntity
  8
Layer_1
 62
7
100
AcDbPolyline
 90
4
 70
1
 10
117.365689
 20
95.755280
 30
0.0
 10
131.360378
 20
95.755280
 30
0.0
 10
131.360378
 20
81.735192
 30
0.0
 10
117.365689
 20
81.735192
 30
0.0
  0
LWPOLYLINE
  5
1b6
100
AcDbEntity
  8
Layer_1
 62
7
100
AcDbPolyline
 90
4
 70
1
 10
122.140646
 20
38.608183
 30
0.0
 10
136.135335
 20
38.608183
 30
0.0
 10
136.135335
 20
24.588095
 30
0.0
 10
122.140646
 20
24.588095
 30
0.0
  0
LWPOLYLINE
  5
1b7
100
AcDbEntity
  8
Layer_1
 62
7
100
AcDbPolyline
 90
4
 70
1
 10
126.890205
 20
119.553872
 30
0.0
 10
140.884894
 20
119.553872
 30
0.0
 10
140.884894
 20
105.559182
 30
0.0
 10
126.890205
 20
105.559182
 30
0.0
  0
LWPOLYLINE
  5
1b8
100
AcDbEntity
  8
Layer_1
 62
7
100
AcDbPolyline
 90
4
 70
1
 10
126.890205
 20
76.706248
 30
0.0
 10
140.884894
 20
76.706248
 30
0.0
 10
140.884894
 20
62.686160
 30
0.0
 10
126.890205
 20
62.686160
 30
0.0
  0
LWPOLYLINE
  5
1b9
100
AcDbEntity
  8
Layer_1
 62
7
100
AcDbPolyline
 90
4
 70
1
 10
131.665162
 20
57.657215
 30
0.0
 10
145.659851
 20
57.657215
 30
0.0
 10
145.659851
 20
43.637127
 30
0.0
 10
131.665162
 20
43.637127
 30
0.0
  0
LWPOLYLINE
  5
1ba
100
AcDbEntity
  8
Layer_1
 62
7
100
AcDbPolyline
 90
4
 70
1
 10
136.414721
 20
95.755280
 30
0.0
 10
150.409410
 20
95.755280
 30
0.0
 10
150.409410
 20
81.735192
 30
0.0
 10
136.414721
 20
81.735192
 30
0.0
  0
LWPOLYLINE
  5
1bb
100
AcDbEntity
  8
Layer_1
 62
7
100
AcDbPolyline
 90
4
 70
1
 10
141.189679
 20
38.608183
 30
0.0
 10
155.184368
 20
38.608183
 30
0.0
 10
155.184368
 20
24.588095
 30
0.0
 10
141.189679
 20
24.588095
 30
0.0
  0
LWPOLYLINE
  5
1bc
100
AcDbEntity
  8
Layer_1
 62
7
100
AcDbPolyline
 90
4
 70
1
 10
145.939237
 20
119.553872
 30
0.0
 10
159.933926
 20
119.553872
 30
0.0
 10
159.933926
 20
105.559182
 30
0.0
 10
145.939237
 20
105.559182
 30
0.0
  0
LWPOLYLINE
  5
1bd
100
AcDbEntity
  8
Layer_1
 62
7
100
AcDbPolyline
 90
4
 70
1
 10
145.939237
 20
76.706248
 30
0.0
 10
159.933926
 20
76.706248
 30
0.0
 10
159.933926
 20
62.686160
 30
0.0
 10
145.939237
 20
62.686160
 30
0.0
  0
LWPOLYLINE
  5
1be
100
AcDbEntity
  8
Layer_1
 62
7
100
AcDbPolyline
 90
4
 70
1
 10
150.714195
 20
57.657215
 30
0.0
 10
164.708884
 20
57.657215
 30
0.0
 10
164.708884
 20
43.637127
 30
0.0
 10
150.714195
 20
43.637127
 30
0.0
  0
LWPOLYLINE
  5
1bf
100
AcDbEntity
  8
Layer_1
 62
7
100
AcDbPolyline
 90
4
 70
1
 10
155.463754
 20
95.755280
 30
0.0
 10
169.458443
 20
95.755280
 30
0.0
 10
169.458443
 20
81.735192
 30
0.0
 10
155.463754
 20
81.735192
 30
0.0
  0
LWPOLYLINE
  5
1c0
100
AcDbEntity
  8
Layer_1
 62
7
100
AcDbPolyline
 90
4
 70
1
 10
160.238711
 20
38.608183
 30
0.0
 10
174.233400
 20
38.608183
 30
0.0
 10
174.233400
 20
24.588095
 30
0.0
 10
160.238711
 20
24.588095
 30
0.0
  0
LWPOLYLINE
  5
1c1
100
AcDbEntity
  8
Layer_1
 62
7
100
AcDbPolyline
 90
4
 70
1
 10
164.988270
 20
119.553872
 30
0.0
 10
178.982959
 20
119.553872
 30
0.0
 10
178.982959
 20
105.559182
 30
0.0
 10
164.988270
 20
105.559182
 30
0.0
  0
LWPOLYLINE
  5
1c2
100
AcDbEntity
  8
Layer_1
 62
7
100
AcDbPolyline
 90
4
 70
1
 10
164.988270
 20
76.706248
 30
0.0
 10
178.982959
 20
76.706248
 30
0.0
 10
178.982959
 20
62.686160
 30
0.0
 10
164.988270
 20
62.686160
 30
0.0
  0
LWPOLYLINE
  5
1c3
100
AcDbEntity
  8
Layer_1
 62
7
100
AcDbPolyline
 90
4
 70
1
 10
169.763227
 20
57.657215
 30
0.0
 10
183.757916
 20
57.657215
 30
0.0
 10
183.757916
 20
43.637127
 30
0.0
 10
169.763227
 20
43.637127
 30
0.0
  0
LWPOLYLINE
  5
1c4
100
AcDbEntity
  8
Layer_1
 62
7
100
AcDbPolyline
 90
4
 70
1
 10
174.512786
 20
95.755280
 30
0.0
 10
188.507475
 20
95.755280
 30
0.0
 10
188.507475
 20
81.735192
 30
0.0
 10
174.512786
 20
81.735192
 30
0.0
  0
LWPOLYLINE
  5
1c5
100
AcDbEntity
  8
Layer_1
 62
7
100
AcDbPolyline
 90
4
 70
1
 10
179.287744
 20
38.608183
 30
0.0
 10
193.282433
 20
38.608183
 30
0.0
 10
193.282433
 20
24.588095
 30
0.0
 10
179.287744
 20
24.588095
 30
0.0
  0
LWPOLYLINE
  5
1c6
100
AcDbEntity
  8
Layer_1
 62
7
100
AcDbPolyline
 90
4
 70
1
 10
184.037302
 20
119.553872
 30
0.0
 10
198.031991
 20
119.553872
 30
0.0
 10
198.031991
 20
105.559182
 30
0.0
 10
184.037302
 20
105.559182
 30
0.0
  0
LWPOLYLINE
  5
1c7
100
AcDbEntity
  8
Layer_1
 62
7
100
AcDbPolyline
 90
4
 70
1
 10
184.037302
 20
76.706248
 30
0.0
 10
198.031991
 20
76.706248
 30
0.0
 10
198.031991
 20
62.686160
 30
0.0
 10
184.037302
 20
62.686160
 30
0.0
  0
LWPOLYLINE
  5
1c8
100
AcDbEntity
  8
Layer_1
 62
7
100
AcDbPolyline
 90
4
 70
1
 10
188.812260
 20
57.657215
 30
0.0
 10
202.806949
 20
57.657215
 30
0.0
 10
202.806949
 20
43.637127
 30
0.0
 10
188.812260
 20
43.637127
 30
0.0
  0
LWPOLYLINE
  5
1c9
100
AcDbEntity
  8
Layer_1
 62
7
100
AcDbPolyline
 90
4
 70
1
 10
193.561819
 20
95.755280
 30
0.0
 10
207.556508
 20
95.755280
 30
0.0
 10
207.556508
 20
81.735192
 30
0.0
 10
193.561819
 20
81.735192
 30
0.0
  0
LWPOLYLINE
  5
1ca
100
AcDbEntity
  8
Layer_1
 62
7
100
AcDbPolyline
 90
4
 70
1
 10
195.949297
 20
19.559150
 30
0.0
 10
209.943986
 20
19.559150
 30
0.0
 10
209.943986
 20
5.539062
 30
0.0
 10
195.949297
 20
5.539062
 30
0.0
  0
LWPOLYLINE
  5
1cb
100
AcDbEntity
  8
Layer_1
 62
7
100
AcDbPolyline
 90
4
 70
1
 10
198.336776
 20
38.608183
 30
0.0
 10
212.331465
 20
38.608183
 30
0.0
 10
212.331465
 20
24.588095
 30
0.0
 10
198.336776
 20
24.588095
 30
0.0
  0
LWPOLYLINE
  5
1cc
100
AcDbEntity
  8
Layer_1
 62
7
100
AcDbPolyline
 90
4
 70
1
 10
203.086335
 20
76.706248
 30
0.0
 10
217.081024
 20
76.706248
 30
0.0
 10
217.081024
 20
62.686160
 30
0.0
 10
203.086335
 20
62.686160
 30
0.0
  0
LWPOLYLINE
  5
1cd
100
AcDbEntity
  8
Layer_1
 62
7
100
AcDbPolyline
 90
4
 70
1
 10
207.861292
 20
57.657215
 30
0.0
 10
221.855981
 20
57.657215
 30
0.0
 10
221.855981
 20
43.637127
 30
0.0
 10
207.861292
 20
43.637127
 30
0.0
  0
LWPOLYLINE
  5
1ce
100
AcDbEntity
  8
Layer_1
 62
7
100
AcDbPolyline
 90
4
 70
1
 10
212.610851
 20
119.553872
 30
0.0
 10
226.605540
 20
119.553872
 30
0.0
 10
226.605540
 20
105.559182
 30
0.0
 10
212.610851
 20
105.559182
 30
0.0
  0
LWPOLYLINE
  5
1cf
100
AcDbEntity
  8
Layer_1
 62
7
100
AcDbPolyline
 90
4
 70
1
 10
212.610851
 20
95.755280
 30
0.0
 10
226.605540
 20
95.755280
 30
0.0
 10
226.605540
 20
81.735192
 30
0.0
 10
212.610851
 20
81.735192
 30
0.0
  0
LWPOLYLINE
  5
1d0
100
AcDbEntity
  8
Layer_1
 62
7
100
AcDbPolyline
 90
4
 70
1
 10
217.385809
 20
38.608183
 30
0.0
 10
231.380498
 20
38.608183
 30
0.0
 10
231.380498
 20
24.588095
 30
0.0
 10
217.385809
 20
24.588095
 30
0.0
  0
LWPOLYLINE
  5
1d1
100
AcDbEntity
  8
Layer_1
 62
7
100
AcDbPolyline
 90
4
 70
1
 10
219.747889
 20
19.559150
 30
0.0
 10
233.767976
 20
19.559150
 30
0.0
 10
233.767976
 20
5.539062
 30
0.0
 10
219.747889
 20
5.539062
 30
0.0
  0
LWPOLYLINE
  5
1d2
100
AcDbEntity
  8
Layer_1
 62
7
100
AcDbPolyline
 90
4
 70
1
 10
222.135367
 20
76.706248
 30
0.0
 10
236.130056
 20
76.706248
 30
0.0
 10
236.130056
 20
62.686160
 30
0.0
 10
222.135367
 20
62.686160
 30
0.0
  0
LWPOLYLINE
  5
1d3
100
AcDbEntity
  8
Layer_1
 62
7
100
AcDbPolyline
 90
4
 70
1
 10
226.910325
 20
57.657215
 30
0.0
 10
240.905014
 20
57.657215
 30
0.0
 10
240.905014
 20
43.637127
 30
0.0
 10
226.910325
 20
43.637127
 30
0.0
  0
LWPOLYLINE
  5
1d4
100
AcDbEntity
  8
Layer_1
 62
7
100
AcDbPolyline
 90
4
 70
1
 10
231.659884
 20
119.553872
 30
0.0
 10
245.654573
 20
119.553872
 30
0.0
 10
245.654573
 20
105.559182
 30
0.0
 10
231.659884
 20
105.559182
 30
0.0
  0
LWPOLYLINE
  5
1d5
100
AcDbEntity
  8
Layer_1
 62
7
100
AcDbPolyline
 90
4
 70
1
 10
231.659884
 20
95.755280
 30
0.0
 10
245.654573
 20
95.755280
 30
0.0
 10
245.654573
 20
81.735192
 30
0.0
 10
231.659884
 20
81.735192
 30
0.0
  0
LWPOLYLINE
  5
1d6
100
AcDbEntity
  8
Layer_1
 62
7
100
AcDbPolyline
 90
4
 70
1
 10
241.184400
 20
76.706248
 30
0.0
 10
255.179089
 20
76.706248
 30
0.0
 10
255.179089
 20
62.686160
 30
0.0
 10
241.184400
 20
62.686160
 30
0.0
  0
LWPOLYLINE
  5
1d7
100
AcDbEntity
  8
Layer_1
 62
7
100
AcDbPolyline
 90
4
 70
1
 10
243.571879
 20
19.559150
 30
0.0
 10
257.566568
 20
19.559150
 30
0.0
 10
257.566568
 20
5.539062
 30
0.0
 10
243.571879
 20
5.539062
 30
0.0
  0
LWPOLYLINE
  5
1d8
100
AcDbEntity
  8
Layer_1
 62
7
100
AcDbPolyline
 90
4
 70
1
 10
250.708916
 20
119.553872
 30
0.0
 10
264.703605
 20
119.553872
 30
0.0
 10
264.703605
 20
105.559182
 30
0.0
 10
250.708916
 20
105.559182
 30
0.0
  0
LWPOLYLINE
  5
1d9
100
AcDbEntity
  8
Layer_1
 62
7
100
AcDbPolyline
 90
4
 70
1
 10
265.008390
 20
76.706248
 30
0.0
 10
279.003079
 20
76.706248
 30
0.0
 10
279.003079
 20
62.686160
 30
0.0
 10
265.008390
 20
62.686160
 30
0.0
  0
LWPOLYLINE
  5
1da
100
AcDbEntity
  8
Layer_1
 62
7
100
AcDbPolyline
 90
4
 70
1
 10
267.370470
 20
19.559150
 30
0.0
 10
281.390558
 20
19.559150
 30
0.0
 10
281.390558
 20
5.539062
 30
0.0
 10
267.370470
 20
5.539062
 30
0.0
  0
LWPOLYLINE
  5
1db
100
AcDbEntity
  8
Layer_1
 62
7
100
AcDbPolyline
 90
4
 70
1
 10
269.757949
 20
119.553872
 30
0.0
 10
283.752638
 20
119.553872
 30
0.0
 10
283.752638
 20
105.559182
 30
0.0
 10
269.757949
 20
105.559182
 30
0.0
  0
LWPOLYLINE
  5
1dc
100
AcDbEntity
  8
Layer_1
 62
7
100
AcDbPolyline
 90
4
 70
1
 10
293.581939
 20
95.755280
 30
0.0
 10
307.576628
 20
95.755280
 30
0.0
 10
307.576628
 20
81.735192
 30
0.0
 10
293.581939
 20
81.735192
 30
0.0
  0
LWPOLYLINE
  5
1dd
100
AcDbEntity
  8
Layer_1
 62
7
100
AcDbPolyline
 90
4
 70
1
 10
293.581939
 20
19.559150
 30
0.0
 10
307.576628
 20
19.559150
 30
0.0
 10
307.576628
 20
5.539062
 30
0.0
 10
293.581939
 20
5.539062
 30
0.0
  0
LWPOLYLINE
  5
1de
100
AcDbEntity
  8
Layer_1
 62
7
100
AcDbPolyline
 90
4
 70
1
 10
293.581939
 20
119.553872
 30
0.0
 10
307.576628
 20
119.553872
 30
0.0
 10
307.576628
 20
105.559182
 30
0.0
 10
293.581939
 20
105.559182
 30
0.0
  0
LWPOLYLINE
  5
1df
100
AcDbEntity
  8
Layer_1
 62
7
100
AcDbPolyline
 90
4
 70
1
 10
293.581939
 20
76.706248
 30
0.0
 10
307.576628
 20
76.706248
 30
0.0
 10
307.576628
 20
62.686160
 30
0.0
 10
293.581939
 20
62.686160
 30
0.0
  0
LWPOLYLINE
  5
1e0
100
AcDbEntity
  8
Layer_1
 62
7
100
AcDbPolyline
 90
4
 70
1
 10
312.630971
 20
95.755280
 30
0.0
 10
326.625660
 20
95.755280
 30
0.0
 10
326.625660
 20
81.735192
 30
0.0
 10
312.630971
 20
81.735192
 30
0.0
  0
LWPOLYLINE
  5
1e1
100
AcDbEntity
  8
Layer_1
 62
7
100
AcDbPolyline
 90
4
 70
1
 10
312.630971
 20
19.559150
 30
0.0
 10
326.625660
 20
19.559150
 30
0.0
 10
326.625660
 20
5.539062
 30
0.0
 10
312.630971
 20
5.539062
 30
0.0
  0
LWPOLYLINE
  5
1e2
100
AcDbEntity
  8
Layer_1
 62
7
100
AcDbPolyline
 90
4
 70
1
 10
312.630971
 20
119.553872
 30
0.0
 10
326.625660
 20
119.553872
 30
0.0
 10
326.625660
 20
105.559182
 30
0.0
 10
312.630971
 20
105.559182
 30
0.0
  0
LWPOLYLINE
  5
1e3
100
AcDbEntity
  8
Layer_1
 62
7
100
AcDbPolyline
 90
4
 70
1
 10
312.630971
 20
76.706248
 30
0.0
 10
326.625660
 20
76.706248
 30
0.0
 10
326.625660
 20
62.686160
 30
0.0
 10
312.630971
 20
62.686160
 30
0.0
  0
LWPOLYLINE
  5
1e4
100
AcDbEntity
  8
Layer_1
 62
7
100
AcDbPolyline
 90
4
 70
1
 10
312.630971
 20
38.608183
 30
0.0
 10
326.625660
 20
38.608183
 30
0.0
 10
326.625660
 20
24.588095
 30
0.0
 10
312.630971
 20
24.588095
 30
0.0
  0
LWPOLYLINE
  5
1e5
100
AcDbEntity
  8
Layer_1
 62
7
100
AcDbPolyline
 90
4
 70
1
 10
331.680004
 20
95.755280
 30
0.0
 10
345.674693
 20
95.755280
 30
0.0
 10
345.674693
 20
81.735192
 30
0.0
 10
331.680004
 20
81.735192
 30
0.0
  0
LWPOLYLINE
  5
1e6
100
AcDbEntity
  8
Layer_1
 62
7
100
AcDbPolyline
 90
4
 70
1
 10
331.680004
 20
19.559150
 30
0.0
 10
345.674693
 20
19.559150
 30
0.0
 10
345.674693
 20
5.539062
 30
0.0
 10
331.680004
 20
5.539062
 30
0.0
  0
LWPOLYLINE
  5
1e7
100
AcDbEntity
  8
Layer_1
 62
7
100
AcDbPolyline
 90
4
 70
1
 10
331.680004
 20
119.553872
 30
0.0
 10
345.674693
 20
119.553872
 30
0.0
 10
345.674693
 20
105.559182
 30
0.0
 10
331.680004
 20
105.559182
 30
0.0
  0
LWPOLYLINE
  5
1e8
100
AcDbEntity
  8
Layer_1
 62
7
100
AcDbPolyline
 90
4
 70
1
 10
331.680004
 20
76.706248
 30
0.0
 10
345.674693
 20
76.706248
 30
0.0
 10
345.674693
 20
62.686160
 30
0.0
 10
331.680004
 20
62.686160
 30
0.0
  0
LWPOLYLINE
  5
1e9
100
AcDbEntity
  8
Layer_1
 62
7
100
AcDbPolyline
 90
36
 70
1
 10
37.207360
 20
31.064766
 30
0.0
 10
37.207360
 20
24.816683
 30
0.0
 10
35.581842
 20
24.816683
 30
0.0
 10
35.581842
 20
23.597545
 30
0.0
 10
32.280010
 20
23.597545
 30
0.0
 10
32.280010
 20
24.816683
 30
0.0
 10
30.552898
 20
24.816683
 30
0.0
 10
30.552898
 20
25.604043
 30
0.0
 10
28.978178
 20
25.604043
 30
0.0
 10
28.978178
 20
24.588095
 30
0.0
 10
14.983489
 20
24.588095
 30
0.0
 10
14.983489
 20
25.604043
 30
0.0
 10
13.408768
 20
25.604043
 30
0.0
 10
13.408768
 20
24.816683
 30
0.0
 10
11.681656
 20
24.816683
 30
0.0
 10
11.681656
 20
23.597545
 30
0.0
 10
8.379824
 20
23.597545
 30
0.0
 10
8.379824
 20
24.816683
 30
0.0
 10
6.754306
 20
24.816683
 30
0.0
 10
6.754306
 20
31.064766
 30
0.0
 10
5.865352
 20
31.064766
 30
0.0
 10
5.865352
 20
33.884023
 30
0.0
 10
6.754306
 20
33.884023
 30
0.0
 10
6.754306
 20
37.109659
 30
0.0
 10
13.408768
 20
37.109659
 30
0.0
 10
13.408768
 20
36.296900
 30
0.0
 10
14.983489
 20
36.296900
 30
0.0
 10
14.983489
 20
38.582784
 30
0.0
 10
28.978178
 20
38.582784
 30
0.0
 10
28.978178
 20
36.296900
 30
0.0
 10
30.552898
 20
36.296900
 30
0.0
 10
30.552898
 20
37.109659
 30
0.0
 10
37.207360
 20
37.109659
 30
0.0
 10
37.207360
 20
33.884023
 30
0.0
 10
38.070916
 20
33.884023
 30
0.0
 10
38.070916
 20
31.064766
 30
0.0
  0
LWPOLYLINE
  5
1ea
100
AcDbEntity
  8
Layer_1
 62
7
100
AcDbPolyline
 90
7
 70
0
 10
184.824662
 20
12.015734
 30
0.0
 10
184.824662
 20
5.767651
 30
0.0
 10
183.148347
 20
5.767651
 30
0.0
 10
183.148347
 20
4.548513
 30
0.0
 10
179.846515
 20
4.548513
 30
0.0
 10
179.846515
 20
5.767651
 30
0.0
 10
178.170200
 20
5.767651
 30
0.0
  0
LWPOLYLINE
  5
1eb
100
AcDbEntity
  8
Layer_1
 62
7
100
AcDbPolyline
 90
4
 70
0
 10
138.497415
 20
19.533752
 30
0.0
 10
138.497415
 20
5.539062
 30
0.0
 10
124.502726
 20
5.539062
 30
0.0
 10
124.502726
 20
19.533752
 30
0.0
  0
LWPOLYLINE
  5
1ec
100
AcDbEntity
  8
Layer_1
 62
7
100
AcDbPolyline
 90
13
 70
0
 10
84.829941
 20
5.767651
 30
0.0
 10
83.153626
 20
5.767651
 30
0.0
 10
83.153626
 20
4.548513
 30
0.0
 10
79.851794
 20
4.548513
 30
0.0
 10
79.851794
 20
5.767651
 30
0.0
 10
78.175479
 20
5.767651
 30
0.0
 10
78.175479
 20
12.015734
 30
0.0
 10
77.311923
 20
12.015734
 30
0.0
 10
77.311923
 20
14.834990
 30
0.0
 10
78.175479
 20
14.834990
 30
0.0
 10
78.175479
 20
18.060626
 30
0.0
 10
84.829941
 20
18.060626
 30
0.0
 10
84.829941
 20
14.834990
 30
0.0
  0
LWPOLYLINE
  5
1ed
100
AcDbEntity
  8
Layer_1
 62
7
100
AcDbPolyline
 90
2
 70
0
 10
124.502726
 20
19.533752
 30
0.0
 10
138.497415
 20
19.533752
 30
0.0
  0
LWPOLYLINE
  5
1ee
100
AcDbEntity
  8
Layer_1
 62
7
100
AcDbPolyline
 90
7
 70
0
 10
178.170200
 20
14.834990
 30
0.0
 10
178.170200
 20
18.060626
 30
0.0
 10
184.824662
 20
18.060626
 30
0.0
 10
184.824662
 20
14.834990
 30
0.0
 10
185.713617
 20
14.834990
 30
0.0
 10
185.713617
 20
12.015734
 30
0.0
 10
184.824662
 20
12.015734
 30
0.0
  0
LWPOLYLINE
  5
1ef
100
AcDbEntity
  8
Layer_1
 62
7
100
AcDbPolyline
 90
36
 70
1
 10
275.320266
 20
31.064766
 30
0.0
 10
275.320266
 20
24.816683
 30
0.0
 10
273.694749
 20
24.816683
 30
0.0
 10
273.694749
 20
23.597545
 30
0.0
 10
270.392916
 20
23.597545
 30
0.0
 10
270.392916
 20
24.816683
 30
0.0
 10
268.665804
 20
24.816683
 30
0.0
 10
268.665804
 20
25.604043
 30
0.0
 10
267.091084
 20
25.604043
 30
0.0
 10
267.091084
 20
24.588095
 30
0.0
 10
253.096395
 20
24.588095
 30
0.0
 10
253.096395
 20
25.604043
 30
0.0
 10
251.521675
 20
25.604043
 30
0.0
 10
251.521675
 20
24.816683
 30
0.0
 10
249.794562
 20
24.816683
 30
0.0
 10
249.794562
 20
23.597545
 30
0.0
 10
246.492730
 20
23.597545
 30
0.0
 10
246.492730
 20
24.816683
 30
0.0
 10
244.867213
 20
24.816683
 30
0.0
 10
244.867213
 20
31.064766
 30
0.0
 10
243.978258
 20
31.064766
 30
0.0
 10
243.978258
 20
33.884023
 30
0.0
 10
244.867213
 20
33.884023
 30
0.0
 10
244.867213
 20
37.109659
 30
0.0
 10
251.521675
 20
37.109659
 30
0.0
 10
251.521675
 20
36.296900
 30
0.0
 10
253.096395
 20
36.296900
 30
0.0
 10
253.096395
 20
38.582784
 30
0.0
 10
267.091084
 20
38.582784
 30
0.0
 10
267.091084
 20
36.296900
 30
0.0
 10
268.665804
 20
36.296900
 30
0.0
 10
268.665804
 20
37.109659
 30
0.0
 10
275.320266
 20
37.109659
 30
0.0
 10
275.320266
 20
33.884023
 30
0.0
 10
276.183822
 20
33.884023
 30
0.0
 10
276.183822
 20
31.064766
 30
0.0
  0
LWPOLYLINE
  5
1f0
100
AcDbEntity
  8
Layer_1
 62
7
100
AcDbPolyline
 90
36
 70
1
 10
280.069825
 20
50.113799
 30
0.0
 10
280.069825
 20
43.865716
 30
0.0
 10
278.444307
 20
43.865716
 30
0.0
 10
278.444307
 20
42.646578
 30
0.0
 10
275.142475
 20
42.646578
 30
0.0
 10
275.142475
 20
43.865716
 30
0.0
 10
273.415363
 20
43.865716
 30
0.0
 10
273.415363
 20
44.653076
 30
0.0
 10
271.840643
 20
44.653076
 30
0.0
 10
271.840643
 20
43.637127
 30
0.0
 10
257.845954
 20
43.637127
 30
0.0
 10
257.845954
 20
44.653076
 30
0.0
 10
256.271234
 20
44.653076
 30
0.0
 10
256.271234
 20
43.865716
 30
0.0
 10
254.544121
 20
43.865716
 30
0.0
 10
254.544121
 20
42.646578
 30
0.0
 10
251.242289
 20
42.646578
 30
0.0
 10
251.242289
 20
43.865716
 30
0.0
 10
249.616771
 20
43.865716
 30
0.0
 10
249.616771
 20
50.113799
 30
0.0
 10
248.753215
 20
50.113799
 30
0.0
 10
248.753215
 20
52.933055
 30
0.0
 10
249.616771
 20
52.933055
 30
0.0
 10
249.616771
 20
56.158691
 30
0.0
 10
256.271234
 20
56.158691
 30
0.0
 10
256.271234
 20
55.345933
 30
0.0
 10
257.845954
 20
55.345933
 30
0.0
 10
257.845954
 20
57.631817
 30
0.0
 10
271.840643
 20
57.631817
 30
0.0
 10
271.840643
 20
55.345933
 30
0.0
 10
273.415363
 20
55.345933
 30
0.0
 10
273.415363
 20
56.158691
 30
0.0
 10
280.069825
 20
56.158691
 30
0.0
 10
280.069825
 20
52.933055
 30
0.0
 10
280.958780
 20
52.933055
 30
0.0
 10
280.958780
 20
50.113799
 30
0.0
  0
SPLINE
  5
1f1
100
AcDbEntity
  8
Layer_1
 62
1
100
AcDbSpline
 70
8
 71
3
 72
8
 73
4
 74
0
 40
0
 40
0
 40
0
 40
0
 40
1
 40
1
 40
1
 40
1
 10
284.768586
 20
69.696204
 30
0.0
 10
284.768586
 20
69.423981
 30
0.0
 10
284.623357
 20
69.172437
 30
0.0
 10
284.387605
 20
69.036326
 30
0.0
  0
SPLINE
  5
1f2
100
AcDbEntity
  8
Layer_1
 62
1
100
AcDbSpline
 70
8
 71
3
 72
8
 73
4
 74
0
 40
0
 40
0
 40
0
 40
0
 40
1
 40
1
 40
1
 40
1
 10
284.387605
 20
69.036326
 30
0.0
 10
284.151854
 20
68.900215
 30
0.0
 10
283.861396
 20
68.900215
 30
0.0
 10
283.625644
 20
69.036326
 30
0.0
  0
SPLINE
  5
1f3
100
AcDbEntity
  8
Layer_1
 62
1
100
AcDbSpline
 70
8
 71
3
 72
8
 73
4
 74
0
 40
0
 40
0
 40
0
 40
0
 40
1
 40
1
 40
1
 40
1
 10
283.625644
 20
69.036326
 30
0.0
 10
283.389893
 20
69.172437
 30
0.0
 10
283.244664
 20
69.423981
 30
0.0
 10
283.244664
 20
69.696204
 30
0.0
  0
SPLINE
  5
1f4
100
AcDbEntity
  8
Layer_1
 62
1
100
AcDbSpline
 70
8
 71
3
 72
8
 73
4
 74
0
 40
0
 40
0
 40
0
 40
0
 40
1
 40
1
 40
1
 40
1
 10
283.244664
 20
69.696204
 30
0.0
 10
283.244664
 20
69.968426
 30
0.0
 10
283.389893
 20
70.219970
 30
0.0
 10
283.625644
 20
70.356082
 30
0.0
  0
SPLINE
  5
1f5
100
AcDbEntity
  8
Layer_1
 62
1
100
AcDbSpline
 70
8
 71
3
 72
8
 73
4
 74
0
 40
0
 40
0
 40
0
 40
0
 40
1
 40
1
 40
1
 40
1
 10
283.625644
 20
70.356082
 30
0.0
 10
283.861396
 20
70.492193
 30
0.0
 10
284.151854
 20
70.492193
 30
0.0
 10
284.387605
 20
70.356082
 30
0.0
  0
SPLINE
  5
1f6
100
AcDbEntity
  8
Layer_1
 62
1
100
AcDbSpline
 70
8
 71
3
 72
8
 73
4
 74
0
 40
0
 40
0
 40
0
 40
0
 40
1
 40
1
 40
1
 40
1
 10
284.387605
 20
70.356082
 30
0.0
 10
284.623357
 20
70.219970
 30
0.0
 10
284.768586
 20
69.968426
 30
0.0
 10
284.768586
 20
69.696204
 30
0.0
  0
LWPOLYLINE
  5
1f7
100
AcDbEntity
  8
Layer_1
 62
7
100
AcDbPolyline
 90
36
 70
1
 10
282.457304
 20
88.211864
 30
0.0
 10
282.457304
 20
81.963781
 30
0.0
 10
280.831786
 20
81.963781
 30
0.0
 10
280.831786
 20
80.744643
 30
0.0
 10
277.529954
 20
80.744643
 30
0.0
 10
277.529954
 20
81.963781
 30
0.0
 10
275.802842
 20
81.963781
 30
0.0
 10
275.802842
 20
82.751141
 30
0.0
 10
274.228121
 20
82.751141
 30
0.0
 10
274.228121
 20
81.735192
 30
0.0
 10
260.233432
 20
81.735192
 30
0.0
 10
260.233432
 20
82.751141
 30
0.0
 10
258.658712
 20
82.751141
 30
0.0
 10
258.658712
 20
81.963781
 30
0.0
 10
256.931600
 20
81.963781
 30
0.0
 10
256.931600
 20
80.744643
 30
0.0
 10
253.629768
 20
80.744643
 30
0.0
 10
253.629768
 20
81.963781
 30
0.0
 10
252.004250
 20
81.963781
 30
0.0
 10
252.004250
 20
88.211864
 30
0.0
 10
251.140694
 20
88.211864
 30
0.0
 10
251.140694
 20
91.031120
 30
0.0
 10
252.004250
 20
91.031120
 30
0.0
 10
252.004250
 20
94.256756
 30
0.0
 10
258.658712
 20
94.256756
 30
0.0
 10
258.658712
 20
93.443998
 30
0.0
 10
260.233432
 20
93.443998
 30
0.0
 10
260.233432
 20
95.729882
 30
0.0
 10
274.228121
 20
95.729882
 30
0.0
 10
274.228121
 20
93.443998
 30
0.0
 10
275.802842
 20
93.443998
 30
0.0
 10
275.802842
 20
94.256756
 30
0.0
 10
282.457304
 20
94.256756
 30
0.0
 10
282.457304
 20
91.031120
 30
0.0
 10
283.320860
 20
91.031120
 30
0.0
 10
283.320860
 20
88.211864
 30
0.0
  0
SPLINE
  5
1f8
100
AcDbEntity
  8
Layer_1
 62
1
100
AcDbSpline
 70
8
 71
3
 72
8
 73
4
 74
0
 40
0
 40
0
 40
0
 40
0
 40
1
 40
1
 40
1
 40
1
 10
91.738390
 20
59.130341
 30
0.0
 10
91.738390
 20
58.858118
 30
0.0
 10
91.593161
 20
58.606574
 30
0.0
 10
91.357409
 20
58.470463
 30
0.0
  0
SPLINE
  5
1f9
100
AcDbEntity
  8
Layer_1
 62
1
100
AcDbSpline
 70
8
 71
3
 72
8
 73
4
 74
0
 40
0
 40
0
 40
0
 40
0
 40
1
 40
1
 40
1
 40
1
 10
91.357409
 20
58.470463
 30
0.0
 10
91.121658
 20
58.334351
 30
0.0
 10
90.831200
 20
58.334351
 30
0.0
 10
90.595448
 20
58.470463
 30
0.0
  0
SPLINE
  5
1fa
100
AcDbEntity
  8
Layer_1
 62
1
100
AcDbSpline
 70
8
 71
3
 72
8
 73
4
 74
0
 40
0
 40
0
 40
0
 40
0
 40
1
 40
1
 40
1
 40
1
 10
90.595448
 20
58.470463
 30
0.0
 10
90.359697
 20
58.606574
 30
0.0
 10
90.214468
 20
58.858118
 30
0.0
 10
90.214468
 20
59.130341
 30
0.0
  0
SPLINE
  5
1fb
100
AcDbEntity
  8
Layer_1
 62
1
100
AcDbSpline
 70
8
 71
3
 72
8
 73
4
 74
0
 40
0
 40
0
 40
0
 40
0
 40
1
 40
1
 40
1
 40
1
 10
90.214468
 20
59.130341
 30
0.0
 10
90.214468
 20
59.402563
 30
0.0
 10
90.359697
 20
59.654107
 30
0.0
 10
90.595448
 20
59.790218
 30
0.0
  0
SPLINE
  5
1fc
100
AcDbEntity
  8
Layer_1
 62
1
100
AcDbSpline
 70
8
 71
3
 72
8
 73
4
 74
0
 40
0
 40
0
 40
0
 40
0
 40
1
 40
1
 40
1
 40
1
 10
90.595448
 20
59.790218
 30
0.0
 10
90.831200
 20
59.926330
 30
0.0
 10
91.121658
 20
59.926330
 30
0.0
 10
91.357409
 20
59.790218
 30
0.0
  0
SPLINE
  5
1fd
100
AcDbEntity
  8
Layer_1
 62
1
100
AcDbSpline
 70
8
 71
3
 72
8
 73
4
 74
0
 40
0
 40
0
 40
0
 40
0
 40
1
 40
1
 40
1
 40
1
 10
91.357409
 20
59.790218
 30
0.0
 10
91.593161
 20
59.654107
 30
0.0
 10
91.738390
 20
59.402563
 30
0.0
 10
91.738390
 20
59.130341
 30
0.0
  0
LWPOLYLINE
  5
1fe
100
AcDbEntity
  8
Layer_1
 62
1
100
AcDbPolyline
 90
1
 70
1
 10
284.768586
 20
69.696204
 30
0.0
  0
LWPOLYLINE
  5
1ff
100
AcDbEntity
  8
Layer_1
 62
1
100
AcDbPolyline
 90
1
 70
1
 10
91.738390
 20
59.130341
 30
0.0
  0
ENDSEC
  0
SECTION
  2
OBJECTS
  0
DICTIONARY
  5
C
330
0
100
AcDbDictionary
  3
ACAD_GROUP
350
D
  3
ACAD_MLINESTYLE
350
17
  0
DICTIONARY
  5
D
330
C
100
AcDbDictionary
  0
DICTIONARY
  5
1A
330
C
100
AcDbDictionary
  0
DICTIONARY
  5
17
330
C
100
AcDbDictionary
  3
STANDARD
350
18
  0
DICTIONARY
  5
19
330
C
100
AcDbDictionary
  0
ENDSEC
  0
EOF
