  0
SECTION
  2
HEADER
  9
$ACADVER
  1
AC1014
  9
$HANDSEED
  5
FFFF
  9
$MEASUREMENT
 70
     1
  0
ENDSEC
  0
SECTION
  2
TABLES
  0
TABLE
  2
VPORT
  5
8
330
0
100
AcDbSymbolTable
 70
     4
  0
VPORT
  5
2E
330
8
100
AcDbSymbolTableRecord
100
AcDbViewportTableRecord
  2
*ACTIVE
 70
     0
 10
0.0
 20
0.0
 11
1.0
 21
1.0
 12
210.0
 22
148.5
 13
0.0
 23
0.0
 14
10.0
 24
10.0
 15
10.0
 25
10.0
 16
0.0
 26
0.0
 36
1.0
 17
0.0
 27
0.0
 37
0.0
 40
341.0
 41
1.24
 42
50.0
 43
0.0
 44
0.0
 50
0.0
 51
0.0
 71
     0
 72
   100
 73
     1
 74
     3
 75
     0
 76
     0
 77
     0
 78
     0
  0
ENDTAB
  0
TABLE
  2
LTYPE
  5
5
330
0
100
AcDbSymbolTable
 70
     1
  0
LTYPE
  5
14
330
5
100
AcDbSymbolTableRecord
100
AcDbLinetypeTableRecord
  2
BYBLOCK
 70
     0
  3

 72
    65
 73
     0
 40
0.0
  0
LTYPE
  5
15
330
5
100
AcDbSymbolTableRecord
100
AcDbLinetypeTableRecord
  2
BYLAYER
 70
     0
  3

 72
    65
 73
     0
 40
0.0
  0
LTYPE
  5
16
330
5
100
AcDbSymbolTableRecord
100
AcDbLinetypeTableRecord
  2
CONTINUOUS
 70
     0
  3
Solid line
 72
    65
 73
     0
 40
0.0
  0
ENDTAB
  0
TABLE
  2
LAYER
  5
2
100
AcDbSymbolTable
 70
1
  0
LAYER
  5
50
100
AcDbSymbolTableRecord
100
AcDbLayerTableRecord
  2
0
 70
0
  6
CONTINUOUS
  0
ENDTAB
  0
TABLE
  2
STYLE
  5
3
330
0
100
AcDbSymbolTable
 70
     1
  0
STYLE
  5
11
330
3
100
AcDbSymbolTableRecord
100
AcDbTextStyleTableRecord
  2
STANDARD
 70
     0
 40
0.0
 41
1.0
 50
0.0
 71
     0
 42
2.5
  3
txt
  4

  0
ENDTAB
  0
TABLE
  2
VIEW
  5
6
330
0
100
AcDbSymbolTable
 70
     0
  0
ENDTAB
  0
TABLE
  2
UCS
  5
7
330
0
100
AcDbSymbolTable
 70
     0
  0
ENDTAB
  0
TABLE
  2
APPID
  5
9
330
0
100
AcDbSymbolTable
 70
     2
  0
APPID
  5
12
330
9
100
AcDbSymbolTableRecord
100
AcDbRegAppTableRecord
  2
ACAD
 70
     0
  0
ENDTAB
  0
TABLE
  2
DIMSTYLE
  5
A
330
0
100
AcDbSymbolTable
 70
     1
  0
DIMSTYLE
105
27
330
A
100
AcDbSymbolTableRecord
100
AcDbDimStyleTableRecord
  2
ISO-25
 70
     0
  3

  4

  5

  6

  7

 40
1.0
 41
2.5
 42
0.625
 43
3.75
 44
1.25
 45
0.0
 46
0.0
 47
0.0
 48
0.0
140
2.5
141
2.5
142
0.0
143
0.03937007874016
144
1.0
145
0.0
146
1.0
147
0.625
 71
     0
 72
     0
 73
     0
 74
     0
 75
     0
 76
     0
 77
     1
 78
     8
170
     0
171
     3
172
     1
173
     0
174
     0
175
     0
176
     0
177
     0
178
     0
270
     2
271
     2
272
     2
273
     2
274
     3
340
11
275
     0
280
     0
281
     0
282
     0
283
     0
284
     8
285
     0
286
     0
287
     3
288
     0
  0
ENDTAB
  0
TABLE
  2
BLOCK_RECORD
  5
1
330
0
100
AcDbSymbolTable
 70
     1
  0
BLOCK_RECORD
  5
1F
330
1
100
AcDbSymbolTableRecord
100
AcDbBlockTableRecord
  2
*MODEL_SPACE
  0
BLOCK_RECORD
  5
1B
330
1
100
AcDbSymbolTableRecord
100
AcDbBlockTableRecord
  2
*PAPER_SPACE
  0
ENDTAB
  0
ENDSEC
  0
SECTION
  2
BLOCKS
  0
BLOCK
  5
20
330
1F
100
AcDbEntity
  8
0
100
AcDbBlockBegin
  2
*MODEL_SPACE
 70
     0
 10
0.0
 20
0.0
 30
0.0
  3
*MODEL_SPACE
  1

  0
ENDBLK
  5
21
330
1F
100
AcDbEntity
  8
0
100
AcDbBlockEnd
  0
BLOCK
  5
1C
330
1B
100
AcDbEntity
 67
     1
  8
0
100
AcDbBlockBegin
  2
*PAPER_SPACE
  1

  0
ENDBLK
  5
1D
330
1B
100
AcDbEntity
 67
     1
  8
0
100
AcDbBlockEnd
  0
ENDSEC
  0
SECTION
  2
ENTITIES
  0
SPLINE
  5
100
100
AcDbEntity
  8
0
 62
7
100
AcDbSpline
 70
8
 71
3
 72
8
 73
4
 74
0
 40
0
 40
0
 40
0
 40
0
 40
1
 40
1
 40
1
 40
1
 10
45.463690
 20
3.393235
 30
0.0
 10
45.463690
 20
2.199496
 30
0.0
 10
46.505038
 20
1.386737
 30
0.0
 10
47.698777
 20
1.386737
 30
0.0
  0
SPLINE
  5
101
100
AcDbEntity
  8
0
 62
7
100
AcDbSpline
 70
8
 71
3
 72
8
 73
4
 74
0
 40
0
 40
0
 40
0
 40
0
 40
1
 40
1
 40
1
 40
1
 10
47.698777
 20
1.386737
 30
0.0
 10
48.892516
 20
1.386737
 30
0.0
 10
49.959262
 20
2.199496
 30
0.0
 10
49.959262
 20
3.393235
 30
0.0
  0
LWPOLYLINE
  5
102
100
AcDbEntity
  8
0
 62
7
100
AcDbPolyline
 90
3
 70
0
 10
20.166576
 20
5.425132
 30
0.0
 10
45.463690
 20
5.425132
 30
0.0
 10
45.463690
 20
3.393235
 30
0.0
  0
SPLINE
  5
103
100
AcDbEntity
  8
0
 62
7
100
AcDbSpline
 70
8
 71
3
 72
8
 73
4
 74
0
 40
0
 40
0
 40
0
 40
0
 40
1
 40
1
 40
1
 40
1
 10
137.254627
 20
3.393235
 30
0.0
 10
137.254627
 20
2.326489
 30
0.0
 10
138.422968
 20
1.386737
 30
0.0
 10
139.489714
 20
1.386737
 30
0.0
  0
SPLINE
  5
104
100
AcDbEntity
  8
0
 62
7
100
AcDbSpline
 70
8
 71
3
 72
8
 73
4
 74
0
 40
0
 40
0
 40
0
 40
0
 40
1
 40
1
 40
1
 40
1
 10
139.489714
 20
1.386737
 30
0.0
 10
140.556460
 20
1.386737
 30
0.0
 10
141.750199
 20
2.326489
 30
0.0
 10
141.750199
 20
3.393235
 30
0.0
  0
LWPOLYLINE
  5
105
100
AcDbEntity
  8
0
 62
7
100
AcDbPolyline
 90
4
 70
0
 10
49.959262
 20
3.393235
 30
0.0
 10
49.959262
 20
5.425132
 30
0.0
 10
137.254627
 20
5.425132
 30
0.0
 10
137.254627
 20
3.393235
 30
0.0
  0
SPLINE
  5
106
100
AcDbEntity
  8
0
 62
7
100
AcDbSpline
 70
8
 71
3
 72
8
 73
4
 74
0
 40
0
 40
0
 40
0
 40
0
 40
1
 40
1
 40
1
 40
1
 10
223.000672
 20
3.393235
 30
0.0
 10
223.000672
 20
2.224894
 30
0.0
 10
224.067417
 20
1.386737
 30
0.0
 10
225.235758
 20
1.386737
 30
0.0
  0
SPLINE
  5
107
100
AcDbEntity
  8
0
 62
7
100
AcDbSpline
 70
8
 71
3
 72
8
 73
4
 74
0
 40
0
 40
0
 40
0
 40
0
 40
1
 40
1
 40
1
 40
1
 10
225.235758
 20
1.386737
 30
0.0
 10
226.429497
 20
1.386737
 30
0.0
 10
227.496243
 20
2.199496
 30
0.0
 10
227.496243
 20
3.367836
 30
0.0
  0
LWPOLYLINE
  5
108
100
AcDbEntity
  8
0
 62
7
100
AcDbPolyline
 90
4
 70
0
 10
141.750199
 20
3.393235
 30
0.0
 10
141.775598
 20
5.425132
 30
0.0
 10
223.000672
 20
5.425132
 30
0.0
 10
223.000672
 20
3.393235
 30
0.0
  0
SPLINE
  5
109
100
AcDbEntity
  8
0
 62
7
100
AcDbSpline
 70
8
 71
3
 72
8
 73
4
 74
0
 40
0
 40
0
 40
0
 40
0
 40
1
 40
1
 40
1
 40
1
 10
306.562427
 20
3.393235
 30
0.0
 10
306.562427
 20
2.224894
 30
0.0
 10
307.629172
 20
1.386737
 30
0.0
 10
308.797513
 20
1.386737
 30
0.0
  0
SPLINE
  5
10a
100
AcDbEntity
  8
0
 62
7
100
AcDbSpline
 70
8
 71
3
 72
8
 73
4
 74
0
 40
0
 40
0
 40
0
 40
0
 40
1
 40
1
 40
1
 40
1
 10
308.797513
 20
1.386737
 30
0.0
 10
309.991252
 20
1.386737
 30
0.0
 10
311.057998
 20
2.224894
 30
0.0
 10
311.057998
 20
3.393235
 30
0.0
  0
LWPOLYLINE
  5
10b
100
AcDbEntity
  8
0
 62
7
100
AcDbPolyline
 90
4
 70
0
 10
227.496243
 20
3.367836
 30
0.0
 10
227.496243
 20
5.399733
 30
0.0
 10
306.562427
 20
5.425132
 30
0.0
 10
306.562427
 20
3.393235
 30
0.0
  0
LWPOLYLINE
  5
10c
100
AcDbEntity
  8
0
 62
7
100
AcDbPolyline
 90
3
 70
0
 10
311.057998
 20
3.393235
 30
0.0
 10
311.057998
 20
5.425132
 30
0.0
 10
368.789266
 20
5.425132
 30
0.0
  0
LWPOLYLINE
  5
10d
100
AcDbEntity
  8
0
 62
7
100
AcDbPolyline
 90
6
 70
0
 10
368.789266
 20
5.374334
 30
0.0
 10
368.789266
 20
-39.378192
 30
0.0
 10
363.328543
 20
-39.378192
 30
0.0
 10
363.328543
 20
-41.384690
 30
0.0
 10
368.789266
 20
-41.359291
 30
0.0
 10
368.789266
 20
-119.612716
 30
0.0
  0
SPLINE
  5
10e
100
AcDbEntity
  8
0
 62
7
100
AcDbSpline
 70
8
 71
3
 72
8
 73
4
 74
0
 40
0
 40
0
 40
0
 40
0
 40
1
 40
1
 40
1
 40
1
 10
310.270638
 20
-117.098244
 30
0.0
 10
310.270638
 20
-115.929903
 30
0.0
 10
309.153095
 20
-115.091746
 30
0.0
 10
308.010153
 20
-115.091746
 30
0.0
  0
SPLINE
  5
10f
100
AcDbEntity
  8
0
 62
7
100
AcDbSpline
 70
8
 71
3
 72
8
 73
4
 74
0
 40
0
 40
0
 40
0
 40
0
 40
1
 40
1
 40
1
 40
1
 10
308.010153
 20
-115.091746
 30
0.0
 10
306.816414
 20
-115.091746
 30
0.0
 10
305.749668
 20
-115.929903
 30
0.0
 10
305.749668
 20
-117.098244
 30
0.0
  0
LWPOLYLINE
  5
110
100
AcDbEntity
  8
0
 62
7
100
AcDbPolyline
 90
7
 70
0
 10
368.789266
 20
-119.587317
 30
0.0
 10
349.968822
 20
-119.587317
 30
0.0
 10
349.968822
 20
-115.625119
 30
0.0
 10
348.038520
 20
-115.625119
 30
0.0
 10
348.038520
 20
-119.587317
 30
0.0
 10
310.270638
 20
-119.587317
 30
0.0
 10
310.270638
 20
-117.098244
 30
0.0
  0
SPLINE
  5
111
100
AcDbEntity
  8
0
 62
7
100
AcDbSpline
 70
8
 71
3
 72
8
 73
4
 74
0
 40
0
 40
0
 40
0
 40
0
 40
1
 40
1
 40
1
 40
1
 10
209.107577
 20
-117.098244
 30
0.0
 10
209.107577
 20
-115.904505
 30
0.0
 10
208.040832
 20
-115.091746
 30
0.0
 10
206.847092
 20
-115.091746
 30
0.0
  0
SPLINE
  5
112
100
AcDbEntity
  8
0
 62
7
100
AcDbSpline
 70
8
 71
3
 72
8
 73
4
 74
0
 40
0
 40
0
 40
0
 40
0
 40
1
 40
1
 40
1
 40
1
 10
206.847092
 20
-115.091746
 30
0.0
 10
205.653353
 20
-115.091746
 30
0.0
 10
204.637404
 20
-115.904505
 30
0.0
 10
204.637404
 20
-117.098244
 30
0.0
  0
LWPOLYLINE
  5
113
100
AcDbEntity
  8
0
 62
7
100
AcDbPolyline
 90
8
 70
0
 10
305.749668
 20
-117.098244
 30
0.0
 10
305.749668
 20
-119.587317
 30
0.0
 10
259.803402
 20
-119.587317
 30
0.0
 10
259.803402
 20
-115.599720
 30
0.0
 10
257.796904
 20
-115.599720
 30
0.0
 10
257.796904
 20
-119.587317
 30
0.0
 10
209.107577
 20
-119.587317
 30
0.0
 10
209.107577
 20
-117.098244
 30
0.0
  0
SPLINE
  5
114
100
AcDbEntity
  8
0
 62
7
100
AcDbSpline
 70
8
 71
3
 72
8
 73
4
 74
0
 40
0
 40
0
 40
0
 40
0
 40
1
 40
1
 40
1
 40
1
 10
98.369203
 20
-117.098244
 30
0.0
 10
98.369203
 20
-115.904505
 30
0.0
 10
97.302457
 20
-115.091746
 30
0.0
 10
96.134116
 20
-115.091746
 30
0.0
  0
SPLINE
  5
115
100
AcDbEntity
  8
0
 62
7
100
AcDbSpline
 70
8
 71
3
 72
8
 73
4
 74
0
 40
0
 40
0
 40
0
 40
0
 40
1
 40
1
 40
1
 40
1
 10
96.134116
 20
-115.091746
 30
0.0
 10
94.940377
 20
-115.091746
 30
0.0
 10
93.924429
 20
-115.904505
 30
0.0
 10
93.924429
 20
-117.098244
 30
0.0
  0
LWPOLYLINE
  5
116
100
AcDbEntity
  8
0
 62
7
100
AcDbPolyline
 90
12
 70
0
 10
204.637404
 20
-117.098244
 30
0.0
 10
204.637404
 20
-119.587317
 30
0.0
 10
172.076259
 20
-119.587317
 30
0.0
 10
172.076259
 20
-115.599720
 30
0.0
 10
170.069760
 20
-115.599720
 30
0.0
 10
170.069760
 20
-119.587317
 30
0.0
 10
133.063840
 20
-119.587317
 30
0.0
 10
133.063840
 20
-115.599720
 30
0.0
 10
131.082741
 20
-115.599720
 30
0.0
 10
131.082741
 20
-119.587317
 30
0.0
 10
98.369203
 20
-119.587317
 30
0.0
 10
98.369203
 20
-117.098244
 30
0.0
  0
LWPOLYLINE
  5
117
100
AcDbEntity
  8
0
 62
7
100
AcDbPolyline
 90
12
 70
0
 10
93.924429
 20
-117.098244
 30
0.0
 10
93.924429
 20
-119.587317
 30
0.0
 10
69.313079
 20
-119.587317
 30
0.0
 10
69.313079
 20
-115.625119
 30
0.0
 10
67.408176
 20
-115.625119
 30
0.0
 10
67.408176
 20
-119.587317
 30
0.0
 10
20.166576
 20
-119.587317
 30
0.0
 10
20.141177
 20
-67.164381
 30
0.0
 10
25.652697
 20
-67.164381
 30
0.0
 10
25.652697
 20
-65.157882
 30
0.0
 10
20.141177
 20
-65.157882
 30
0.0
 10
20.166576
 20
5.425132
 30
0.0
  0
LWPOLYLINE
  5
118
100
AcDbEntity
  8
0
 62
7
100
AcDbPolyline
 90
4
 70
1
 10
23.163623
 20
-0.086388
 30
0.0
 10
37.158312
 20
-0.086388
 30
0.0
 10
37.158312
 20
-14.081077
 30
0.0
 10
23.163623
 20
-14.081077
 30
0.0
  0
LWPOLYLINE
  5
119
100
AcDbEntity
  8
0
 62
7
100
AcDbPolyline
 90
4
 70
1
 10
23.163623
 20
-23.884979
 30
0.0
 10
37.158312
 20
-23.884979
 30
0.0
 10
37.158312
 20
-37.905067
 30
0.0
 10
23.163623
 20
-37.905067
 30
0.0
  0
LWPOLYLINE
  5
11a
100
AcDbEntity
  8
0
 62
7
100
AcDbPolyline
 90
4
 70
1
 10
25.551102
 20
-100.081108
 30
0.0
 10
39.545791
 20
-100.081108
 30
0.0
 10
39.545791
 20
-114.101196
 30
0.0
 10
25.551102
 20
-114.101196
 30
0.0
  0
LWPOLYLINE
  5
11b
100
AcDbEntity
  8
0
 62
7
100
AcDbPolyline
 90
4
 70
1
 10
27.938581
 20
-42.934011
 30
0.0
 10
41.933270
 20
-42.934011
 30
0.0
 10
41.933270
 20
-56.954099
 30
0.0
 10
27.938581
 20
-56.954099
 30
0.0
  0
LWPOLYLINE
  5
11c
100
AcDbEntity
  8
0
 62
7
100
AcDbPolyline
 90
4
 70
1
 10
30.300661
 20
-61.983044
 30
0.0
 10
44.320749
 20
-61.983044
 30
0.0
 10
44.320749
 20
-76.003132
 30
0.0
 10
30.300661
 20
-76.003132
 30
0.0
  0
LWPOLYLINE
  5
11d
100
AcDbEntity
  8
0
 62
7
100
AcDbPolyline
 90
4
 70
1
 10
42.212656
 20
-23.884979
 30
0.0
 10
56.207345
 20
-23.884979
 30
0.0
 10
56.207345
 20
-37.905067
 30
0.0
 10
42.212656
 20
-37.905067
 30
0.0
  0
LWPOLYLINE
  5
11e
100
AcDbEntity
  8
0
 62
7
100
AcDbPolyline
 90
4
 70
1
 10
49.349693
 20
-100.081108
 30
0.0
 10
63.369781
 20
-100.081108
 30
0.0
 10
63.369781
 20
-114.101196
 30
0.0
 10
49.349693
 20
-114.101196
 30
0.0
  0
LWPOLYLINE
  5
11f
100
AcDbEntity
  8
0
 62
7
100
AcDbPolyline
 90
4
 70
1
 10
51.737172
 20
-42.934011
 30
0.0
 10
65.731861
 20
-42.934011
 30
0.0
 10
65.731861
 20
-56.954099
 30
0.0
 10
51.737172
 20
-56.954099
 30
0.0
  0
LWPOLYLINE
  5
120
100
AcDbEntity
  8
0
 62
7
100
AcDbPolyline
 90
4
 70
1
 10
56.512129
 20
-61.983044
 30
0.0
 10
70.506818
 20
-61.983044
 30
0.0
 10
70.506818
 20
-76.003132
 30
0.0
 10
56.512129
 20
-76.003132
 30
0.0
  0
LWPOLYLINE
  5
121
100
AcDbEntity
  8
0
 62
7
100
AcDbPolyline
 90
4
 70
1
 10
61.261688
 20
-0.086388
 30
0.0
 10
75.256377
 20
-0.086388
 30
0.0
 10
75.256377
 20
-14.081077
 30
0.0
 10
61.261688
 20
-14.081077
 30
0.0
  0
LWPOLYLINE
  5
122
100
AcDbEntity
  8
0
 62
7
100
AcDbPolyline
 90
4
 70
1
 10
61.261688
 20
-23.884979
 30
0.0
 10
75.256377
 20
-23.884979
 30
0.0
 10
75.256377
 20
-37.905067
 30
0.0
 10
61.261688
 20
-37.905067
 30
0.0
  0
LWPOLYLINE
  5
123
100
AcDbEntity
  8
0
 62
7
100
AcDbPolyline
 90
4
 70
1
 10
66.036645
 20
-81.032076
 30
0.0
 10
80.031334
 20
-81.032076
 30
0.0
 10
80.031334
 20
-95.052164
 30
0.0
 10
66.036645
 20
-95.052164
 30
0.0
  0
LWPOLYLINE
  5
124
100
AcDbEntity
  8
0
 62
7
100
AcDbPolyline
 90
4
 70
1
 10
70.786204
 20
-42.934011
 30
0.0
 10
84.780893
 20
-42.934011
 30
0.0
 10
84.780893
 20
-56.954099
 30
0.0
 10
70.786204
 20
-56.954099
 30
0.0
  0
LWPOLYLINE
  5
125
100
AcDbEntity
  8
0
 62
7
100
AcDbPolyline
 90
4
 70
1
 10
73.173683
 20
-100.081108
 30
0.0
 10
87.168372
 20
-100.081108
 30
0.0
 10
87.168372
 20
-114.101196
 30
0.0
 10
73.173683
 20
-114.101196
 30
0.0
  0
LWPOLYLINE
  5
126
100
AcDbEntity
  8
0
 62
7
100
AcDbPolyline
 90
4
 70
1
 10
75.561161
 20
-61.983044
 30
0.0
 10
89.555851
 20
-61.983044
 30
0.0
 10
89.555851
 20
-76.003132
 30
0.0
 10
75.561161
 20
-76.003132
 30
0.0
  0
LWPOLYLINE
  5
127
100
AcDbEntity
  8
0
 62
7
100
AcDbPolyline
 90
4
 70
1
 10
80.310720
 20
-0.086388
 30
0.0
 10
94.305409
 20
-0.086388
 30
0.0
 10
94.305409
 20
-14.081077
 30
0.0
 10
80.310720
 20
-14.081077
 30
0.0
  0
LWPOLYLINE
  5
128
100
AcDbEntity
  8
0
 62
7
100
AcDbPolyline
 90
4
 70
1
 10
80.310720
 20
-23.884979
 30
0.0
 10
94.305409
 20
-23.884979
 30
0.0
 10
94.305409
 20
-37.905067
 30
0.0
 10
80.310720
 20
-37.905067
 30
0.0
  0
LWPOLYLINE
  5
129
100
AcDbEntity
  8
0
 62
7
100
AcDbPolyline
 90
4
 70
1
 10
85.085678
 20
-81.032076
 30
0.0
 10
99.080367
 20
-81.032076
 30
0.0
 10
99.080367
 20
-95.052164
 30
0.0
 10
85.085678
 20
-95.052164
 30
0.0
  0
LWPOLYLINE
  5
12a
100
AcDbEntity
  8
0
 62
7
100
AcDbPolyline
 90
4
 70
1
 10
89.835236
 20
-42.934011
 30
0.0
 10
103.829925
 20
-42.934011
 30
0.0
 10
103.829925
 20
-56.954099
 30
0.0
 10
89.835236
 20
-56.954099
 30
0.0
  0
LWPOLYLINE
  5
12b
100
AcDbEntity
  8
0
 62
7
100
AcDbPolyline
 90
4
 70
1
 10
94.610194
 20
-61.983044
 30
0.0
 10
108.604883
 20
-61.983044
 30
0.0
 10
108.604883
 20
-76.003132
 30
0.0
 10
94.610194
 20
-76.003132
 30
0.0
  0
LWPOLYLINE
  5
12c
100
AcDbEntity
  8
0
 62
7
100
AcDbPolyline
 90
4
 70
1
 10
99.359753
 20
-0.086388
 30
0.0
 10
113.354442
 20
-0.086388
 30
0.0
 10
113.354442
 20
-14.081077
 30
0.0
 10
99.359753
 20
-14.081077
 30
0.0
  0
LWPOLYLINE
  5
12d
100
AcDbEntity
  8
0
 62
7
100
AcDbPolyline
 90
4
 70
1
 10
99.359753
 20
-23.884979
 30
0.0
 10
113.354442
 20
-23.884979
 30
0.0
 10
113.354442
 20
-37.905067
 30
0.0
 10
99.359753
 20
-37.905067
 30
0.0
  0
LWPOLYLINE
  5
12e
100
AcDbEntity
  8
0
 62
7
100
AcDbPolyline
 90
4
 70
1
 10
104.134710
 20
-81.032076
 30
0.0
 10
118.129399
 20
-81.032076
 30
0.0
 10
118.129399
 20
-95.052164
 30
0.0
 10
104.134710
 20
-95.052164
 30
0.0
  0
LWPOLYLINE
  5
12f
100
AcDbEntity
  8
0
 62
7
100
AcDbPolyline
 90
4
 70
1
 10
108.884269
 20
-42.934011
 30
0.0
 10
122.878958
 20
-42.934011
 30
0.0
 10
122.878958
 20
-56.954099
 30
0.0
 10
108.884269
 20
-56.954099
 30
0.0
  0
LWPOLYLINE
  5
130
100
AcDbEntity
  8
0
 62
7
100
AcDbPolyline
 90
4
 70
1
 10
113.659226
 20
-61.983044
 30
0.0
 10
127.653915
 20
-61.983044
 30
0.0
 10
127.653915
 20
-76.003132
 30
0.0
 10
113.659226
 20
-76.003132
 30
0.0
  0
LWPOLYLINE
  5
131
100
AcDbEntity
  8
0
 62
7
100
AcDbPolyline
 90
4
 70
1
 10
118.408785
 20
-0.086388
 30
0.0
 10
132.403474
 20
-0.086388
 30
0.0
 10
132.403474
 20
-14.081077
 30
0.0
 10
118.408785
 20
-14.081077
 30
0.0
  0
LWPOLYLINE
  5
132
100
AcDbEntity
  8
0
 62
7
100
AcDbPolyline
 90
4
 70
1
 10
118.408785
 20
-23.884979
 30
0.0
 10
132.403474
 20
-23.884979
 30
0.0
 10
132.403474
 20
-37.905067
 30
0.0
 10
118.408785
 20
-37.905067
 30
0.0
  0
LWPOLYLINE
  5
133
100
AcDbEntity
  8
0
 62
7
100
AcDbPolyline
 90
4
 70
1
 10
123.183742
 20
-81.032076
 30
0.0
 10
137.178431
 20
-81.032076
 30
0.0
 10
137.178431
 20
-95.052164
 30
0.0
 10
123.183742
 20
-95.052164
 30
0.0
  0
LWPOLYLINE
  5
134
100
AcDbEntity
  8
0
 62
7
100
AcDbPolyline
 90
4
 70
1
 10
127.933301
 20
-42.934011
 30
0.0
 10
141.927990
 20
-42.934011
 30
0.0
 10
141.927990
 20
-56.954099
 30
0.0
 10
127.933301
 20
-56.954099
 30
0.0
  0
LWPOLYLINE
  5
135
100
AcDbEntity
  8
0
 62
7
100
AcDbPolyline
 90
4
 70
1
 10
132.708258
 20
-61.983044
 30
0.0
 10
146.702947
 20
-61.983044
 30
0.0
 10
146.702947
 20
-76.003132
 30
0.0
 10
132.708258
 20
-76.003132
 30
0.0
  0
LWPOLYLINE
  5
136
100
AcDbEntity
  8
0
 62
7
100
AcDbPolyline
 90
4
 70
1
 10
137.457817
 20
-23.884979
 30
0.0
 10
151.452506
 20
-23.884979
 30
0.0
 10
151.452506
 20
-37.905067
 30
0.0
 10
137.457817
 20
-37.905067
 30
0.0
  0
LWPOLYLINE
  5
137
100
AcDbEntity
  8
0
 62
7
100
AcDbPolyline
 90
4
 70
1
 10
142.232775
 20
-81.032076
 30
0.0
 10
156.227464
 20
-81.032076
 30
0.0
 10
156.227464
 20
-95.052164
 30
0.0
 10
142.232775
 20
-95.052164
 30
0.0
  0
LWPOLYLINE
  5
138
100
AcDbEntity
  8
0
 62
7
100
AcDbPolyline
 90
4
 70
1
 10
146.982333
 20
-0.086388
 30
0.0
 10
160.977022
 20
-0.086388
 30
0.0
 10
160.977022
 20
-14.081077
 30
0.0
 10
146.982333
 20
-14.081077
 30
0.0
  0
LWPOLYLINE
  5
139
100
AcDbEntity
  8
0
 62
7
100
AcDbPolyline
 90
4
 70
1
 10
146.982333
 20
-42.934011
 30
0.0
 10
160.977022
 20
-42.934011
 30
0.0
 10
160.977022
 20
-56.954099
 30
0.0
 10
146.982333
 20
-56.954099
 30
0.0
  0
LWPOLYLINE
  5
13a
100
AcDbEntity
  8
0
 62
7
100
AcDbPolyline
 90
4
 70
1
 10
151.757291
 20
-61.983044
 30
0.0
 10
165.751980
 20
-61.983044
 30
0.0
 10
165.751980
 20
-76.003132
 30
0.0
 10
151.757291
 20
-76.003132
 30
0.0
  0
LWPOLYLINE
  5
13b
100
AcDbEntity
  8
0
 62
7
100
AcDbPolyline
 90
4
 70
1
 10
156.506849
 20
-23.884979
 30
0.0
 10
170.501539
 20
-23.884979
 30
0.0
 10
170.501539
 20
-37.905067
 30
0.0
 10
156.506849
 20
-37.905067
 30
0.0
  0
LWPOLYLINE
  5
13c
100
AcDbEntity
  8
0
 62
7
100
AcDbPolyline
 90
4
 70
1
 10
161.281807
 20
-81.032076
 30
0.0
 10
175.276496
 20
-81.032076
 30
0.0
 10
175.276496
 20
-95.052164
 30
0.0
 10
161.281807
 20
-95.052164
 30
0.0
  0
LWPOLYLINE
  5
13d
100
AcDbEntity
  8
0
 62
7
100
AcDbPolyline
 90
4
 70
1
 10
166.031366
 20
-0.086388
 30
0.0
 10
180.026055
 20
-0.086388
 30
0.0
 10
180.026055
 20
-14.081077
 30
0.0
 10
166.031366
 20
-14.081077
 30
0.0
  0
LWPOLYLINE
  5
13e
100
AcDbEntity
  8
0
 62
7
100
AcDbPolyline
 90
4
 70
1
 10
166.031366
 20
-42.934011
 30
0.0
 10
180.026055
 20
-42.934011
 30
0.0
 10
180.026055
 20
-56.954099
 30
0.0
 10
166.031366
 20
-56.954099
 30
0.0
  0
LWPOLYLINE
  5
13f
100
AcDbEntity
  8
0
 62
7
100
AcDbPolyline
 90
4
 70
1
 10
170.806323
 20
-61.983044
 30
0.0
 10
184.801012
 20
-61.983044
 30
0.0
 10
184.801012
 20
-76.003132
 30
0.0
 10
170.806323
 20
-76.003132
 30
0.0
  0
LWPOLYLINE
  5
140
100
AcDbEntity
  8
0
 62
7
100
AcDbPolyline
 90
4
 70
1
 10
175.555882
 20
-23.884979
 30
0.0
 10
189.550571
 20
-23.884979
 30
0.0
 10
189.550571
 20
-37.905067
 30
0.0
 10
175.555882
 20
-37.905067
 30
0.0
  0
LWPOLYLINE
  5
141
100
AcDbEntity
  8
0
 62
7
100
AcDbPolyline
 90
4
 70
1
 10
180.330839
 20
-81.032076
 30
0.0
 10
194.325528
 20
-81.032076
 30
0.0
 10
194.325528
 20
-95.052164
 30
0.0
 10
180.330839
 20
-95.052164
 30
0.0
  0
LWPOLYLINE
  5
142
100
AcDbEntity
  8
0
 62
7
100
AcDbPolyline
 90
4
 70
1
 10
185.080398
 20
-0.086388
 30
0.0
 10
199.075087
 20
-0.086388
 30
0.0
 10
199.075087
 20
-14.081077
 30
0.0
 10
185.080398
 20
-14.081077
 30
0.0
  0
LWPOLYLINE
  5
143
100
AcDbEntity
  8
0
 62
7
100
AcDbPolyline
 90
4
 70
1
 10
185.080398
 20
-42.934011
 30
0.0
 10
199.075087
 20
-42.934011
 30
0.0
 10
199.075087
 20
-56.954099
 30
0.0
 10
185.080398
 20
-56.954099
 30
0.0
  0
LWPOLYLINE
  5
144
100
AcDbEntity
  8
0
 62
7
100
AcDbPolyline
 90
4
 70
1
 10
189.855355
 20
-61.983044
 30
0.0
 10
203.850044
 20
-61.983044
 30
0.0
 10
203.850044
 20
-76.003132
 30
0.0
 10
189.855355
 20
-76.003132
 30
0.0
  0
LWPOLYLINE
  5
145
100
AcDbEntity
  8
0
 62
7
100
AcDbPolyline
 90
4
 70
1
 10
194.604914
 20
-23.884979
 30
0.0
 10
208.599603
 20
-23.884979
 30
0.0
 10
208.599603
 20
-37.905067
 30
0.0
 10
194.604914
 20
-37.905067
 30
0.0
  0
LWPOLYLINE
  5
146
100
AcDbEntity
  8
0
 62
7
100
AcDbPolyline
 90
4
 70
1
 10
199.379872
 20
-81.032076
 30
0.0
 10
213.374561
 20
-81.032076
 30
0.0
 10
213.374561
 20
-95.052164
 30
0.0
 10
199.379872
 20
-95.052164
 30
0.0
  0
LWPOLYLINE
  5
147
100
AcDbEntity
  8
0
 62
7
100
AcDbPolyline
 90
4
 70
1
 10
204.129430
 20
-0.086388
 30
0.0
 10
218.124119
 20
-0.086388
 30
0.0
 10
218.124119
 20
-14.081077
 30
0.0
 10
204.129430
 20
-14.081077
 30
0.0
  0
LWPOLYLINE
  5
148
100
AcDbEntity
  8
0
 62
7
100
AcDbPolyline
 90
4
 70
1
 10
204.129430
 20
-42.934011
 30
0.0
 10
218.124119
 20
-42.934011
 30
0.0
 10
218.124119
 20
-56.954099
 30
0.0
 10
204.129430
 20
-56.954099
 30
0.0
  0
LWPOLYLINE
  5
149
100
AcDbEntity
  8
0
 62
7
100
AcDbPolyline
 90
4
 70
1
 10
208.904388
 20
-61.983044
 30
0.0
 10
222.899077
 20
-61.983044
 30
0.0
 10
222.899077
 20
-76.003132
 30
0.0
 10
208.904388
 20
-76.003132
 30
0.0
  0
LWPOLYLINE
  5
14a
100
AcDbEntity
  8
0
 62
7
100
AcDbPolyline
 90
4
 70
1
 10
213.653946
 20
-23.884979
 30
0.0
 10
227.648635
 20
-23.884979
 30
0.0
 10
227.648635
 20
-37.905067
 30
0.0
 10
213.653946
 20
-37.905067
 30
0.0
  0
LWPOLYLINE
  5
14b
100
AcDbEntity
  8
0
 62
7
100
AcDbPolyline
 90
4
 70
1
 10
216.041425
 20
-100.081108
 30
0.0
 10
230.036114
 20
-100.081108
 30
0.0
 10
230.036114
 20
-114.101196
 30
0.0
 10
216.041425
 20
-114.101196
 30
0.0
  0
LWPOLYLINE
  5
14c
100
AcDbEntity
  8
0
 62
7
100
AcDbPolyline
 90
4
 70
1
 10
218.428904
 20
-81.032076
 30
0.0
 10
232.423593
 20
-81.032076
 30
0.0
 10
232.423593
 20
-95.052164
 30
0.0
 10
218.428904
 20
-95.052164
 30
0.0
  0
LWPOLYLINE
  5
14d
100
AcDbEntity
  8
0
 62
7
100
AcDbPolyline
 90
4
 70
1
 10
223.178463
 20
-42.934011
 30
0.0
 10
237.173152
 20
-42.934011
 30
0.0
 10
237.173152
 20
-56.954099
 30
0.0
 10
223.178463
 20
-56.954099
 30
0.0
  0
LWPOLYLINE
  5
14e
100
AcDbEntity
  8
0
 62
7
100
AcDbPolyline
 90
4
 70
1
 10
227.953420
 20
-61.983044
 30
0.0
 10
241.948109
 20
-61.983044
 30
0.0
 10
241.948109
 20
-76.003132
 30
0.0
 10
227.953420
 20
-76.003132
 30
0.0
  0
LWPOLYLINE
  5
14f
100
AcDbEntity
  8
0
 62
7
100
AcDbPolyline
 90
4
 70
1
 10
232.702979
 20
-0.086388
 30
0.0
 10
246.697668
 20
-0.086388
 30
0.0
 10
246.697668
 20
-14.081077
 30
0.0
 10
232.702979
 20
-14.081077
 30
0.0
  0
LWPOLYLINE
  5
150
100
AcDbEntity
  8
0
 62
7
100
AcDbPolyline
 90
4
 70
1
 10
232.702979
 20
-23.884979
 30
0.0
 10
246.697668
 20
-23.884979
 30
0.0
 10
246.697668
 20
-37.905067
 30
0.0
 10
232.702979
 20
-37.905067
 30
0.0
  0
LWPOLYLINE
  5
151
100
AcDbEntity
  8
0
 62
7
100
AcDbPolyline
 90
4
 70
1
 10
237.477936
 20
-81.032076
 30
0.0
 10
251.472625
 20
-81.032076
 30
0.0
 10
251.472625
 20
-95.052164
 30
0.0
 10
237.477936
 20
-95.052164
 30
0.0
  0
LWPOLYLINE
  5
152
100
AcDbEntity
  8
0
 62
7
100
AcDbPolyline
 90
4
 70
1
 10
239.840016
 20
-100.081108
 30
0.0
 10
253.860104
 20
-100.081108
 30
0.0
 10
253.860104
 20
-114.101196
 30
0.0
 10
239.840016
 20
-114.101196
 30
0.0
  0
LWPOLYLINE
  5
153
100
AcDbEntity
  8
0
 62
7
100
AcDbPolyline
 90
4
 70
1
 10
242.227495
 20
-42.934011
 30
0.0
 10
256.222184
 20
-42.934011
 30
0.0
 10
256.222184
 20
-56.954099
 30
0.0
 10
242.227495
 20
-56.954099
 30
0.0
  0
LWPOLYLINE
  5
154
100
AcDbEntity
  8
0
 62
7
100
AcDbPolyline
 90
4
 70
1
 10
247.002452
 20
-61.983044
 30
0.0
 10
260.997141
 20
-61.983044
 30
0.0
 10
260.997141
 20
-76.003132
 30
0.0
 10
247.002452
 20
-76.003132
 30
0.0
  0
LWPOLYLINE
  5
155
100
AcDbEntity
  8
0
 62
7
100
AcDbPolyline
 90
4
 70
1
 10
251.752011
 20
-0.086388
 30
0.0
 10
265.746700
 20
-0.086388
 30
0.0
 10
265.746700
 20
-14.081077
 30
0.0
 10
251.752011
 20
-14.081077
 30
0.0
  0
LWPOLYLINE
  5
156
100
AcDbEntity
  8
0
 62
7
100
AcDbPolyline
 90
4
 70
1
 10
251.752011
 20
-23.884979
 30
0.0
 10
265.746700
 20
-23.884979
 30
0.0
 10
265.746700
 20
-37.905067
 30
0.0
 10
251.752011
 20
-37.905067
 30
0.0
  0
LWPOLYLINE
  5
157
100
AcDbEntity
  8
0
 62
7
100
AcDbPolyline
 90
4
 70
1
 10
261.276527
 20
-42.934011
 30
0.0
 10
275.271216
 20
-42.934011
 30
0.0
 10
275.271216
 20
-56.954099
 30
0.0
 10
261.276527
 20
-56.954099
 30
0.0
  0
LWPOLYLINE
  5
158
100
AcDbEntity
  8
0
 62
7
100
AcDbPolyline
 90
4
 70
1
 10
263.664006
 20
-100.081108
 30
0.0
 10
277.658695
 20
-100.081108
 30
0.0
 10
277.658695
 20
-114.101196
 30
0.0
 10
263.664006
 20
-114.101196
 30
0.0
  0
LWPOLYLINE
  5
159
100
AcDbEntity
  8
0
 62
7
100
AcDbPolyline
 90
4
 70
1
 10
270.801043
 20
-0.086388
 30
0.0
 10
284.795732
 20
-0.086388
 30
0.0
 10
284.795732
 20
-14.081077
 30
0.0
 10
270.801043
 20
-14.081077
 30
0.0
  0
LWPOLYLINE
  5
15a
100
AcDbEntity
  8
0
 62
7
100
AcDbPolyline
 90
4
 70
1
 10
285.100517
 20
-42.934011
 30
0.0
 10
299.095206
 20
-42.934011
 30
0.0
 10
299.095206
 20
-56.954099
 30
0.0
 10
285.100517
 20
-56.954099
 30
0.0
  0
LWPOLYLINE
  5
15b
100
AcDbEntity
  8
0
 62
7
100
AcDbPolyline
 90
4
 70
1
 10
287.462597
 20
-100.081108
 30
0.0
 10
301.482685
 20
-100.081108
 30
0.0
 10
301.482685
 20
-114.101196
 30
0.0
 10
287.462597
 20
-114.101196
 30
0.0
  0
LWPOLYLINE
  5
15c
100
AcDbEntity
  8
0
 62
7
100
AcDbPolyline
 90
4
 70
1
 10
289.850076
 20
-0.086388
 30
0.0
 10
303.844765
 20
-0.086388
 30
0.0
 10
303.844765
 20
-14.081077
 30
0.0
 10
289.850076
 20
-14.081077
 30
0.0
  0
LWPOLYLINE
  5
15d
100
AcDbEntity
  8
0
 62
7
100
AcDbPolyline
 90
4
 70
1
 10
313.674065
 20
-23.884979
 30
0.0
 10
327.668754
 20
-23.884979
 30
0.0
 10
327.668754
 20
-37.905067
 30
0.0
 10
313.674065
 20
-37.905067
 30
0.0
  0
LWPOLYLINE
  5
15e
100
AcDbEntity
  8
0
 62
7
100
AcDbPolyline
 90
4
 70
1
 10
313.674065
 20
-100.081108
 30
0.0
 10
327.668754
 20
-100.081108
 30
0.0
 10
327.668754
 20
-114.101196
 30
0.0
 10
313.674065
 20
-114.101196
 30
0.0
  0
LWPOLYLINE
  5
15f
100
AcDbEntity
  8
0
 62
7
100
AcDbPolyline
 90
4
 70
1
 10
313.674065
 20
-0.086388
 30
0.0
 10
327.668754
 20
-0.086388
 30
0.0
 10
327.668754
 20
-14.081077
 30
0.0
 10
313.674065
 20
-14.081077
 30
0.0
  0
LWPOLYLINE
  5
160
100
AcDbEntity
  8
0
 62
7
100
AcDbPolyline
 90
4
 70
1
 10
313.674065
 20
-42.934011
 30
0.0
 10
327.668754
 20
-42.934011
 30
0.0
 10
327.668754
 20
-56.954099
 30
0.0
 10
313.674065
 20
-56.954099
 30
0.0
  0
LWPOLYLINE
  5
161
100
AcDbEntity
  8
0
 62
7
100
AcDbPolyline
 90
4
 70
1
 10
332.723098
 20
-23.884979
 30
0.0
 10
346.717787
 20
-23.884979
 30
0.0
 10
346.717787
 20
-37.905067
 30
0.0
 10
332.723098
 20
-37.905067
 30
0.0
  0
LWPOLYLINE
  5
162
100
AcDbEntity
  8
0
 62
7
100
AcDbPolyline
 90
4
 70
1
 10
332.723098
 20
-100.081108
 30
0.0
 10
346.717787
 20
-100.081108
 30
0.0
 10
346.717787
 20
-114.101196
 30
0.0
 10
332.723098
 20
-114.101196
 30
0.0
  0
LWPOLYLINE
  5
163
100
AcDbEntity
  8
0
 62
7
100
AcDbPolyline
 90
4
 70
1
 10
332.723098
 20
-0.086388
 30
0.0
 10
346.717787
 20
-0.086388
 30
0.0
 10
346.717787
 20
-14.081077
 30
0.0
 10
332.723098
 20
-14.081077
 30
0.0
  0
LWPOLYLINE
  5
164
100
AcDbEntity
  8
0
 62
7
100
AcDbPolyline
 90
4
 70
1
 10
332.723098
 20
-42.934011
 30
0.0
 10
346.717787
 20
-42.934011
 30
0.0
 10
346.717787
 20
-56.954099
 30
0.0
 10
332.723098
 20
-56.954099
 30
0.0
  0
LWPOLYLINE
  5
165
100
AcDbEntity
  8
0
 62
7
100
AcDbPolyline
 90
4
 70
1
 10
332.723098
 20
-81.032076
 30
0.0
 10
346.717787
 20
-81.032076
 30
0.0
 10
346.717787
 20
-95.052164
 30
0.0
 10
332.723098
 20
-95.052164
 30
0.0
  0
LWPOLYLINE
  5
166
100
AcDbEntity
  8
0
 62
7
100
AcDbPolyline
 90
4
 70
1
 10
351.772130
 20
-23.884979
 30
0.0
 10
365.766819
 20
-23.884979
 30
0.0
 10
365.766819
 20
-37.905067
 30
0.0
 10
351.772130
 20
-37.905067
 30
0.0
  0
LWPOLYLINE
  5
167
100
AcDbEntity
  8
0
 62
7
100
AcDbPolyline
 90
4
 70
1
 10
351.772130
 20
-100.081108
 30
0.0
 10
365.766819
 20
-100.081108
 30
0.0
 10
365.766819
 20
-114.101196
 30
0.0
 10
351.772130
 20
-114.101196
 30
0.0
  0
LWPOLYLINE
  5
168
100
AcDbEntity
  8
0
 62
7
100
AcDbPolyline
 90
4
 70
1
 10
351.772130
 20
-0.086388
 30
0.0
 10
365.766819
 20
-0.086388
 30
0.0
 10
365.766819
 20
-14.081077
 30
0.0
 10
351.772130
 20
-14.081077
 30
0.0
  0
LWPOLYLINE
  5
169
100
AcDbEntity
  8
0
 62
7
100
AcDbPolyline
 90
4
 70
1
 10
351.772130
 20
-42.934011
 30
0.0
 10
365.766819
 20
-42.934011
 30
0.0
 10
365.766819
 20
-56.954099
 30
0.0
 10
351.772130
 20
-56.954099
 30
0.0
  0
LWPOLYLINE
  5
16a
100
AcDbEntity
  8
0
 62
7
100
AcDbPolyline
 90
36
 70
1
 10
57.299489
 20
-88.575493
 30
0.0
 10
57.299489
 20
-94.823575
 30
0.0
 10
55.673972
 20
-94.823575
 30
0.0
 10
55.673972
 20
-96.042714
 30
0.0
 10
52.372139
 20
-96.042714
 30
0.0
 10
52.372139
 20
-94.823575
 30
0.0
 10
50.645027
 20
-94.823575
 30
0.0
 10
50.645027
 20
-94.036215
 30
0.0
 10
49.070307
 20
-94.036215
 30
0.0
 10
49.070307
 20
-95.052164
 30
0.0
 10
35.075618
 20
-95.052164
 30
0.0
 10
35.075618
 20
-94.036215
 30
0.0
 10
33.500898
 20
-94.036215
 30
0.0
 10
33.500898
 20
-94.823575
 30
0.0
 10
31.773786
 20
-94.823575
 30
0.0
 10
31.773786
 20
-96.042714
 30
0.0
 10
28.471954
 20
-96.042714
 30
0.0
 10
28.471954
 20
-94.823575
 30
0.0
 10
26.846436
 20
-94.823575
 30
0.0
 10
26.846436
 20
-88.575493
 30
0.0
 10
25.957481
 20
-88.575493
 30
0.0
 10
25.957481
 20
-85.756236
 30
0.0
 10
26.846436
 20
-85.756236
 30
0.0
 10
26.846436
 20
-82.530600
 30
0.0
 10
33.500898
 20
-82.530600
 30
0.0
 10
33.500898
 20
-83.343359
 30
0.0
 10
35.075618
 20
-83.343359
 30
0.0
 10
35.075618
 20
-81.057475
 30
0.0
 10
49.070307
 20
-81.057475
 30
0.0
 10
49.070307
 20
-83.343359
 30
0.0
 10
50.645027
 20
-83.343359
 30
0.0
 10
50.645027
 20
-82.530600
 30
0.0
 10
57.299489
 20
-82.530600
 30
0.0
 10
57.299489
 20
-85.756236
 30
0.0
 10
58.163045
 20
-85.756236
 30
0.0
 10
58.163045
 20
-88.575493
 30
0.0
  0
LWPOLYLINE
  5
16b
100
AcDbEntity
  8
0
 62
7
100
AcDbPolyline
 90
36
 70
1
 10
295.412393
 20
-88.575493
 30
0.0
 10
295.412393
 20
-94.823575
 30
0.0
 10
293.786876
 20
-94.823575
 30
0.0
 10
293.786876
 20
-96.042714
 30
0.0
 10
290.485043
 20
-96.042714
 30
0.0
 10
290.485043
 20
-94.823575
 30
0.0
 10
288.757931
 20
-94.823575
 30
0.0
 10
288.757931
 20
-94.036215
 30
0.0
 10
287.183211
 20
-94.036215
 30
0.0
 10
287.183211
 20
-95.052164
 30
0.0
 10
273.188522
 20
-95.052164
 30
0.0
 10
273.188522
 20
-94.036215
 30
0.0
 10
271.613802
 20
-94.036215
 30
0.0
 10
271.613802
 20
-94.823575
 30
0.0
 10
269.886690
 20
-94.823575
 30
0.0
 10
269.886690
 20
-96.042714
 30
0.0
 10
266.584857
 20
-96.042714
 30
0.0
 10
266.584857
 20
-94.823575
 30
0.0
 10
264.959340
 20
-94.823575
 30
0.0
 10
264.959340
 20
-88.575493
 30
0.0
 10
264.070385
 20
-88.575493
 30
0.0
 10
264.070385
 20
-85.756236
 30
0.0
 10
264.959340
 20
-85.756236
 30
0.0
 10
264.959340
 20
-82.530600
 30
0.0
 10
271.613802
 20
-82.530600
 30
0.0
 10
271.613802
 20
-83.343359
 30
0.0
 10
273.188522
 20
-83.343359
 30
0.0
 10
273.188522
 20
-81.057475
 30
0.0
 10
287.183211
 20
-81.057475
 30
0.0
 10
287.183211
 20
-83.343359
 30
0.0
 10
288.757931
 20
-83.343359
 30
0.0
 10
288.757931
 20
-82.530600
 30
0.0
 10
295.412393
 20
-82.530600
 30
0.0
 10
295.412393
 20
-85.756236
 30
0.0
 10
296.275949
 20
-85.756236
 30
0.0
 10
296.275949
 20
-88.575493
 30
0.0
  0
LWPOLYLINE
  5
16c
100
AcDbEntity
  8
0
 62
7
100
AcDbPolyline
 90
36
 70
1
 10
300.161952
 20
-69.526461
 30
0.0
 10
300.161952
 20
-75.774543
 30
0.0
 10
298.536434
 20
-75.774543
 30
0.0
 10
298.536434
 20
-76.993681
 30
0.0
 10
295.234602
 20
-76.993681
 30
0.0
 10
295.234602
 20
-75.774543
 30
0.0
 10
293.507490
 20
-75.774543
 30
0.0
 10
293.507490
 20
-74.987183
 30
0.0
 10
291.932770
 20
-74.987183
 30
0.0
 10
291.932770
 20
-76.003132
 30
0.0
 10
277.938081
 20
-76.003132
 30
0.0
 10
277.938081
 20
-74.987183
 30
0.0
 10
276.363361
 20
-74.987183
 30
0.0
 10
276.363361
 20
-75.774543
 30
0.0
 10
274.636248
 20
-75.774543
 30
0.0
 10
274.636248
 20
-76.993681
 30
0.0
 10
271.334416
 20
-76.993681
 30
0.0
 10
271.334416
 20
-75.774543
 30
0.0
 10
269.708899
 20
-75.774543
 30
0.0
 10
269.708899
 20
-69.526461
 30
0.0
 10
268.845343
 20
-69.526461
 30
0.0
 10
268.845343
 20
-66.707204
 30
0.0
 10
269.708899
 20
-66.707204
 30
0.0
 10
269.708899
 20
-63.481568
 30
0.0
 10
276.363361
 20
-63.481568
 30
0.0
 10
276.363361
 20
-64.294326
 30
0.0
 10
277.938081
 20
-64.294326
 30
0.0
 10
277.938081
 20
-62.008442
 30
0.0
 10
291.932770
 20
-62.008442
 30
0.0
 10
291.932770
 20
-64.294326
 30
0.0
 10
293.507490
 20
-64.294326
 30
0.0
 10
293.507490
 20
-63.481568
 30
0.0
 10
300.161952
 20
-63.481568
 30
0.0
 10
300.161952
 20
-66.707204
 30
0.0
 10
301.050907
 20
-66.707204
 30
0.0
 10
301.050907
 20
-69.526461
 30
0.0
  0
SPLINE
  5
16d
100
AcDbEntity
  8
0
 62
7
100
AcDbSpline
 70
8
 71
3
 72
8
 73
4
 74
0
 40
0
 40
0
 40
0
 40
0
 40
1
 40
1
 40
1
 40
1
 10
304.860713
 20
-49.944055
 30
0.0
 10
304.860713
 20
-50.146140
 30
0.0
 10
304.780435
 20
-50.339948
 30
0.0
 10
304.637540
 20
-50.482843
 30
0.0
  0
SPLINE
  5
16e
100
AcDbEntity
  8
0
 62
7
100
AcDbSpline
 70
8
 71
3
 72
8
 73
4
 74
0
 40
0
 40
0
 40
0
 40
0
 40
1
 40
1
 40
1
 40
1
 10
304.637540
 20
-50.482843
 30
0.0
 10
304.494644
 20
-50.625739
 30
0.0
 10
304.300836
 20
-50.706017
 30
0.0
 10
304.098752
 20
-50.706017
 30
0.0
  0
SPLINE
  5
16f
100
AcDbEntity
  8
0
 62
7
100
AcDbSpline
 70
8
 71
3
 72
8
 73
4
 74
0
 40
0
 40
0
 40
0
 40
0
 40
1
 40
1
 40
1
 40
1
 10
304.098752
 20
-50.706017
 30
0.0
 10
303.896667
 20
-50.706017
 30
0.0
 10
303.702859
 20
-50.625739
 30
0.0
 10
303.559964
 20
-50.482843
 30
0.0
  0
SPLINE
  5
170
100
AcDbEntity
  8
0
 62
7
100
AcDbSpline
 70
8
 71
3
 72
8
 73
4
 74
0
 40
0
 40
0
 40
0
 40
0
 40
1
 40
1
 40
1
 40
1
 10
303.559964
 20
-50.482843
 30
0.0
 10
303.417068
 20
-50.339948
 30
0.0
 10
303.336790
 20
-50.146140
 30
0.0
 10
303.336790
 20
-49.944055
 30
0.0
  0
SPLINE
  5
171
100
AcDbEntity
  8
0
 62
7
100
AcDbSpline
 70
8
 71
3
 72
8
 73
4
 74
0
 40
0
 40
0
 40
0
 40
0
 40
1
 40
1
 40
1
 40
1
 10
303.336790
 20
-49.944055
 30
0.0
 10
303.336790
 20
-49.741971
 30
0.0
 10
303.417068
 20
-49.548163
 30
0.0
 10
303.559964
 20
-49.405267
 30
0.0
  0
SPLINE
  5
172
100
AcDbEntity
  8
0
 62
7
100
AcDbSpline
 70
8
 71
3
 72
8
 73
4
 74
0
 40
0
 40
0
 40
0
 40
0
 40
1
 40
1
 40
1
 40
1
 10
303.559964
 20
-49.405267
 30
0.0
 10
303.702859
 20
-49.262372
 30
0.0
 10
303.896667
 20
-49.182094
 30
0.0
 10
304.098752
 20
-49.182094
 30
0.0
  0
SPLINE
  5
173
100
AcDbEntity
  8
0
 62
7
100
AcDbSpline
 70
8
 71
3
 72
8
 73
4
 74
0
 40
0
 40
0
 40
0
 40
0
 40
1
 40
1
 40
1
 40
1
 10
304.098752
 20
-49.182094
 30
0.0
 10
304.300836
 20
-49.182094
 30
0.0
 10
304.494644
 20
-49.262372
 30
0.0
 10
304.637540
 20
-49.405267
 30
0.0
  0
SPLINE
  5
174
100
AcDbEntity
  8
0
 62
7
100
AcDbSpline
 70
8
 71
3
 72
8
 73
4
 74
0
 40
0
 40
0
 40
0
 40
0
 40
1
 40
1
 40
1
 40
1
 10
304.637540
 20
-49.405267
 30
0.0
 10
304.780435
 20
-49.548163
 30
0.0
 10
304.860713
 20
-49.741971
 30
0.0
 10
304.860713
 20
-49.944055
 30
0.0
  0
LWPOLYLINE
  5
175
100
AcDbEntity
  8
0
 62
7
100
AcDbPolyline
 90
36
 70
1
 10
302.549430
 20
-31.428396
 30
0.0
 10
302.549430
 20
-37.676479
 30
0.0
 10
300.923913
 20
-37.676479
 30
0.0
 10
300.923913
 20
-38.895617
 30
0.0
 10
297.622081
 20
-38.895617
 30
0.0
 10
297.622081
 20
-37.676479
 30
0.0
 10
295.894969
 20
-37.676479
 30
0.0
 10
295.894969
 20
-36.889119
 30
0.0
 10
294.320249
 20
-36.889119
 30
0.0
 10
294.320249
 20
-37.905067
 30
0.0
 10
280.325559
 20
-37.905067
 30
0.0
 10
280.325559
 20
-36.889119
 30
0.0
 10
278.750839
 20
-36.889119
 30
0.0
 10
278.750839
 20
-37.676479
 30
0.0
 10
277.023727
 20
-37.676479
 30
0.0
 10
277.023727
 20
-38.895617
 30
0.0
 10
273.721895
 20
-38.895617
 30
0.0
 10
273.721895
 20
-37.676479
 30
0.0
 10
272.096378
 20
-37.676479
 30
0.0
 10
272.096378
 20
-31.428396
 30
0.0
 10
271.232821
 20
-31.428396
 30
0.0
 10
271.232821
 20
-28.609139
 30
0.0
 10
272.096378
 20
-28.609139
 30
0.0
 10
272.096378
 20
-25.383503
 30
0.0
 10
278.750839
 20
-25.383503
 30
0.0
 10
278.750839
 20
-26.196262
 30
0.0
 10
280.325559
 20
-26.196262
 30
0.0
 10
280.325559
 20
-23.910378
 30
0.0
 10
294.320249
 20
-23.910378
 30
0.0
 10
294.320249
 20
-26.196262
 30
0.0
 10
295.894969
 20
-26.196262
 30
0.0
 10
295.894969
 20
-25.383503
 30
0.0
 10
302.549430
 20
-25.383503
 30
0.0
 10
302.549430
 20
-28.609139
 30
0.0
 10
303.412987
 20
-28.609139
 30
0.0
 10
303.412987
 20
-31.428396
 30
0.0
  0
SPLINE
  5
176
100
AcDbEntity
  8
0
 62
7
100
AcDbSpline
 70
8
 71
3
 72
8
 73
4
 74
0
 40
0
 40
0
 40
0
 40
0
 40
1
 40
1
 40
1
 40
1
 10
111.830519
 20
-60.509919
 30
0.0
 10
111.830519
 20
-60.712003
 30
0.0
 10
111.750241
 20
-60.905811
 30
0.0
 10
111.607346
 20
-61.048707
 30
0.0
  0
SPLINE
  5
177
100
AcDbEntity
  8
0
 62
7
100
AcDbSpline
 70
8
 71
3
 72
8
 73
4
 74
0
 40
0
 40
0
 40
0
 40
0
 40
1
 40
1
 40
1
 40
1
 10
111.607346
 20
-61.048707
 30
0.0
 10
111.464450
 20
-61.191602
 30
0.0
 10
111.270642
 20
-61.271880
 30
0.0
 10
111.068558
 20
-61.271880
 30
0.0
  0
SPLINE
  5
178
100
AcDbEntity
  8
0
 62
7
100
AcDbSpline
 70
8
 71
3
 72
8
 73
4
 74
0
 40
0
 40
0
 40
0
 40
0
 40
1
 40
1
 40
1
 40
1
 10
111.068558
 20
-61.271880
 30
0.0
 10
110.866473
 20
-61.271880
 30
0.0
 10
110.672665
 20
-61.191602
 30
0.0
 10
110.529770
 20
-61.048707
 30
0.0
  0
SPLINE
  5
179
100
AcDbEntity
  8
0
 62
7
100
AcDbSpline
 70
8
 71
3
 72
8
 73
4
 74
0
 40
0
 40
0
 40
0
 40
0
 40
1
 40
1
 40
1
 40
1
 10
110.529770
 20
-61.048707
 30
0.0
 10
110.386874
 20
-60.905811
 30
0.0
 10
110.306596
 20
-60.712003
 30
0.0
 10
110.306596
 20
-60.509919
 30
0.0
  0
SPLINE
  5
17a
100
AcDbEntity
  8
0
 62
7
100
AcDbSpline
 70
8
 71
3
 72
8
 73
4
 74
0
 40
0
 40
0
 40
0
 40
0
 40
1
 40
1
 40
1
 40
1
 10
110.306596
 20
-60.509919
 30
0.0
 10
110.306596
 20
-60.307834
 30
0.0
 10
110.386874
 20
-60.114026
 30
0.0
 10
110.529770
 20
-59.971131
 30
0.0
  0
SPLINE
  5
17b
100
AcDbEntity
  8
0
 62
7
100
AcDbSpline
 70
8
 71
3
 72
8
 73
4
 74
0
 40
0
 40
0
 40
0
 40
0
 40
1
 40
1
 40
1
 40
1
 10
110.529770
 20
-59.971131
 30
0.0
 10
110.672665
 20
-59.828235
 30
0.0
 10
110.866473
 20
-59.747957
 30
0.0
 10
111.068558
 20
-59.747957
 30
0.0
  0
SPLINE
  5
17c
100
AcDbEntity
  8
0
 62
7
100
AcDbSpline
 70
8
 71
3
 72
8
 73
4
 74
0
 40
0
 40
0
 40
0
 40
0
 40
1
 40
1
 40
1
 40
1
 10
111.068558
 20
-59.747957
 30
0.0
 10
111.270642
 20
-59.747957
 30
0.0
 10
111.464450
 20
-59.828235
 30
0.0
 10
111.607346
 20
-59.971131
 30
0.0
  0
SPLINE
  5
17d
100
AcDbEntity
  8
0
 62
7
100
AcDbSpline
 70
8
 71
3
 72
8
 73
4
 74
0
 40
0
 40
0
 40
0
 40
0
 40
1
 40
1
 40
1
 40
1
 10
111.607346
 20
-59.971131
 30
0.0
 10
111.750241
 20
-60.114026
 30
0.0
 10
111.830519
 20
-60.307834
 30
0.0
 10
111.830519
 20
-60.509919
 30
0.0
  0
LWPOLYLINE
  5
17e
100
AcDbEntity
  8
0
 62
7
100
AcDbPolyline
 90
1
 70
1
 10
304.860713
 20
-49.944055
 30
0.0
  0
LWPOLYLINE
  5
17f
100
AcDbEntity
  8
0
 62
7
100
AcDbPolyline
 90
1
 70
1
 10
111.830519
 20
-60.509919
 30
0.0
  0
LWPOLYLINE
  5
180
100
AcDbEntity
  8
0
 62
7
100
AcDbPolyline
 90
36
 70
1
 10
204.914856
 20
-107.606518
 30
0.0
 10
204.914856
 20
-113.876527
 30
0.0
 10
203.244840
 20
-113.876527
 30
0.0
 10
203.244840
 20
-115.076517
 30
0.0
 10
199.944844
 20
-115.076517
 30
0.0
 10
199.944844
 20
-113.876527
 30
0.0
 10
198.264859
 20
-113.876527
 30
0.0
 10
198.264859
 20
-109.406527
 30
0.0
 10
158.594840
 20
-109.406527
 30
0.0
 10
158.594840
 20
-114.106527
 30
0.0
 10
144.594855
 20
-114.106527
 30
0.0
 10
144.594855
 20
-109.406527
 30
0.0
 10
104.914840
 20
-109.406527
 30
0.0
 10
104.914840
 20
-113.876527
 30
0.0
 10
103.244862
 20
-113.876527
 30
0.0
 10
103.244862
 20
-115.076517
 30
0.0
 10
99.944853
 20
-115.076517
 30
0.0
 10
99.944853
 20
-113.876527
 30
0.0
 10
98.264843
 20
-113.876527
 30
0.0
 10
98.264843
 20
-107.606518
 30
0.0
 10
97.394851
 20
-107.606518
 30
0.0
 10
97.394851
 20
-104.806508
 30
0.0
 10
98.264843
 20
-104.806508
 30
0.0
 10
98.264843
 20
-101.576506
 30
0.0
 10
104.914840
 20
-101.576506
 30
0.0
 10
104.914840
 20
-104.806508
 30
0.0
 10
144.594855
 20
-104.806508
 30
0.0
 10
144.594855
 20
-100.106507
 30
0.0
 10
158.594840
 20
-100.106507
 30
0.0
 10
158.594840
 20
-104.806508
 30
0.0
 10
198.264859
 20
-104.806508
 30
0.0
 10
198.264859
 20
-101.576506
 30
0.0
 10
204.914856
 20
-101.576506
 30
0.0
 10
204.914856
 20
-104.806508
 30
0.0
 10
205.794857
 20
-104.806508
 30
0.0
 10
205.794857
 20
-107.606518
 30
0.0
  0
ENDSEC
  0
SECTION
  2
OBJECTS
  0
DICTIONARY
  5
C
330
0
100
AcDbDictionary
  3
ACAD_GROUP
350
D
  3
ACAD_MLINESTYLE
350
17
  0
DICTIONARY
  5
D
330
C
100
AcDbDictionary
  0
DICTIONARY
  5
1A
330
C
100
AcDbDictionary
  0
DICTIONARY
  5
17
330
C
100
AcDbDictionary
  3
STANDARD
350
18
  0
DICTIONARY
  5
19
330
C
100
AcDbDictionary
  0
ENDSEC
  0
EOF
